G75*
%MOIN*%
%OFA0B0*%
%FSLAX25Y25*%
%IPPOS*%
%LPD*%
%AMOC8*
5,1,8,0,0,1.08239X$1,22.5*
%
%ADD10C,0.00000*%
%ADD11R,0.03937X0.04331*%
%ADD12R,0.04331X0.03937*%
%ADD13R,0.06299X0.11811*%
%ADD14R,0.08800X0.04800*%
%ADD15R,0.08661X0.14173*%
%ADD16R,0.03150X0.03150*%
%ADD17R,0.03543X0.03937*%
%ADD18R,0.06693X0.02165*%
%ADD19R,0.06693X0.03346*%
%ADD20R,0.04331X0.02362*%
%ADD21R,0.02200X0.07800*%
%ADD22R,0.07800X0.02200*%
%ADD23R,0.05906X0.01181*%
%ADD24R,0.01181X0.05906*%
%ADD25R,0.00981X0.01784*%
%ADD26R,0.00979X0.01782*%
%ADD27R,0.00984X0.01785*%
%ADD28R,0.00987X0.01784*%
%ADD29R,0.00990X0.01786*%
%ADD30R,0.00995X0.01788*%
%ADD31R,0.01782X0.00998*%
%ADD32R,0.01778X0.00997*%
%ADD33R,0.01775X0.00996*%
%ADD34R,0.01772X0.01001*%
%ADD35R,0.01767X0.01004*%
%ADD36R,0.01769X0.00990*%
%ADD37R,0.00992X0.01763*%
%ADD38R,0.00991X0.01761*%
%ADD39R,0.00984X0.01759*%
%ADD40R,0.00986X0.01765*%
%ADD41R,0.00980X0.01760*%
%ADD42R,0.00972X0.01754*%
%ADD43R,0.01763X0.00968*%
%ADD44R,0.01769X0.00974*%
%ADD45R,0.01772X0.00968*%
%ADD46R,0.01776X0.00971*%
%ADD47R,0.01783X0.00965*%
%ADD48R,0.01784X0.00970*%
%ADD49R,0.05906X0.05118*%
%ADD50R,0.10000X0.06000*%
%ADD51R,0.03937X0.05512*%
%ADD52R,0.03150X0.03543*%
%ADD53R,0.04134X0.04252*%
%ADD54R,0.04252X0.04134*%
D10*
X0005969Y0001000D02*
X0007937Y0312024D01*
X0236283Y0312024D01*
X0238252Y0001000D01*
X0005969Y0001000D01*
D11*
X0075232Y0065870D03*
X0075232Y0072563D03*
X0075598Y0083224D03*
X0075598Y0089917D03*
G36*
X0081232Y0084581D02*
X0083200Y0087988D01*
X0086948Y0085823D01*
X0084980Y0082416D01*
X0081232Y0084581D01*
G37*
G36*
X0084578Y0090377D02*
X0086546Y0093784D01*
X0090294Y0091619D01*
X0088326Y0088212D01*
X0084578Y0090377D01*
G37*
X0103374Y0073657D03*
X0103374Y0066965D03*
X0132874Y0066965D03*
X0132874Y0073657D03*
X0137000Y0086965D03*
X0137000Y0093657D03*
X0111252Y0109465D03*
X0111252Y0116157D03*
X0136622Y0153217D03*
X0136622Y0159909D03*
X0135913Y0189311D03*
X0142606Y0189311D03*
X0122870Y0201902D03*
X0122870Y0208594D03*
X0180000Y0198472D03*
X0180000Y0191780D03*
X0199500Y0210280D03*
X0199500Y0216972D03*
X0205500Y0193909D03*
X0205500Y0187217D03*
X0212500Y0168409D03*
X0212500Y0161717D03*
X0206311Y0109138D03*
X0199618Y0109138D03*
X0191752Y0109626D03*
X0185059Y0109626D03*
X0223165Y0105039D03*
X0229858Y0105039D03*
X0185693Y0250882D03*
X0179000Y0250882D03*
X0179000Y0264819D03*
X0185693Y0264819D03*
X0058031Y0171561D03*
X0051339Y0171561D03*
X0056539Y0136807D03*
X0056539Y0130114D03*
X0049031Y0130811D03*
X0042339Y0130811D03*
X0047555Y0116000D03*
X0047555Y0109307D03*
D12*
X0052248Y0092650D03*
X0058941Y0092650D03*
X0085685Y0073657D03*
X0085685Y0066965D03*
X0095185Y0066965D03*
X0095185Y0073657D03*
X0112874Y0073657D03*
X0112874Y0066965D03*
X0123374Y0066965D03*
X0123374Y0073657D03*
X0121720Y0080811D03*
X0115028Y0080811D03*
X0120937Y0109465D03*
X0120937Y0116157D03*
X0147169Y0085524D03*
X0147169Y0078831D03*
X0156571Y0078949D03*
X0156571Y0085642D03*
X0164756Y0085457D03*
X0164756Y0078764D03*
X0175228Y0073587D03*
X0175228Y0066894D03*
X0184602Y0067020D03*
X0184602Y0073713D03*
X0192913Y0073713D03*
X0192913Y0067020D03*
X0201508Y0080827D03*
X0201508Y0087520D03*
X0192268Y0095665D03*
X0192268Y0102358D03*
X0183185Y0102657D03*
X0183185Y0095965D03*
X0206252Y0073260D03*
X0206252Y0066567D03*
X0215217Y0066346D03*
X0215217Y0073039D03*
X0215665Y0096665D03*
X0215665Y0103358D03*
X0084075Y0177720D03*
X0084075Y0184413D03*
X0060067Y0180508D03*
X0053374Y0180508D03*
X0053248Y0188441D03*
X0059941Y0188441D03*
X0043685Y0158157D03*
X0043685Y0151465D03*
X0035685Y0154465D03*
X0035685Y0161157D03*
X0051685Y0155157D03*
X0051685Y0148465D03*
X0058935Y0145965D03*
X0058935Y0152657D03*
X0183669Y0290598D03*
X0190362Y0290598D03*
D13*
X0184500Y0231287D03*
X0184500Y0213965D03*
X0221500Y0201224D03*
X0221500Y0183902D03*
D14*
X0203700Y0178663D03*
X0203700Y0169563D03*
X0203700Y0160463D03*
X0169700Y0192026D03*
X0169700Y0201126D03*
X0169700Y0210226D03*
D15*
X0145299Y0201126D03*
X0179299Y0169563D03*
D16*
X0127213Y0189311D03*
X0121307Y0189311D03*
X0194394Y0250882D03*
X0200299Y0250882D03*
X0199850Y0264642D03*
X0193945Y0264642D03*
X0199685Y0073264D03*
X0199685Y0067358D03*
X0222185Y0066858D03*
X0222185Y0072764D03*
X0165327Y0072335D03*
X0165327Y0066429D03*
X0156138Y0066429D03*
X0156138Y0072335D03*
X0146953Y0072650D03*
X0146953Y0066744D03*
D17*
X0115315Y0203165D03*
X0115315Y0209465D03*
X0099173Y0209465D03*
X0099173Y0203165D03*
X0179945Y0275949D03*
X0179945Y0282248D03*
X0196087Y0282248D03*
X0196087Y0275949D03*
D18*
X0188016Y0273488D03*
X0107244Y0200705D03*
D19*
X0081406Y0226563D03*
X0069594Y0234437D03*
X0081406Y0242311D03*
X0069594Y0250185D03*
X0081406Y0258059D03*
X0069594Y0265933D03*
X0081406Y0273807D03*
X0069594Y0281681D03*
X0081406Y0289555D03*
X0069594Y0297429D03*
X0156209Y0297429D03*
X0168020Y0289555D03*
X0156209Y0281681D03*
X0168020Y0273807D03*
X0156209Y0265933D03*
X0156209Y0250185D03*
X0168020Y0242311D03*
X0156209Y0234437D03*
X0168020Y0226563D03*
X0168020Y0258059D03*
D20*
X0064205Y0120075D03*
X0064205Y0115154D03*
X0064205Y0110232D03*
X0064205Y0105311D03*
X0055543Y0105311D03*
X0055543Y0110232D03*
X0055543Y0115154D03*
X0055543Y0120075D03*
D21*
X0074756Y0130497D03*
X0079756Y0130497D03*
X0084756Y0130497D03*
X0089756Y0130497D03*
X0089756Y0149897D03*
X0084756Y0149897D03*
X0079756Y0149897D03*
X0074756Y0149897D03*
D22*
X0105800Y0102811D03*
X0105800Y0097811D03*
X0105800Y0092811D03*
X0105800Y0087811D03*
X0125200Y0087811D03*
X0125200Y0092811D03*
X0125200Y0097811D03*
X0125200Y0102811D03*
D23*
X0137335Y0119232D03*
X0137335Y0121201D03*
X0137335Y0123169D03*
X0137335Y0125138D03*
X0137335Y0127106D03*
X0137335Y0129075D03*
X0137335Y0131043D03*
X0137335Y0133012D03*
X0137335Y0134980D03*
X0137335Y0136949D03*
X0137335Y0138917D03*
X0137335Y0140886D03*
X0137335Y0142854D03*
X0137335Y0144823D03*
X0137335Y0146791D03*
X0137335Y0148760D03*
X0182217Y0148760D03*
X0182217Y0146791D03*
X0182217Y0144823D03*
X0182217Y0142854D03*
X0182217Y0140886D03*
X0182217Y0138917D03*
X0182217Y0136949D03*
X0182217Y0134980D03*
X0182217Y0133012D03*
X0182217Y0131043D03*
X0182217Y0129075D03*
X0182217Y0127106D03*
X0182217Y0125138D03*
X0182217Y0123169D03*
X0182217Y0121201D03*
X0182217Y0119232D03*
D24*
X0174539Y0111555D03*
X0172571Y0111555D03*
X0170602Y0111555D03*
X0168634Y0111555D03*
X0166665Y0111555D03*
X0164697Y0111555D03*
X0162728Y0111555D03*
X0160760Y0111555D03*
X0158791Y0111555D03*
X0156823Y0111555D03*
X0154854Y0111555D03*
X0152886Y0111555D03*
X0150917Y0111555D03*
X0148949Y0111555D03*
X0146980Y0111555D03*
X0145012Y0111555D03*
X0145012Y0156437D03*
X0146980Y0156437D03*
X0148949Y0156437D03*
X0150917Y0156437D03*
X0152886Y0156437D03*
X0154854Y0156437D03*
X0156823Y0156437D03*
X0158791Y0156437D03*
X0160760Y0156437D03*
X0162728Y0156437D03*
X0164697Y0156437D03*
X0166665Y0156437D03*
X0168634Y0156437D03*
X0170602Y0156437D03*
X0172571Y0156437D03*
X0174539Y0156437D03*
D25*
X0053172Y0071096D03*
D26*
X0051596Y0071097D03*
D27*
X0054748Y0071096D03*
D28*
X0056324Y0071096D03*
D29*
X0057901Y0071095D03*
D30*
X0059478Y0071094D03*
D31*
X0061448Y0073066D03*
D32*
X0061447Y0074643D03*
D33*
X0061447Y0076219D03*
D34*
X0061449Y0077795D03*
D35*
X0061451Y0079372D03*
D36*
X0061444Y0080946D03*
D37*
X0059476Y0082918D03*
D38*
X0057901Y0082919D03*
D39*
X0054748Y0082920D03*
D40*
X0056324Y0082917D03*
D41*
X0053171Y0082919D03*
D42*
X0051593Y0082922D03*
D43*
X0049622Y0080949D03*
D44*
X0049625Y0079371D03*
D45*
X0049622Y0077795D03*
D46*
X0049623Y0076218D03*
D47*
X0049620Y0074640D03*
D48*
X0049623Y0073065D03*
D49*
X0065685Y0129071D03*
X0065685Y0136551D03*
X0096500Y0099051D03*
X0096500Y0091571D03*
D50*
X0192500Y0187063D03*
X0192500Y0202063D03*
X0224000Y0174063D03*
X0224000Y0159063D03*
D51*
X0217685Y0120142D03*
X0213945Y0111480D03*
X0221425Y0111480D03*
X0212969Y0089484D03*
X0216709Y0080823D03*
X0209228Y0080823D03*
X0192780Y0080346D03*
X0189039Y0089008D03*
X0185299Y0080346D03*
D52*
X0202539Y0094157D03*
X0198799Y0102425D03*
X0206280Y0102425D03*
D53*
X0042130Y0137811D03*
X0035240Y0137811D03*
D54*
X0065435Y0145866D03*
X0065435Y0152756D03*
M02*
