%
M48
M72
T01C0.01378
T02C0.01969
T03C0.03150
T04C0.04300
T05C0.04724
T06C0.05118
T07C0.12000
T08C0.12205
%
T01
X52400Y79647
X46400Y83647
X49400Y86647
X46911Y102647
X45400Y110647
X45400Y119647
X37250Y125247
X31400Y119647
X26400Y119647
X20400Y132647
X32400Y138647
X32400Y142647
X32400Y146647
X32400Y150647
X36400Y155647
X31900Y160147
X31900Y164397
X31900Y168647
X31400Y174647
X39400Y174647
X46400Y178647
X41400Y182647
X46400Y187647
X39400Y192647
X39400Y201647
X38400Y212647
X38400Y222647
X38400Y230647
X44400Y239647
X49400Y236647
X53400Y241836
X54400Y247647
X49400Y229647
X49400Y223647
X56400Y227647
X62400Y229647
X59400Y220647
X65400Y218647
X67400Y212647
X60400Y211647
X70400Y222647
X86400Y232647
X90400Y229136
X96400Y229647
X103400Y238647
X101400Y243647
X98400Y246647
X87400Y245647
X87150Y241147
X85400Y253647
X88400Y262647
X95400Y258647
X101400Y266647
X113400Y261647
X119400Y265647
X122400Y253647
X121400Y246647
X125400Y237647
X114400Y229136
X99400Y213158
X93400Y206647
X99571Y200817
X97400Y197928
X93400Y195439
X93400Y189461
X96400Y186647
X101400Y191647
X95400Y180922
X99400Y176136
X103400Y175647
X110400Y172098
X111400Y165647
X105400Y159647
X99589Y153647
X98150Y163147
X95400Y166647
X87400Y173647
X75400Y174647
X72400Y177344
X60400Y172647
X71150Y160147
X70400Y156647
X60400Y156647
X66400Y145647
X71400Y142647
X70400Y135647
X80400Y132647
X82400Y127647
X77400Y125647
X79895Y119647
X83473Y119210
X91400Y127647
X100376Y127671
X110822Y127647
X114400Y126647
X120150Y125647
X128400Y122647
X132400Y124647
X138400Y127647
X137400Y131647
X138430Y135617
X135400Y137647
X129400Y149647
X124400Y148647
X123400Y143647
X124400Y140647
X120400Y138647
X118400Y134647
X114400Y144647
X110400Y144647
X110422Y148225
X115400Y153647
X115400Y157225
X127400Y158647
X128400Y154825
X134400Y157114
X139400Y152136
X143400Y150647
X144400Y156647
X145400Y164180
X153250Y159647
X158370Y153617
X161400Y155647
X161400Y148647
X166400Y148647
X168400Y141497
X172400Y138647
X177850Y141447
X177400Y134647
X188248Y124637
X189400Y112647
X185598Y109487
X174400Y114758
X171314Y116732
X166400Y122647
X158400Y126647
X158400Y131647
X163400Y141626
X153069Y150978
X149400Y149647
X147400Y126647
X144400Y119647
X150400Y116647
X144050Y112247
X150400Y106647
X155400Y100647
X159400Y97647
X164400Y104647
X167400Y97647
X168400Y85647
X168787Y81647
X167598Y74487
X160400Y80897
X148400Y76647
X140350Y81147
X134400Y75647
X128400Y72647
X129400Y81546
X127600Y84897
X117400Y93647
X125400Y98647
X131400Y99647
X120400Y104647
X120400Y108647
X120900Y112297
X114400Y111647
X107989Y113647
X105400Y109647
X98811Y111647
X95400Y109647
X84550Y100497
X85400Y96647
X97400Y90647
X106400Y90647
X106027Y102131
X116400Y76647
X109400Y74647
X101400Y75647
X91400Y76647
X78400Y74647
X65400Y86647
X65400Y90647
X65400Y94647
X66400Y98647
X67400Y102647
X57400Y114647
X67400Y118647
X53400Y131647
X45400Y142647
X38400Y142647
X42400Y153136
X45400Y156647
X23400Y179647
X17911Y188647
X20400Y215647
X38400Y247647
X66400Y270647
X81400Y280647
X86400Y278647
X85400Y290647
X95400Y289647
X115400Y288647
X126400Y293397
X130400Y297647
X139400Y290647
X145400Y294647
X158400Y301647
X172400Y295647
X188400Y287647
X199400Y297647
X204400Y285647
X209400Y277647
X204400Y261647
X199400Y257647
X205400Y250647
X203400Y245647
X209400Y237647
X205400Y228647
X208400Y221647
X207400Y205647
X196400Y195647
X190400Y200647
X182000Y197897
X175400Y200647
X174450Y193797
X174400Y185647
X174400Y177397
X178000Y171897
X172400Y169647
X171772Y165647
X172400Y154647
X185400Y158647
X190400Y154647
X194400Y157647
X203400Y160647
X209400Y155797
X209400Y148797
X212400Y140647
X212400Y132647
X209898Y125237
X215598Y115737
X220900Y120897
X216598Y107737
X217748Y102287
X216598Y96737
X220900Y95397
X216598Y85737
X212400Y80647
X216400Y75647
X210400Y60647
X204400Y62647
X206400Y46647
X221400Y54647
X229400Y53647
X246400Y48647
X225400Y41167
X192400Y75647
X198400Y84647
X181748Y82287
X180748Y95287
X162635Y114412
X194400Y140797
X200598Y115737
X200598Y110737
X202598Y104737
X230400Y88647
X236400Y83647
X241400Y105647
X248400Y115647
X242400Y120647
X251400Y106647
X259400Y82647
X268400Y74797
X268400Y68647
X230400Y134647
X222400Y137647
X227400Y150647
X239400Y137647
X220400Y168647
X212400Y168647
X206400Y172797
X212400Y182308
X217400Y189647
X228400Y192647
X243400Y186647
X251400Y184647
X268400Y194647
X244400Y203647
X238400Y208647
X241400Y215647
X236400Y218647
X229400Y218647
X227450Y209647
X232400Y226647
X244400Y230647
X246400Y243647
X254400Y252647
X263400Y244647
X237400Y252647
X228400Y253647
X222400Y244647
X227195Y266473
X182400Y248158
X182450Y230647
X177400Y230647
X181750Y222947
X179450Y216647
X173400Y219647
X165400Y216647
X160400Y222647
X158370Y225677
X154792Y226647
X149400Y234647
X139400Y235647
X140400Y246647
X139400Y254647
X136400Y262647
X140400Y271647
X130400Y285647
X162400Y229647
X166400Y229647
X151437Y203610
X155400Y202647
X156292Y197647
X159870Y197177
X162400Y194647
X164358Y190647
X163000Y185897
X161400Y181320
X158000Y177897
X158811Y172647
X147400Y183956
X141400Y194647
X138370Y196677
X147400Y196647
X152378Y197647
X133400Y216647
X127400Y204647
X123400Y201728
X119427Y203404
X119400Y191647
X126400Y191647
X127400Y182647
X130400Y175647
X127400Y171647
X127400Y168069
X131400Y165580
X136400Y175647
X87400Y157647
X79400Y161647
X79400Y145647
X70300Y190497
X73400Y198647
X77400Y195647
X81400Y195647
X18400Y97647
X18400Y88647
X18400Y82647
X25400Y81647
X32400Y83647
X32400Y95647
X73150Y56847
X111600Y42247
X122400Y52647
X116400Y62647
X140068Y62164
X160598Y65937
X167399Y41474
X268400Y168647
X196400Y178647
X194850Y174697
X196400Y186647
T02
X108089Y209462
X113010Y209462
X117931Y209462
X122853Y209462
X201349Y155159
X201349Y150237
X201349Y145316
X201349Y140395
X25916Y92174
X25916Y97096
X25916Y102017
X25916Y106938
X25916Y111859
T03
X245400Y94899
X245400Y134269
T04
X78890Y68050
X84340Y56850
X95240Y56850
X100690Y68050
X89790Y68050
X106140Y56850
X111590Y68050
X122490Y68050
X127940Y56850
X117040Y56850
X133390Y68050
X138840Y56850
X144290Y68050
X155190Y68050
X160640Y56850
X149740Y56850
X166090Y68050
X171540Y56850
X176990Y68050
X187890Y68050
X193340Y56850
X182440Y56850
X198790Y68050
X204240Y56850
X209690Y68050
T05
X254026Y223509
X254026Y237289
T06
X30337Y237686
X30337Y223907
X30337Y210127
X30337Y196348
T07
X51690Y62450
X236890Y62450
T08
X26180Y57332
X144290Y210875
X217124Y257111
X71455Y258111
X262400Y57332
M30
