G75*
%MOIN*%
%OFA0B0*%
%FSLAX25Y25*%
%IPPOS*%
%LPD*%
%AMOC8*
5,1,8,0,0,1.08239X$1,22.5*
%
%ADD10C,0.00000*%
%ADD11R,0.03937X0.04331*%
%ADD12R,0.04331X0.03937*%
%ADD13R,0.06299X0.11811*%
%ADD14R,0.08800X0.04800*%
%ADD15R,0.08661X0.14173*%
%ADD16R,0.03150X0.03150*%
%ADD17R,0.03543X0.03937*%
%ADD18R,0.06693X0.02165*%
%ADD19R,0.06693X0.03346*%
%ADD20R,0.04331X0.02362*%
%ADD21R,0.02200X0.07800*%
%ADD22R,0.07800X0.02200*%
%ADD23R,0.05906X0.01181*%
%ADD24R,0.01181X0.05906*%
%ADD25R,0.00981X0.01784*%
%ADD26R,0.00979X0.01782*%
%ADD27R,0.00984X0.01785*%
%ADD28R,0.00987X0.01784*%
%ADD29R,0.00990X0.01786*%
%ADD30R,0.00995X0.01788*%
%ADD31R,0.01782X0.00998*%
%ADD32R,0.01778X0.00997*%
%ADD33R,0.01775X0.00996*%
%ADD34R,0.01772X0.01001*%
%ADD35R,0.01767X0.01004*%
%ADD36R,0.01769X0.00990*%
%ADD37R,0.00992X0.01763*%
%ADD38R,0.00991X0.01761*%
%ADD39R,0.00984X0.01759*%
%ADD40R,0.00986X0.01765*%
%ADD41R,0.00980X0.01760*%
%ADD42R,0.00972X0.01754*%
%ADD43R,0.01763X0.00968*%
%ADD44R,0.01769X0.00974*%
%ADD45R,0.01772X0.00968*%
%ADD46R,0.01776X0.00971*%
%ADD47R,0.01783X0.00965*%
%ADD48R,0.01784X0.00970*%
%ADD49R,0.05906X0.05118*%
%ADD50R,0.10000X0.06000*%
%ADD51R,0.03937X0.05512*%
%ADD52R,0.03150X0.03543*%
D10*
X0006969Y0009400D02*
X0008937Y0308613D01*
X0237283Y0308613D01*
X0239252Y0009400D01*
X0006969Y0009400D01*
D11*
X0076232Y0062459D03*
X0076232Y0069152D03*
X0076598Y0079813D03*
X0076598Y0086506D03*
G36*
X0082232Y0081170D02*
X0084200Y0084577D01*
X0087948Y0082412D01*
X0085980Y0079005D01*
X0082232Y0081170D01*
G37*
G36*
X0085578Y0086966D02*
X0087546Y0090373D01*
X0091294Y0088208D01*
X0089326Y0084801D01*
X0085578Y0086966D01*
G37*
X0104374Y0070246D03*
X0104374Y0063554D03*
X0133874Y0063554D03*
X0133874Y0070246D03*
X0138000Y0083554D03*
X0138000Y0090246D03*
X0112252Y0106054D03*
X0112252Y0112746D03*
X0137622Y0149806D03*
X0137622Y0156498D03*
X0136913Y0185900D03*
X0143606Y0185900D03*
X0123870Y0198491D03*
X0123870Y0205183D03*
X0067004Y0134215D03*
X0067004Y0127522D03*
X0057539Y0127703D03*
X0057539Y0134396D03*
X0048555Y0112589D03*
X0048555Y0105896D03*
X0181000Y0188369D03*
X0181000Y0195061D03*
X0200500Y0206869D03*
X0200500Y0213561D03*
X0206500Y0190498D03*
X0206500Y0183806D03*
X0213500Y0164998D03*
X0213500Y0158306D03*
X0207311Y0105727D03*
X0200618Y0105727D03*
X0192752Y0106215D03*
X0186059Y0106215D03*
X0224165Y0101628D03*
X0230858Y0101628D03*
X0186693Y0247471D03*
X0180000Y0247471D03*
X0180000Y0261408D03*
X0186693Y0261408D03*
D12*
X0184669Y0287187D03*
X0191362Y0287187D03*
X0085075Y0181002D03*
X0085075Y0174309D03*
X0068067Y0174097D03*
X0061374Y0174097D03*
X0061248Y0185030D03*
X0067941Y0185030D03*
X0121937Y0112746D03*
X0121937Y0106054D03*
X0122720Y0077400D03*
X0124374Y0070246D03*
X0124374Y0063554D03*
X0116028Y0077400D03*
X0113874Y0070246D03*
X0113874Y0063554D03*
X0096185Y0063554D03*
X0096185Y0070246D03*
X0086685Y0070246D03*
X0086685Y0063554D03*
X0059941Y0089239D03*
X0053248Y0089239D03*
X0148169Y0082113D03*
X0148169Y0075420D03*
X0157571Y0075538D03*
X0157571Y0082231D03*
X0165756Y0082046D03*
X0165756Y0075353D03*
X0176228Y0070176D03*
X0176228Y0063483D03*
X0185602Y0063609D03*
X0185602Y0070302D03*
X0193913Y0070302D03*
X0193913Y0063609D03*
X0202508Y0077416D03*
X0202508Y0084109D03*
X0193268Y0092254D03*
X0193268Y0098947D03*
X0184185Y0099246D03*
X0184185Y0092554D03*
X0207252Y0069849D03*
X0207252Y0063156D03*
X0216217Y0062935D03*
X0216217Y0069628D03*
X0216665Y0093254D03*
X0216665Y0099947D03*
D13*
X0222500Y0180491D03*
X0222500Y0197813D03*
X0185500Y0210554D03*
X0185500Y0227876D03*
D14*
X0170700Y0206815D03*
X0170700Y0197715D03*
X0170700Y0188615D03*
X0204700Y0175252D03*
X0204700Y0166152D03*
X0204700Y0157052D03*
D15*
X0180299Y0166152D03*
X0146299Y0197715D03*
D16*
X0128213Y0185900D03*
X0122307Y0185900D03*
X0195394Y0247471D03*
X0201299Y0247471D03*
X0200850Y0261231D03*
X0194945Y0261231D03*
X0200685Y0069853D03*
X0200685Y0063947D03*
X0223185Y0063447D03*
X0223185Y0069353D03*
X0166327Y0068924D03*
X0166327Y0063018D03*
X0157138Y0063018D03*
X0157138Y0068924D03*
X0147953Y0069239D03*
X0147953Y0063333D03*
D17*
X0116315Y0199754D03*
X0116315Y0206054D03*
X0100173Y0206054D03*
X0100173Y0199754D03*
X0180945Y0272538D03*
X0180945Y0278837D03*
X0197087Y0278837D03*
X0197087Y0272538D03*
D18*
X0189016Y0270077D03*
X0108244Y0197294D03*
D19*
X0082406Y0223152D03*
X0070594Y0231026D03*
X0070594Y0246774D03*
X0082406Y0238900D03*
X0082406Y0254648D03*
X0070594Y0262522D03*
X0082406Y0270396D03*
X0082406Y0286144D03*
X0070594Y0278270D03*
X0070594Y0294018D03*
X0157209Y0294018D03*
X0169020Y0286144D03*
X0169020Y0270396D03*
X0157209Y0262522D03*
X0169020Y0254648D03*
X0157209Y0246774D03*
X0157209Y0231026D03*
X0169020Y0238900D03*
X0169020Y0223152D03*
X0157209Y0278270D03*
D20*
X0065205Y0116664D03*
X0065205Y0111743D03*
X0065205Y0106821D03*
X0065205Y0101900D03*
X0056543Y0101900D03*
X0056543Y0106821D03*
X0056543Y0111743D03*
X0056543Y0116664D03*
D21*
X0075756Y0127086D03*
X0080756Y0127086D03*
X0085756Y0127086D03*
X0090756Y0127086D03*
X0090756Y0146486D03*
X0085756Y0146486D03*
X0080756Y0146486D03*
X0075756Y0146486D03*
D22*
X0106800Y0099400D03*
X0106800Y0094400D03*
X0106800Y0089400D03*
X0106800Y0084400D03*
X0126200Y0084400D03*
X0126200Y0089400D03*
X0126200Y0094400D03*
X0126200Y0099400D03*
D23*
X0138335Y0115821D03*
X0138335Y0117790D03*
X0138335Y0119758D03*
X0138335Y0121727D03*
X0138335Y0123695D03*
X0138335Y0125664D03*
X0138335Y0127632D03*
X0138335Y0129601D03*
X0138335Y0131569D03*
X0138335Y0133538D03*
X0138335Y0135506D03*
X0138335Y0137475D03*
X0138335Y0139443D03*
X0138335Y0141412D03*
X0138335Y0143380D03*
X0138335Y0145349D03*
X0183217Y0145349D03*
X0183217Y0143380D03*
X0183217Y0141412D03*
X0183217Y0139443D03*
X0183217Y0137475D03*
X0183217Y0135506D03*
X0183217Y0133538D03*
X0183217Y0131569D03*
X0183217Y0129601D03*
X0183217Y0127632D03*
X0183217Y0125664D03*
X0183217Y0123695D03*
X0183217Y0121727D03*
X0183217Y0119758D03*
X0183217Y0117790D03*
X0183217Y0115821D03*
D24*
X0175539Y0108144D03*
X0173571Y0108144D03*
X0171602Y0108144D03*
X0169634Y0108144D03*
X0167665Y0108144D03*
X0165697Y0108144D03*
X0163728Y0108144D03*
X0161760Y0108144D03*
X0159791Y0108144D03*
X0157823Y0108144D03*
X0155854Y0108144D03*
X0153886Y0108144D03*
X0151917Y0108144D03*
X0149949Y0108144D03*
X0147980Y0108144D03*
X0146012Y0108144D03*
X0146012Y0153026D03*
X0147980Y0153026D03*
X0149949Y0153026D03*
X0151917Y0153026D03*
X0153886Y0153026D03*
X0155854Y0153026D03*
X0157823Y0153026D03*
X0159791Y0153026D03*
X0161760Y0153026D03*
X0163728Y0153026D03*
X0165697Y0153026D03*
X0167665Y0153026D03*
X0169634Y0153026D03*
X0171602Y0153026D03*
X0173571Y0153026D03*
X0175539Y0153026D03*
D25*
X0054172Y0067685D03*
D26*
X0052596Y0067686D03*
D27*
X0055748Y0067685D03*
D28*
X0057324Y0067685D03*
D29*
X0058901Y0067684D03*
D30*
X0060478Y0067683D03*
D31*
X0062448Y0069654D03*
D32*
X0062447Y0071232D03*
D33*
X0062447Y0072808D03*
D34*
X0062449Y0074384D03*
D35*
X0062451Y0075961D03*
D36*
X0062444Y0077535D03*
D37*
X0060476Y0079507D03*
D38*
X0058901Y0079508D03*
D39*
X0055748Y0079509D03*
D40*
X0057324Y0079506D03*
D41*
X0054171Y0079508D03*
D42*
X0052593Y0079511D03*
D43*
X0050622Y0077538D03*
D44*
X0050625Y0075960D03*
D45*
X0050622Y0074384D03*
D46*
X0050623Y0072807D03*
D47*
X0050620Y0071229D03*
D48*
X0050623Y0069654D03*
D49*
X0097500Y0088160D03*
X0097500Y0095640D03*
D50*
X0193500Y0183652D03*
X0193500Y0198652D03*
X0225000Y0170652D03*
X0225000Y0155652D03*
D51*
X0223425Y0116731D03*
X0219685Y0108069D03*
X0215945Y0116731D03*
X0213969Y0086073D03*
X0217709Y0077412D03*
X0210228Y0077412D03*
X0193780Y0076935D03*
X0186299Y0076935D03*
X0190039Y0085597D03*
D52*
X0199799Y0099014D03*
X0207280Y0099014D03*
X0203539Y0090746D03*
M02*
