G75*
%MOIN*%
%OFA0B0*%
%FSLAX25Y25*%
%IPPOS*%
%LPD*%
%AMOC8*
5,1,8,0,0,1.08239X$1,22.5*
%
%ADD10C,0.00000*%
%ADD11C,0.00600*%
%ADD12C,0.00800*%
%ADD13C,0.00400*%
%ADD14C,0.00787*%
%ADD15C,0.00500*%
%ADD16C,0.00300*%
%ADD17C,0.00200*%
%ADD18R,0.01476X0.30512*%
%ADD19R,0.01476X0.25591*%
%ADD20C,0.00700*%
%ADD21R,0.25591X0.01476*%
%ADD22R,0.00138X0.00138*%
%ADD23R,0.00138X0.00276*%
%ADD24R,0.00138X0.00413*%
%ADD25R,0.00138X0.00551*%
%ADD26R,0.00138X0.00689*%
%ADD27R,0.00138X0.00965*%
%ADD28R,0.00138X0.01791*%
%ADD29R,0.00138X0.00827*%
%ADD30R,0.00138X0.01102*%
%ADD31R,0.00138X0.03858*%
%ADD32R,0.00138X0.01240*%
%ADD33R,0.00138X0.01378*%
%ADD34R,0.00138X0.01516*%
%ADD35R,0.00138X0.01654*%
%ADD36R,0.00138X0.01929*%
%ADD37R,0.00138X0.02067*%
%ADD38R,0.00138X0.02205*%
%ADD39R,0.00138X0.02343*%
%ADD40R,0.00138X0.03720*%
%ADD41R,0.00138X0.02480*%
%ADD42R,0.00138X0.06614*%
%ADD43R,0.00138X0.02756*%
%ADD44R,0.00138X0.09508*%
%ADD45R,0.00138X0.09232*%
%ADD46R,0.00138X0.09094*%
%ADD47R,0.00138X0.08957*%
%ADD48R,0.00138X0.08681*%
%ADD49R,0.00138X0.08406*%
%ADD50R,0.00138X0.08130*%
%ADD51R,0.00138X0.07854*%
%ADD52R,0.00138X0.07717*%
%ADD53R,0.00138X0.07579*%
%ADD54R,0.00138X0.07303*%
%ADD55R,0.00138X0.07028*%
%ADD56R,0.00138X0.06890*%
%ADD57R,0.00138X0.06752*%
%ADD58R,0.00138X0.06476*%
%ADD59R,0.00138X0.06201*%
%ADD60R,0.00138X0.05925*%
%ADD61R,0.00138X0.05650*%
%ADD62R,0.00138X0.05512*%
%ADD63R,0.00138X0.05374*%
%ADD64R,0.00138X0.05098*%
%ADD65R,0.00138X0.04823*%
%ADD66R,0.00138X0.04685*%
%ADD67R,0.00138X0.04547*%
%ADD68R,0.00138X0.04272*%
%ADD69R,0.00138X0.02894*%
%ADD70R,0.00138X0.04409*%
%ADD71R,0.00138X0.04134*%
%ADD72R,0.00138X0.02618*%
%ADD73R,0.00138X0.04961*%
%ADD74R,0.00138X0.06063*%
%ADD75R,0.00138X0.03996*%
%ADD76R,0.00138X0.03307*%
%ADD77R,0.00138X0.05236*%
%ADD78R,0.00138X0.03445*%
%ADD79R,0.00138X0.03169*%
%ADD80R,0.00138X0.03583*%
%ADD81R,0.00138X0.03031*%
%ADD82R,0.00138X0.05787*%
%ADD83R,0.00138X0.06339*%
%ADD84R,0.00138X0.10197*%
%ADD85R,0.00138X0.16673*%
%ADD86R,0.00138X0.14744*%
%ADD87R,0.00138X0.12126*%
%ADD88R,0.00138X0.08819*%
%ADD89C,0.01000*%
D10*
X0012400Y0035678D02*
X0012400Y0265993D01*
X0051770Y0265993D01*
X0087203Y0307332D01*
X0201376Y0307332D01*
X0236809Y0265993D01*
X0276180Y0265993D01*
X0276180Y0035678D01*
X0012400Y0035678D01*
X0045690Y0062450D02*
X0045692Y0062604D01*
X0045698Y0062759D01*
X0045708Y0062913D01*
X0045722Y0063067D01*
X0045740Y0063220D01*
X0045761Y0063373D01*
X0045787Y0063526D01*
X0045817Y0063677D01*
X0045850Y0063828D01*
X0045888Y0063978D01*
X0045929Y0064127D01*
X0045974Y0064275D01*
X0046023Y0064421D01*
X0046076Y0064567D01*
X0046132Y0064710D01*
X0046192Y0064853D01*
X0046256Y0064993D01*
X0046323Y0065133D01*
X0046394Y0065270D01*
X0046468Y0065405D01*
X0046546Y0065539D01*
X0046627Y0065670D01*
X0046712Y0065799D01*
X0046800Y0065927D01*
X0046891Y0066051D01*
X0046985Y0066174D01*
X0047083Y0066294D01*
X0047183Y0066411D01*
X0047287Y0066526D01*
X0047393Y0066638D01*
X0047502Y0066747D01*
X0047614Y0066853D01*
X0047729Y0066957D01*
X0047846Y0067057D01*
X0047966Y0067155D01*
X0048089Y0067249D01*
X0048213Y0067340D01*
X0048341Y0067428D01*
X0048470Y0067513D01*
X0048601Y0067594D01*
X0048735Y0067672D01*
X0048870Y0067746D01*
X0049007Y0067817D01*
X0049147Y0067884D01*
X0049287Y0067948D01*
X0049430Y0068008D01*
X0049573Y0068064D01*
X0049719Y0068117D01*
X0049865Y0068166D01*
X0050013Y0068211D01*
X0050162Y0068252D01*
X0050312Y0068290D01*
X0050463Y0068323D01*
X0050614Y0068353D01*
X0050767Y0068379D01*
X0050920Y0068400D01*
X0051073Y0068418D01*
X0051227Y0068432D01*
X0051381Y0068442D01*
X0051536Y0068448D01*
X0051690Y0068450D01*
X0051844Y0068448D01*
X0051999Y0068442D01*
X0052153Y0068432D01*
X0052307Y0068418D01*
X0052460Y0068400D01*
X0052613Y0068379D01*
X0052766Y0068353D01*
X0052917Y0068323D01*
X0053068Y0068290D01*
X0053218Y0068252D01*
X0053367Y0068211D01*
X0053515Y0068166D01*
X0053661Y0068117D01*
X0053807Y0068064D01*
X0053950Y0068008D01*
X0054093Y0067948D01*
X0054233Y0067884D01*
X0054373Y0067817D01*
X0054510Y0067746D01*
X0054645Y0067672D01*
X0054779Y0067594D01*
X0054910Y0067513D01*
X0055039Y0067428D01*
X0055167Y0067340D01*
X0055291Y0067249D01*
X0055414Y0067155D01*
X0055534Y0067057D01*
X0055651Y0066957D01*
X0055766Y0066853D01*
X0055878Y0066747D01*
X0055987Y0066638D01*
X0056093Y0066526D01*
X0056197Y0066411D01*
X0056297Y0066294D01*
X0056395Y0066174D01*
X0056489Y0066051D01*
X0056580Y0065927D01*
X0056668Y0065799D01*
X0056753Y0065670D01*
X0056834Y0065539D01*
X0056912Y0065405D01*
X0056986Y0065270D01*
X0057057Y0065133D01*
X0057124Y0064993D01*
X0057188Y0064853D01*
X0057248Y0064710D01*
X0057304Y0064567D01*
X0057357Y0064421D01*
X0057406Y0064275D01*
X0057451Y0064127D01*
X0057492Y0063978D01*
X0057530Y0063828D01*
X0057563Y0063677D01*
X0057593Y0063526D01*
X0057619Y0063373D01*
X0057640Y0063220D01*
X0057658Y0063067D01*
X0057672Y0062913D01*
X0057682Y0062759D01*
X0057688Y0062604D01*
X0057690Y0062450D01*
X0057688Y0062296D01*
X0057682Y0062141D01*
X0057672Y0061987D01*
X0057658Y0061833D01*
X0057640Y0061680D01*
X0057619Y0061527D01*
X0057593Y0061374D01*
X0057563Y0061223D01*
X0057530Y0061072D01*
X0057492Y0060922D01*
X0057451Y0060773D01*
X0057406Y0060625D01*
X0057357Y0060479D01*
X0057304Y0060333D01*
X0057248Y0060190D01*
X0057188Y0060047D01*
X0057124Y0059907D01*
X0057057Y0059767D01*
X0056986Y0059630D01*
X0056912Y0059495D01*
X0056834Y0059361D01*
X0056753Y0059230D01*
X0056668Y0059101D01*
X0056580Y0058973D01*
X0056489Y0058849D01*
X0056395Y0058726D01*
X0056297Y0058606D01*
X0056197Y0058489D01*
X0056093Y0058374D01*
X0055987Y0058262D01*
X0055878Y0058153D01*
X0055766Y0058047D01*
X0055651Y0057943D01*
X0055534Y0057843D01*
X0055414Y0057745D01*
X0055291Y0057651D01*
X0055167Y0057560D01*
X0055039Y0057472D01*
X0054910Y0057387D01*
X0054779Y0057306D01*
X0054645Y0057228D01*
X0054510Y0057154D01*
X0054373Y0057083D01*
X0054233Y0057016D01*
X0054093Y0056952D01*
X0053950Y0056892D01*
X0053807Y0056836D01*
X0053661Y0056783D01*
X0053515Y0056734D01*
X0053367Y0056689D01*
X0053218Y0056648D01*
X0053068Y0056610D01*
X0052917Y0056577D01*
X0052766Y0056547D01*
X0052613Y0056521D01*
X0052460Y0056500D01*
X0052307Y0056482D01*
X0052153Y0056468D01*
X0051999Y0056458D01*
X0051844Y0056452D01*
X0051690Y0056450D01*
X0051536Y0056452D01*
X0051381Y0056458D01*
X0051227Y0056468D01*
X0051073Y0056482D01*
X0050920Y0056500D01*
X0050767Y0056521D01*
X0050614Y0056547D01*
X0050463Y0056577D01*
X0050312Y0056610D01*
X0050162Y0056648D01*
X0050013Y0056689D01*
X0049865Y0056734D01*
X0049719Y0056783D01*
X0049573Y0056836D01*
X0049430Y0056892D01*
X0049287Y0056952D01*
X0049147Y0057016D01*
X0049007Y0057083D01*
X0048870Y0057154D01*
X0048735Y0057228D01*
X0048601Y0057306D01*
X0048470Y0057387D01*
X0048341Y0057472D01*
X0048213Y0057560D01*
X0048089Y0057651D01*
X0047966Y0057745D01*
X0047846Y0057843D01*
X0047729Y0057943D01*
X0047614Y0058047D01*
X0047502Y0058153D01*
X0047393Y0058262D01*
X0047287Y0058374D01*
X0047183Y0058489D01*
X0047083Y0058606D01*
X0046985Y0058726D01*
X0046891Y0058849D01*
X0046800Y0058973D01*
X0046712Y0059101D01*
X0046627Y0059230D01*
X0046546Y0059361D01*
X0046468Y0059495D01*
X0046394Y0059630D01*
X0046323Y0059767D01*
X0046256Y0059907D01*
X0046192Y0060047D01*
X0046132Y0060190D01*
X0046076Y0060333D01*
X0046023Y0060479D01*
X0045974Y0060625D01*
X0045929Y0060773D01*
X0045888Y0060922D01*
X0045850Y0061072D01*
X0045817Y0061223D01*
X0045787Y0061374D01*
X0045761Y0061527D01*
X0045740Y0061680D01*
X0045722Y0061833D01*
X0045708Y0061987D01*
X0045698Y0062141D01*
X0045692Y0062296D01*
X0045690Y0062450D01*
X0071171Y0194833D02*
X0071240Y0194835D01*
X0071308Y0194841D01*
X0071376Y0194851D01*
X0071443Y0194864D01*
X0071509Y0194882D01*
X0071574Y0194903D01*
X0071638Y0194928D01*
X0071700Y0194956D01*
X0071761Y0194988D01*
X0071820Y0195023D01*
X0071876Y0195062D01*
X0071931Y0195104D01*
X0071982Y0195149D01*
X0072032Y0195197D01*
X0072078Y0195247D01*
X0072121Y0195300D01*
X0072162Y0195356D01*
X0072199Y0195413D01*
X0072232Y0195473D01*
X0072263Y0195535D01*
X0072289Y0195598D01*
X0072312Y0195662D01*
X0072332Y0195728D01*
X0072347Y0195795D01*
X0072359Y0195862D01*
X0072367Y0195930D01*
X0072371Y0195999D01*
X0072371Y0196067D01*
X0072367Y0196136D01*
X0072359Y0196204D01*
X0072347Y0196271D01*
X0072332Y0196338D01*
X0072312Y0196404D01*
X0072289Y0196468D01*
X0072263Y0196531D01*
X0072232Y0196593D01*
X0072199Y0196653D01*
X0072162Y0196710D01*
X0072121Y0196766D01*
X0072078Y0196819D01*
X0072032Y0196869D01*
X0071982Y0196917D01*
X0071931Y0196962D01*
X0071876Y0197004D01*
X0071820Y0197043D01*
X0071761Y0197078D01*
X0071700Y0197110D01*
X0071638Y0197138D01*
X0071574Y0197163D01*
X0071509Y0197184D01*
X0071443Y0197202D01*
X0071376Y0197215D01*
X0071308Y0197225D01*
X0071240Y0197231D01*
X0071171Y0197233D01*
X0230890Y0062450D02*
X0230892Y0062604D01*
X0230898Y0062759D01*
X0230908Y0062913D01*
X0230922Y0063067D01*
X0230940Y0063220D01*
X0230961Y0063373D01*
X0230987Y0063526D01*
X0231017Y0063677D01*
X0231050Y0063828D01*
X0231088Y0063978D01*
X0231129Y0064127D01*
X0231174Y0064275D01*
X0231223Y0064421D01*
X0231276Y0064567D01*
X0231332Y0064710D01*
X0231392Y0064853D01*
X0231456Y0064993D01*
X0231523Y0065133D01*
X0231594Y0065270D01*
X0231668Y0065405D01*
X0231746Y0065539D01*
X0231827Y0065670D01*
X0231912Y0065799D01*
X0232000Y0065927D01*
X0232091Y0066051D01*
X0232185Y0066174D01*
X0232283Y0066294D01*
X0232383Y0066411D01*
X0232487Y0066526D01*
X0232593Y0066638D01*
X0232702Y0066747D01*
X0232814Y0066853D01*
X0232929Y0066957D01*
X0233046Y0067057D01*
X0233166Y0067155D01*
X0233289Y0067249D01*
X0233413Y0067340D01*
X0233541Y0067428D01*
X0233670Y0067513D01*
X0233801Y0067594D01*
X0233935Y0067672D01*
X0234070Y0067746D01*
X0234207Y0067817D01*
X0234347Y0067884D01*
X0234487Y0067948D01*
X0234630Y0068008D01*
X0234773Y0068064D01*
X0234919Y0068117D01*
X0235065Y0068166D01*
X0235213Y0068211D01*
X0235362Y0068252D01*
X0235512Y0068290D01*
X0235663Y0068323D01*
X0235814Y0068353D01*
X0235967Y0068379D01*
X0236120Y0068400D01*
X0236273Y0068418D01*
X0236427Y0068432D01*
X0236581Y0068442D01*
X0236736Y0068448D01*
X0236890Y0068450D01*
X0237044Y0068448D01*
X0237199Y0068442D01*
X0237353Y0068432D01*
X0237507Y0068418D01*
X0237660Y0068400D01*
X0237813Y0068379D01*
X0237966Y0068353D01*
X0238117Y0068323D01*
X0238268Y0068290D01*
X0238418Y0068252D01*
X0238567Y0068211D01*
X0238715Y0068166D01*
X0238861Y0068117D01*
X0239007Y0068064D01*
X0239150Y0068008D01*
X0239293Y0067948D01*
X0239433Y0067884D01*
X0239573Y0067817D01*
X0239710Y0067746D01*
X0239845Y0067672D01*
X0239979Y0067594D01*
X0240110Y0067513D01*
X0240239Y0067428D01*
X0240367Y0067340D01*
X0240491Y0067249D01*
X0240614Y0067155D01*
X0240734Y0067057D01*
X0240851Y0066957D01*
X0240966Y0066853D01*
X0241078Y0066747D01*
X0241187Y0066638D01*
X0241293Y0066526D01*
X0241397Y0066411D01*
X0241497Y0066294D01*
X0241595Y0066174D01*
X0241689Y0066051D01*
X0241780Y0065927D01*
X0241868Y0065799D01*
X0241953Y0065670D01*
X0242034Y0065539D01*
X0242112Y0065405D01*
X0242186Y0065270D01*
X0242257Y0065133D01*
X0242324Y0064993D01*
X0242388Y0064853D01*
X0242448Y0064710D01*
X0242504Y0064567D01*
X0242557Y0064421D01*
X0242606Y0064275D01*
X0242651Y0064127D01*
X0242692Y0063978D01*
X0242730Y0063828D01*
X0242763Y0063677D01*
X0242793Y0063526D01*
X0242819Y0063373D01*
X0242840Y0063220D01*
X0242858Y0063067D01*
X0242872Y0062913D01*
X0242882Y0062759D01*
X0242888Y0062604D01*
X0242890Y0062450D01*
X0242888Y0062296D01*
X0242882Y0062141D01*
X0242872Y0061987D01*
X0242858Y0061833D01*
X0242840Y0061680D01*
X0242819Y0061527D01*
X0242793Y0061374D01*
X0242763Y0061223D01*
X0242730Y0061072D01*
X0242692Y0060922D01*
X0242651Y0060773D01*
X0242606Y0060625D01*
X0242557Y0060479D01*
X0242504Y0060333D01*
X0242448Y0060190D01*
X0242388Y0060047D01*
X0242324Y0059907D01*
X0242257Y0059767D01*
X0242186Y0059630D01*
X0242112Y0059495D01*
X0242034Y0059361D01*
X0241953Y0059230D01*
X0241868Y0059101D01*
X0241780Y0058973D01*
X0241689Y0058849D01*
X0241595Y0058726D01*
X0241497Y0058606D01*
X0241397Y0058489D01*
X0241293Y0058374D01*
X0241187Y0058262D01*
X0241078Y0058153D01*
X0240966Y0058047D01*
X0240851Y0057943D01*
X0240734Y0057843D01*
X0240614Y0057745D01*
X0240491Y0057651D01*
X0240367Y0057560D01*
X0240239Y0057472D01*
X0240110Y0057387D01*
X0239979Y0057306D01*
X0239845Y0057228D01*
X0239710Y0057154D01*
X0239573Y0057083D01*
X0239433Y0057016D01*
X0239293Y0056952D01*
X0239150Y0056892D01*
X0239007Y0056836D01*
X0238861Y0056783D01*
X0238715Y0056734D01*
X0238567Y0056689D01*
X0238418Y0056648D01*
X0238268Y0056610D01*
X0238117Y0056577D01*
X0237966Y0056547D01*
X0237813Y0056521D01*
X0237660Y0056500D01*
X0237507Y0056482D01*
X0237353Y0056468D01*
X0237199Y0056458D01*
X0237044Y0056452D01*
X0236890Y0056450D01*
X0236736Y0056452D01*
X0236581Y0056458D01*
X0236427Y0056468D01*
X0236273Y0056482D01*
X0236120Y0056500D01*
X0235967Y0056521D01*
X0235814Y0056547D01*
X0235663Y0056577D01*
X0235512Y0056610D01*
X0235362Y0056648D01*
X0235213Y0056689D01*
X0235065Y0056734D01*
X0234919Y0056783D01*
X0234773Y0056836D01*
X0234630Y0056892D01*
X0234487Y0056952D01*
X0234347Y0057016D01*
X0234207Y0057083D01*
X0234070Y0057154D01*
X0233935Y0057228D01*
X0233801Y0057306D01*
X0233670Y0057387D01*
X0233541Y0057472D01*
X0233413Y0057560D01*
X0233289Y0057651D01*
X0233166Y0057745D01*
X0233046Y0057843D01*
X0232929Y0057943D01*
X0232814Y0058047D01*
X0232702Y0058153D01*
X0232593Y0058262D01*
X0232487Y0058374D01*
X0232383Y0058489D01*
X0232283Y0058606D01*
X0232185Y0058726D01*
X0232091Y0058849D01*
X0232000Y0058973D01*
X0231912Y0059101D01*
X0231827Y0059230D01*
X0231746Y0059361D01*
X0231668Y0059495D01*
X0231594Y0059630D01*
X0231523Y0059767D01*
X0231456Y0059907D01*
X0231392Y0060047D01*
X0231332Y0060190D01*
X0231276Y0060333D01*
X0231223Y0060479D01*
X0231174Y0060625D01*
X0231129Y0060773D01*
X0231088Y0060922D01*
X0231050Y0061072D01*
X0231017Y0061223D01*
X0230987Y0061374D01*
X0230961Y0061527D01*
X0230940Y0061680D01*
X0230922Y0061833D01*
X0230908Y0061987D01*
X0230898Y0062141D01*
X0230892Y0062296D01*
X0230890Y0062450D01*
D11*
X0265316Y0082435D02*
X0272596Y0082435D01*
X0268956Y0082435D02*
X0268956Y0087289D01*
X0267743Y0089685D02*
X0271383Y0089685D01*
X0272596Y0090899D01*
X0272596Y0094539D01*
X0273809Y0094539D02*
X0275023Y0093325D01*
X0275023Y0092112D01*
X0273809Y0094539D02*
X0267743Y0094539D01*
X0267743Y0096936D02*
X0267743Y0100576D01*
X0268956Y0101789D01*
X0271383Y0101789D01*
X0272596Y0100576D01*
X0272596Y0096936D01*
X0265316Y0096936D01*
X0267743Y0104186D02*
X0272596Y0104186D01*
X0270169Y0104186D02*
X0267743Y0106613D01*
X0267743Y0107826D01*
X0267743Y0110228D02*
X0267743Y0111441D01*
X0272596Y0111441D01*
X0272596Y0110228D02*
X0272596Y0112655D01*
X0271383Y0115061D02*
X0268956Y0115061D01*
X0267743Y0116275D01*
X0267743Y0119915D01*
X0265316Y0119915D02*
X0272596Y0119915D01*
X0272596Y0116275D01*
X0271383Y0115061D01*
X0265316Y0111441D02*
X0264102Y0111441D01*
X0265316Y0129562D02*
X0265316Y0130775D01*
X0272596Y0130775D01*
X0272596Y0129562D02*
X0272596Y0131989D01*
X0271383Y0134395D02*
X0272596Y0135609D01*
X0272596Y0138036D01*
X0271383Y0139249D01*
X0268956Y0139249D01*
X0267743Y0138036D01*
X0267743Y0135609D01*
X0268956Y0134395D01*
X0271383Y0134395D01*
X0271383Y0141646D02*
X0267743Y0141646D01*
X0271383Y0141646D02*
X0272596Y0142859D01*
X0271383Y0144072D01*
X0272596Y0145286D01*
X0271383Y0146499D01*
X0267743Y0146499D01*
X0268956Y0148896D02*
X0267743Y0150109D01*
X0267743Y0152536D01*
X0268956Y0153749D01*
X0270169Y0153749D01*
X0270169Y0148896D01*
X0268956Y0148896D02*
X0271383Y0148896D01*
X0272596Y0150109D01*
X0272596Y0152536D01*
X0272596Y0156146D02*
X0267743Y0156146D01*
X0270169Y0156146D02*
X0267743Y0158573D01*
X0267743Y0159786D01*
X0267743Y0169438D02*
X0267743Y0173079D01*
X0268956Y0174292D01*
X0271383Y0174292D01*
X0272596Y0173079D01*
X0272596Y0169438D01*
X0275023Y0169438D02*
X0267743Y0169438D01*
X0268956Y0176689D02*
X0267743Y0177902D01*
X0267743Y0181542D01*
X0267743Y0183939D02*
X0267743Y0187579D01*
X0268956Y0188792D01*
X0271383Y0188792D01*
X0272596Y0187579D01*
X0272596Y0183939D01*
X0265316Y0183939D01*
X0268956Y0176689D02*
X0271383Y0176689D01*
X0272596Y0177902D01*
X0272596Y0181542D01*
X0267743Y0198440D02*
X0272596Y0200866D01*
X0267743Y0203293D01*
X0268956Y0205690D02*
X0267743Y0206903D01*
X0267743Y0209330D01*
X0268956Y0210543D01*
X0271383Y0210543D01*
X0272596Y0209330D01*
X0272596Y0206903D01*
X0271383Y0205690D01*
X0268956Y0205690D01*
X0272596Y0212940D02*
X0272596Y0215367D01*
X0272596Y0214154D02*
X0265316Y0214154D01*
X0265316Y0212940D01*
X0266529Y0217774D02*
X0265316Y0218987D01*
X0265316Y0221414D01*
X0266529Y0222627D01*
X0267743Y0222627D01*
X0272596Y0217774D01*
X0272596Y0222627D01*
X0187600Y0212447D02*
X0187600Y0208747D01*
X0187600Y0212447D02*
X0185400Y0212447D01*
X0181400Y0212447D02*
X0179200Y0212447D01*
X0179200Y0210847D01*
X0179200Y0208747D01*
X0180300Y0209147D02*
X0180326Y0209211D01*
X0180349Y0209275D01*
X0180367Y0209341D01*
X0180383Y0209408D01*
X0180394Y0209476D01*
X0180401Y0209544D01*
X0180405Y0209613D01*
X0180404Y0209681D01*
X0180400Y0209750D01*
X0180392Y0209818D01*
X0180380Y0209885D01*
X0180364Y0209952D01*
X0180344Y0210018D01*
X0180321Y0210082D01*
X0180294Y0210146D01*
X0180264Y0210207D01*
X0180230Y0210267D01*
X0180192Y0210324D01*
X0180152Y0210380D01*
X0180108Y0210433D01*
X0180062Y0210483D01*
X0180012Y0210531D01*
X0179961Y0210576D01*
X0179906Y0210617D01*
X0179849Y0210656D01*
X0179791Y0210691D01*
X0179730Y0210723D01*
X0179668Y0210752D01*
X0179604Y0210777D01*
X0179538Y0210798D01*
X0179472Y0210815D01*
X0179405Y0210829D01*
X0179337Y0210839D01*
X0179269Y0210845D01*
X0179200Y0210847D01*
X0111580Y0187575D02*
X0111580Y0183304D01*
X0110513Y0183304D01*
X0106242Y0187575D01*
X0105175Y0187575D01*
X0105175Y0183304D01*
X0107310Y0181129D02*
X0111580Y0176859D01*
X0111580Y0181129D01*
X0107310Y0181129D02*
X0107310Y0176859D01*
X0107310Y0174684D02*
X0107310Y0171481D01*
X0108378Y0170413D01*
X0109445Y0171481D01*
X0109445Y0173616D01*
X0110513Y0174684D01*
X0111580Y0173616D01*
X0111580Y0170413D01*
X0110513Y0168238D02*
X0108378Y0168238D01*
X0107310Y0167171D01*
X0107310Y0165035D01*
X0108378Y0163968D01*
X0110513Y0163968D01*
X0111580Y0165035D01*
X0111580Y0167171D01*
X0110513Y0168238D01*
X0111580Y0161806D02*
X0110513Y0160738D01*
X0106242Y0160738D01*
X0107310Y0159671D02*
X0107310Y0161806D01*
X0107310Y0157502D02*
X0107310Y0156435D01*
X0109445Y0154300D01*
X0111580Y0154300D02*
X0107310Y0154300D01*
X0108378Y0152124D02*
X0107310Y0151057D01*
X0107310Y0148922D01*
X0109445Y0148922D02*
X0109445Y0152124D01*
X0108378Y0152124D02*
X0111580Y0152124D01*
X0111580Y0148922D01*
X0110513Y0147854D01*
X0109445Y0148922D01*
X0109445Y0145679D02*
X0110513Y0145679D01*
X0111580Y0144611D01*
X0111580Y0141409D01*
X0105175Y0141409D01*
X0105175Y0144611D01*
X0106242Y0145679D01*
X0107310Y0145679D01*
X0108378Y0144611D01*
X0108378Y0141409D01*
X0108378Y0144611D02*
X0109445Y0145679D01*
X0141815Y0123947D02*
X0146015Y0123947D01*
X0148415Y0123947D01*
X0152615Y0123947D01*
X0148415Y0123947D02*
X0148413Y0123878D01*
X0148407Y0123810D01*
X0148397Y0123742D01*
X0148384Y0123675D01*
X0148366Y0123609D01*
X0148345Y0123544D01*
X0148320Y0123480D01*
X0148292Y0123418D01*
X0148260Y0123357D01*
X0148225Y0123298D01*
X0148186Y0123242D01*
X0148144Y0123187D01*
X0148099Y0123136D01*
X0148051Y0123086D01*
X0148001Y0123040D01*
X0147948Y0122997D01*
X0147892Y0122956D01*
X0147835Y0122919D01*
X0147775Y0122886D01*
X0147713Y0122855D01*
X0147650Y0122829D01*
X0147586Y0122806D01*
X0147520Y0122786D01*
X0147453Y0122771D01*
X0147386Y0122759D01*
X0147318Y0122751D01*
X0147249Y0122747D01*
X0147181Y0122747D01*
X0147112Y0122751D01*
X0147044Y0122759D01*
X0146977Y0122771D01*
X0146910Y0122786D01*
X0146844Y0122806D01*
X0146780Y0122829D01*
X0146717Y0122855D01*
X0146655Y0122886D01*
X0146595Y0122919D01*
X0146538Y0122956D01*
X0146482Y0122997D01*
X0146429Y0123040D01*
X0146379Y0123086D01*
X0146331Y0123136D01*
X0146286Y0123187D01*
X0146244Y0123242D01*
X0146205Y0123298D01*
X0146170Y0123357D01*
X0146138Y0123418D01*
X0146110Y0123480D01*
X0146085Y0123544D01*
X0146064Y0123609D01*
X0146046Y0123675D01*
X0146033Y0123742D01*
X0146023Y0123810D01*
X0146017Y0123878D01*
X0146015Y0123947D01*
X0141815Y0104347D02*
X0152615Y0104347D01*
X0082900Y0098547D02*
X0082900Y0096447D01*
X0082900Y0094847D01*
X0080700Y0094847D01*
X0082900Y0096447D02*
X0082831Y0096449D01*
X0082763Y0096455D01*
X0082695Y0096465D01*
X0082628Y0096479D01*
X0082562Y0096496D01*
X0082496Y0096517D01*
X0082432Y0096542D01*
X0082370Y0096571D01*
X0082309Y0096603D01*
X0082251Y0096638D01*
X0082194Y0096677D01*
X0082139Y0096718D01*
X0082088Y0096763D01*
X0082038Y0096811D01*
X0081992Y0096861D01*
X0081948Y0096914D01*
X0081908Y0096970D01*
X0081870Y0097027D01*
X0081836Y0097087D01*
X0081806Y0097148D01*
X0081779Y0097212D01*
X0081756Y0097276D01*
X0081736Y0097342D01*
X0081720Y0097409D01*
X0081708Y0097476D01*
X0081700Y0097544D01*
X0081696Y0097613D01*
X0081695Y0097681D01*
X0081699Y0097750D01*
X0081706Y0097818D01*
X0081717Y0097886D01*
X0081733Y0097953D01*
X0081751Y0098019D01*
X0081774Y0098083D01*
X0081800Y0098147D01*
X0076700Y0094847D02*
X0074500Y0094847D01*
X0074500Y0098547D01*
X0071171Y0190633D02*
X0071171Y0194833D01*
X0071171Y0197233D01*
X0071171Y0201433D01*
X0090771Y0201433D02*
X0090771Y0190633D01*
X0265316Y0087289D02*
X0272596Y0087289D01*
D12*
X0236215Y0140499D02*
X0222215Y0140499D01*
X0222215Y0166299D01*
X0236215Y0166299D01*
X0236215Y0140499D01*
X0252325Y0166359D02*
X0249176Y0169509D01*
X0249176Y0186438D01*
X0231254Y0201572D02*
X0228105Y0198422D01*
X0231254Y0201572D02*
X0231254Y0218501D01*
X0211176Y0201572D02*
X0214325Y0198422D01*
X0211176Y0201572D02*
X0211176Y0218501D01*
X0201215Y0199862D02*
X0201215Y0174062D01*
X0187215Y0174062D01*
X0187215Y0199862D01*
X0201215Y0199862D01*
X0192518Y0222525D02*
X0096061Y0222525D01*
X0096061Y0225478D01*
X0105904Y0225478D01*
X0105904Y0227643D01*
X0096061Y0227643D02*
X0096061Y0225478D01*
X0102577Y0213596D02*
X0102577Y0201785D01*
X0128365Y0201785D01*
X0128365Y0213596D01*
X0102577Y0213596D01*
X0182676Y0225478D02*
X0192518Y0225478D01*
X0192518Y0227643D01*
X0192518Y0225478D02*
X0192518Y0222525D01*
X0182676Y0225478D02*
X0182676Y0227643D01*
X0225758Y0245529D02*
X0227569Y0245529D01*
X0228490Y0244308D01*
X0229380Y0245529D02*
X0227569Y0245529D01*
X0227469Y0245468D02*
X0226709Y0244308D01*
X0235518Y0245478D02*
X0237329Y0245478D01*
X0238250Y0244257D01*
X0239140Y0245478D02*
X0237329Y0245478D01*
X0237229Y0245417D02*
X0236469Y0244257D01*
X0269254Y0186438D02*
X0269254Y0169509D01*
X0266105Y0166359D01*
X0209026Y0160670D02*
X0209026Y0134883D01*
X0197215Y0134883D01*
X0197215Y0160670D01*
X0209026Y0160670D01*
X0188526Y0166287D02*
X0187366Y0167047D01*
X0187306Y0167147D02*
X0188526Y0168067D01*
X0187306Y0168958D02*
X0187306Y0167147D01*
X0187306Y0165336D01*
X0189743Y0117718D02*
X0189743Y0114568D01*
X0192105Y0114568D01*
X0198404Y0114568D02*
X0200766Y0114568D01*
X0200766Y0117718D01*
X0195961Y0089066D02*
X0194150Y0089066D01*
X0195070Y0087846D01*
X0194150Y0089066D02*
X0192339Y0089066D01*
X0193290Y0087846D02*
X0194050Y0089006D01*
X0219089Y0089316D02*
X0220900Y0089316D01*
X0221820Y0088096D01*
X0222711Y0089316D02*
X0220900Y0089316D01*
X0220800Y0089256D02*
X0220040Y0088096D01*
X0112853Y0088548D02*
X0111042Y0088548D01*
X0110121Y0089769D01*
X0109231Y0088548D02*
X0111042Y0088548D01*
X0111142Y0088609D02*
X0111902Y0089769D01*
X0103664Y0088548D02*
X0101853Y0088548D01*
X0100932Y0089769D01*
X0100042Y0088548D02*
X0101853Y0088548D01*
X0101953Y0088609D02*
X0102713Y0089769D01*
X0094479Y0088863D02*
X0092668Y0088863D01*
X0091747Y0090084D01*
X0090857Y0088863D02*
X0092668Y0088863D01*
X0092768Y0088924D02*
X0093528Y0090084D01*
X0033593Y0086663D02*
X0021782Y0086663D01*
X0021782Y0117371D01*
X0033593Y0117371D01*
X0033593Y0086663D01*
X0096061Y0303627D02*
X0096061Y0306186D01*
X0105904Y0306186D01*
X0105904Y0303627D01*
X0096061Y0306186D02*
X0124605Y0331186D01*
X0163975Y0331186D01*
X0192518Y0306186D01*
X0182676Y0306186D01*
X0182676Y0303627D01*
X0192518Y0303627D02*
X0192518Y0306186D01*
D13*
X0182614Y0196530D02*
X0182614Y0194662D01*
X0181213Y0196063D01*
X0184015Y0196063D01*
X0208213Y0192582D02*
X0208680Y0193049D01*
X0209147Y0193049D01*
X0209614Y0192582D01*
X0210081Y0193049D01*
X0210548Y0193049D01*
X0211015Y0192582D01*
X0211015Y0191648D01*
X0210548Y0191181D01*
X0209614Y0192115D02*
X0209614Y0192582D01*
X0208213Y0192582D02*
X0208213Y0191648D01*
X0208680Y0191181D01*
X0208717Y0183949D02*
X0208250Y0183482D01*
X0208250Y0182548D01*
X0208717Y0182081D01*
X0208717Y0183949D02*
X0209184Y0183949D01*
X0211052Y0182081D01*
X0211052Y0183949D01*
X0211015Y0175437D02*
X0211015Y0173569D01*
X0211015Y0174503D02*
X0208213Y0174503D01*
X0209147Y0173569D01*
X0216213Y0162500D02*
X0217614Y0161099D01*
X0217614Y0162967D01*
X0219015Y0162500D02*
X0216213Y0162500D01*
X0243213Y0159019D02*
X0243680Y0159486D01*
X0244147Y0159486D01*
X0244614Y0159019D01*
X0245081Y0159486D01*
X0245548Y0159486D01*
X0246015Y0159019D01*
X0246015Y0158085D01*
X0245548Y0157618D01*
X0244614Y0158552D02*
X0244614Y0159019D01*
X0243213Y0159019D02*
X0243213Y0158085D01*
X0243680Y0157618D01*
X0243717Y0150386D02*
X0243250Y0149919D01*
X0243250Y0148985D01*
X0243717Y0148518D01*
X0243717Y0150386D02*
X0244184Y0150386D01*
X0246052Y0148518D01*
X0246052Y0150386D01*
X0246015Y0141874D02*
X0246015Y0140006D01*
X0246015Y0140940D02*
X0243213Y0140940D01*
X0244147Y0140006D01*
D14*
X0218624Y0230859D02*
X0218624Y0231253D01*
X0218624Y0240702D02*
X0218624Y0241096D01*
X0207601Y0240702D02*
X0207601Y0231253D01*
X0109959Y0124655D02*
X0109565Y0124655D01*
X0100117Y0124655D02*
X0099723Y0124655D01*
X0100117Y0113631D02*
X0109565Y0113631D01*
D15*
X0125786Y0143328D02*
X0125788Y0143367D01*
X0125794Y0143406D01*
X0125804Y0143444D01*
X0125817Y0143481D01*
X0125834Y0143516D01*
X0125854Y0143550D01*
X0125878Y0143581D01*
X0125905Y0143610D01*
X0125934Y0143636D01*
X0125966Y0143659D01*
X0126000Y0143679D01*
X0126036Y0143695D01*
X0126073Y0143707D01*
X0126112Y0143716D01*
X0126151Y0143721D01*
X0126190Y0143722D01*
X0126229Y0143719D01*
X0126268Y0143712D01*
X0126305Y0143701D01*
X0126342Y0143687D01*
X0126377Y0143669D01*
X0126410Y0143648D01*
X0126441Y0143623D01*
X0126469Y0143596D01*
X0126494Y0143566D01*
X0126516Y0143533D01*
X0126535Y0143499D01*
X0126550Y0143463D01*
X0126562Y0143425D01*
X0126570Y0143387D01*
X0126574Y0143348D01*
X0126574Y0143308D01*
X0126570Y0143269D01*
X0126562Y0143231D01*
X0126550Y0143193D01*
X0126535Y0143157D01*
X0126516Y0143123D01*
X0126494Y0143090D01*
X0126469Y0143060D01*
X0126441Y0143033D01*
X0126410Y0143008D01*
X0126377Y0142987D01*
X0126342Y0142969D01*
X0126305Y0142955D01*
X0126268Y0142944D01*
X0126229Y0142937D01*
X0126190Y0142934D01*
X0126151Y0142935D01*
X0126112Y0142940D01*
X0126073Y0142949D01*
X0126036Y0142961D01*
X0126000Y0142977D01*
X0125966Y0142997D01*
X0125934Y0143020D01*
X0125905Y0143046D01*
X0125878Y0143075D01*
X0125854Y0143106D01*
X0125834Y0143140D01*
X0125817Y0143175D01*
X0125804Y0143212D01*
X0125794Y0143250D01*
X0125788Y0143289D01*
X0125786Y0143328D01*
X0125623Y0143722D02*
X0125625Y0143769D01*
X0125631Y0143815D01*
X0125640Y0143861D01*
X0125654Y0143905D01*
X0125671Y0143949D01*
X0125692Y0143990D01*
X0125716Y0144030D01*
X0125743Y0144068D01*
X0125774Y0144103D01*
X0125807Y0144136D01*
X0125843Y0144166D01*
X0125882Y0144192D01*
X0125922Y0144216D01*
X0125964Y0144235D01*
X0126008Y0144252D01*
X0126053Y0144264D01*
X0126099Y0144273D01*
X0126145Y0144278D01*
X0126192Y0144279D01*
X0126238Y0144276D01*
X0126284Y0144269D01*
X0126330Y0144258D01*
X0126374Y0144244D01*
X0126417Y0144226D01*
X0126458Y0144204D01*
X0126498Y0144179D01*
X0126535Y0144151D01*
X0126570Y0144120D01*
X0126602Y0144086D01*
X0126631Y0144049D01*
X0126656Y0144011D01*
X0126679Y0143970D01*
X0126698Y0143927D01*
X0126713Y0143883D01*
X0126725Y0143838D01*
X0126733Y0143792D01*
X0126737Y0143745D01*
X0126737Y0143699D01*
X0126733Y0143652D01*
X0126725Y0143606D01*
X0126713Y0143561D01*
X0126698Y0143517D01*
X0126679Y0143474D01*
X0126656Y0143433D01*
X0126631Y0143395D01*
X0126602Y0143358D01*
X0126570Y0143324D01*
X0126535Y0143293D01*
X0126498Y0143265D01*
X0126459Y0143240D01*
X0126417Y0143218D01*
X0126374Y0143200D01*
X0126330Y0143186D01*
X0126284Y0143175D01*
X0126238Y0143168D01*
X0126192Y0143165D01*
X0126145Y0143166D01*
X0126099Y0143171D01*
X0126053Y0143180D01*
X0126008Y0143192D01*
X0125964Y0143209D01*
X0125922Y0143228D01*
X0125882Y0143252D01*
X0125843Y0143278D01*
X0125807Y0143308D01*
X0125774Y0143341D01*
X0125743Y0143376D01*
X0125716Y0143414D01*
X0125692Y0143454D01*
X0125671Y0143495D01*
X0125654Y0143539D01*
X0125640Y0143583D01*
X0125631Y0143629D01*
X0125625Y0143675D01*
X0125623Y0143722D01*
X0125786Y0143722D02*
X0125788Y0143761D01*
X0125794Y0143800D01*
X0125804Y0143838D01*
X0125817Y0143875D01*
X0125834Y0143910D01*
X0125854Y0143944D01*
X0125878Y0143975D01*
X0125905Y0144004D01*
X0125934Y0144030D01*
X0125966Y0144053D01*
X0126000Y0144073D01*
X0126036Y0144089D01*
X0126073Y0144101D01*
X0126112Y0144110D01*
X0126151Y0144115D01*
X0126190Y0144116D01*
X0126229Y0144113D01*
X0126268Y0144106D01*
X0126305Y0144095D01*
X0126342Y0144081D01*
X0126377Y0144063D01*
X0126410Y0144042D01*
X0126441Y0144017D01*
X0126469Y0143990D01*
X0126494Y0143960D01*
X0126516Y0143927D01*
X0126535Y0143893D01*
X0126550Y0143857D01*
X0126562Y0143819D01*
X0126570Y0143781D01*
X0126574Y0143742D01*
X0126574Y0143702D01*
X0126570Y0143663D01*
X0126562Y0143625D01*
X0126550Y0143587D01*
X0126535Y0143551D01*
X0126516Y0143517D01*
X0126494Y0143484D01*
X0126469Y0143454D01*
X0126441Y0143427D01*
X0126410Y0143402D01*
X0126377Y0143381D01*
X0126342Y0143363D01*
X0126305Y0143349D01*
X0126268Y0143338D01*
X0126229Y0143331D01*
X0126190Y0143328D01*
X0126151Y0143329D01*
X0126112Y0143334D01*
X0126073Y0143343D01*
X0126036Y0143355D01*
X0126000Y0143371D01*
X0125966Y0143391D01*
X0125934Y0143414D01*
X0125905Y0143440D01*
X0125878Y0143469D01*
X0125854Y0143500D01*
X0125834Y0143534D01*
X0125817Y0143569D01*
X0125804Y0143606D01*
X0125794Y0143644D01*
X0125788Y0143683D01*
X0125786Y0143722D01*
X0125623Y0143722D02*
X0125625Y0143769D01*
X0125631Y0143815D01*
X0125640Y0143861D01*
X0125654Y0143905D01*
X0125671Y0143949D01*
X0125692Y0143990D01*
X0125716Y0144030D01*
X0125743Y0144068D01*
X0125774Y0144103D01*
X0125807Y0144136D01*
X0125843Y0144166D01*
X0125882Y0144192D01*
X0125922Y0144216D01*
X0125964Y0144235D01*
X0126008Y0144252D01*
X0126053Y0144264D01*
X0126099Y0144273D01*
X0126145Y0144278D01*
X0126192Y0144279D01*
X0126238Y0144276D01*
X0126284Y0144269D01*
X0126330Y0144258D01*
X0126374Y0144244D01*
X0126417Y0144226D01*
X0126458Y0144204D01*
X0126498Y0144179D01*
X0126535Y0144151D01*
X0126570Y0144120D01*
X0126602Y0144086D01*
X0126631Y0144049D01*
X0126656Y0144011D01*
X0126679Y0143970D01*
X0126698Y0143927D01*
X0126713Y0143883D01*
X0126725Y0143838D01*
X0126733Y0143792D01*
X0126737Y0143745D01*
X0126737Y0143699D01*
X0126733Y0143652D01*
X0126725Y0143606D01*
X0126713Y0143561D01*
X0126698Y0143517D01*
X0126679Y0143474D01*
X0126656Y0143433D01*
X0126631Y0143395D01*
X0126602Y0143358D01*
X0126570Y0143324D01*
X0126535Y0143293D01*
X0126498Y0143265D01*
X0126459Y0143240D01*
X0126417Y0143218D01*
X0126374Y0143200D01*
X0126330Y0143186D01*
X0126284Y0143175D01*
X0126238Y0143168D01*
X0126192Y0143165D01*
X0126145Y0143166D01*
X0126099Y0143171D01*
X0126053Y0143180D01*
X0126008Y0143192D01*
X0125964Y0143209D01*
X0125922Y0143228D01*
X0125882Y0143252D01*
X0125843Y0143278D01*
X0125807Y0143308D01*
X0125774Y0143341D01*
X0125743Y0143376D01*
X0125716Y0143414D01*
X0125692Y0143454D01*
X0125671Y0143495D01*
X0125654Y0143539D01*
X0125640Y0143583D01*
X0125631Y0143629D01*
X0125625Y0143675D01*
X0125623Y0143722D01*
X0125300Y0143722D02*
X0125302Y0143781D01*
X0125308Y0143839D01*
X0125318Y0143897D01*
X0125331Y0143954D01*
X0125349Y0144011D01*
X0125370Y0144066D01*
X0125395Y0144119D01*
X0125423Y0144170D01*
X0125454Y0144220D01*
X0125489Y0144267D01*
X0125527Y0144312D01*
X0125568Y0144355D01*
X0125612Y0144394D01*
X0125658Y0144430D01*
X0125706Y0144464D01*
X0125757Y0144494D01*
X0125810Y0144520D01*
X0125864Y0144543D01*
X0125919Y0144562D01*
X0125976Y0144578D01*
X0126034Y0144590D01*
X0126092Y0144598D01*
X0126151Y0144602D01*
X0126209Y0144602D01*
X0126268Y0144598D01*
X0126326Y0144590D01*
X0126384Y0144578D01*
X0126441Y0144562D01*
X0126496Y0144543D01*
X0126550Y0144520D01*
X0126603Y0144494D01*
X0126654Y0144464D01*
X0126702Y0144430D01*
X0126748Y0144394D01*
X0126792Y0144355D01*
X0126833Y0144312D01*
X0126871Y0144267D01*
X0126906Y0144220D01*
X0126937Y0144170D01*
X0126965Y0144119D01*
X0126990Y0144066D01*
X0127011Y0144011D01*
X0127029Y0143954D01*
X0127042Y0143897D01*
X0127052Y0143839D01*
X0127058Y0143781D01*
X0127060Y0143722D01*
X0127058Y0143663D01*
X0127052Y0143605D01*
X0127042Y0143547D01*
X0127029Y0143490D01*
X0127011Y0143433D01*
X0126990Y0143378D01*
X0126965Y0143325D01*
X0126937Y0143274D01*
X0126906Y0143224D01*
X0126871Y0143177D01*
X0126833Y0143132D01*
X0126792Y0143089D01*
X0126748Y0143050D01*
X0126702Y0143014D01*
X0126654Y0142980D01*
X0126603Y0142950D01*
X0126550Y0142924D01*
X0126496Y0142901D01*
X0126441Y0142882D01*
X0126384Y0142866D01*
X0126326Y0142854D01*
X0126268Y0142846D01*
X0126209Y0142842D01*
X0126151Y0142842D01*
X0126092Y0142846D01*
X0126034Y0142854D01*
X0125976Y0142866D01*
X0125919Y0142882D01*
X0125864Y0142901D01*
X0125810Y0142924D01*
X0125757Y0142950D01*
X0125706Y0142980D01*
X0125658Y0143014D01*
X0125612Y0143050D01*
X0125568Y0143089D01*
X0125527Y0143132D01*
X0125489Y0143177D01*
X0125454Y0143224D01*
X0125423Y0143274D01*
X0125395Y0143325D01*
X0125370Y0143378D01*
X0125349Y0143433D01*
X0125331Y0143490D01*
X0125318Y0143547D01*
X0125308Y0143605D01*
X0125302Y0143663D01*
X0125300Y0143722D01*
X0125066Y0143722D02*
X0125068Y0143789D01*
X0125074Y0143855D01*
X0125084Y0143921D01*
X0125098Y0143986D01*
X0125115Y0144050D01*
X0125137Y0144113D01*
X0125162Y0144175D01*
X0125191Y0144235D01*
X0125224Y0144293D01*
X0125260Y0144350D01*
X0125299Y0144403D01*
X0125341Y0144455D01*
X0125386Y0144504D01*
X0125435Y0144550D01*
X0125485Y0144593D01*
X0125539Y0144633D01*
X0125594Y0144670D01*
X0125652Y0144703D01*
X0125712Y0144733D01*
X0125773Y0144759D01*
X0125836Y0144781D01*
X0125900Y0144800D01*
X0125965Y0144815D01*
X0126030Y0144826D01*
X0126097Y0144833D01*
X0126163Y0144836D01*
X0126230Y0144835D01*
X0126296Y0144830D01*
X0126362Y0144821D01*
X0126428Y0144808D01*
X0126492Y0144791D01*
X0126556Y0144771D01*
X0126618Y0144746D01*
X0126678Y0144718D01*
X0126737Y0144687D01*
X0126794Y0144652D01*
X0126848Y0144613D01*
X0126900Y0144572D01*
X0126950Y0144527D01*
X0126997Y0144480D01*
X0127040Y0144430D01*
X0127081Y0144377D01*
X0127119Y0144322D01*
X0127153Y0144265D01*
X0127184Y0144205D01*
X0127211Y0144144D01*
X0127234Y0144082D01*
X0127254Y0144018D01*
X0127270Y0143954D01*
X0127282Y0143888D01*
X0127290Y0143822D01*
X0127294Y0143755D01*
X0127294Y0143689D01*
X0127290Y0143622D01*
X0127282Y0143556D01*
X0127270Y0143490D01*
X0127254Y0143426D01*
X0127234Y0143362D01*
X0127211Y0143300D01*
X0127184Y0143239D01*
X0127153Y0143179D01*
X0127119Y0143122D01*
X0127081Y0143067D01*
X0127040Y0143014D01*
X0126997Y0142964D01*
X0126950Y0142917D01*
X0126900Y0142872D01*
X0126848Y0142831D01*
X0126794Y0142792D01*
X0126737Y0142757D01*
X0126678Y0142726D01*
X0126618Y0142698D01*
X0126556Y0142673D01*
X0126492Y0142653D01*
X0126428Y0142636D01*
X0126362Y0142623D01*
X0126296Y0142614D01*
X0126230Y0142609D01*
X0126163Y0142608D01*
X0126097Y0142611D01*
X0126030Y0142618D01*
X0125965Y0142629D01*
X0125900Y0142644D01*
X0125836Y0142663D01*
X0125773Y0142685D01*
X0125712Y0142711D01*
X0125652Y0142741D01*
X0125594Y0142774D01*
X0125539Y0142811D01*
X0125485Y0142851D01*
X0125435Y0142894D01*
X0125386Y0142940D01*
X0125341Y0142989D01*
X0125299Y0143041D01*
X0125260Y0143094D01*
X0125224Y0143151D01*
X0125191Y0143209D01*
X0125162Y0143269D01*
X0125137Y0143331D01*
X0125115Y0143394D01*
X0125098Y0143458D01*
X0125084Y0143523D01*
X0125074Y0143589D01*
X0125068Y0143655D01*
X0125066Y0143722D01*
X0126180Y0148446D02*
X0162400Y0148446D01*
X0162400Y0184667D01*
X0126180Y0184667D01*
X0126180Y0148446D01*
X0131297Y0153170D02*
X0131299Y0153209D01*
X0131305Y0153248D01*
X0131315Y0153286D01*
X0131328Y0153323D01*
X0131345Y0153358D01*
X0131365Y0153392D01*
X0131389Y0153423D01*
X0131416Y0153452D01*
X0131445Y0153478D01*
X0131477Y0153501D01*
X0131511Y0153521D01*
X0131547Y0153537D01*
X0131584Y0153549D01*
X0131623Y0153558D01*
X0131662Y0153563D01*
X0131701Y0153564D01*
X0131740Y0153561D01*
X0131779Y0153554D01*
X0131816Y0153543D01*
X0131853Y0153529D01*
X0131888Y0153511D01*
X0131921Y0153490D01*
X0131952Y0153465D01*
X0131980Y0153438D01*
X0132005Y0153408D01*
X0132027Y0153375D01*
X0132046Y0153341D01*
X0132061Y0153305D01*
X0132073Y0153267D01*
X0132081Y0153229D01*
X0132085Y0153190D01*
X0132085Y0153150D01*
X0132081Y0153111D01*
X0132073Y0153073D01*
X0132061Y0153035D01*
X0132046Y0152999D01*
X0132027Y0152965D01*
X0132005Y0152932D01*
X0131980Y0152902D01*
X0131952Y0152875D01*
X0131921Y0152850D01*
X0131888Y0152829D01*
X0131853Y0152811D01*
X0131816Y0152797D01*
X0131779Y0152786D01*
X0131740Y0152779D01*
X0131701Y0152776D01*
X0131662Y0152777D01*
X0131623Y0152782D01*
X0131584Y0152791D01*
X0131547Y0152803D01*
X0131511Y0152819D01*
X0131477Y0152839D01*
X0131445Y0152862D01*
X0131416Y0152888D01*
X0131389Y0152917D01*
X0131365Y0152948D01*
X0131345Y0152982D01*
X0131328Y0153017D01*
X0131315Y0153054D01*
X0131305Y0153092D01*
X0131299Y0153131D01*
X0131297Y0153170D01*
X0130811Y0153564D02*
X0130813Y0153623D01*
X0130819Y0153681D01*
X0130829Y0153739D01*
X0130842Y0153796D01*
X0130860Y0153853D01*
X0130881Y0153908D01*
X0130906Y0153961D01*
X0130934Y0154012D01*
X0130965Y0154062D01*
X0131000Y0154109D01*
X0131038Y0154154D01*
X0131079Y0154197D01*
X0131123Y0154236D01*
X0131169Y0154272D01*
X0131217Y0154306D01*
X0131268Y0154336D01*
X0131321Y0154362D01*
X0131375Y0154385D01*
X0131430Y0154404D01*
X0131487Y0154420D01*
X0131545Y0154432D01*
X0131603Y0154440D01*
X0131662Y0154444D01*
X0131720Y0154444D01*
X0131779Y0154440D01*
X0131837Y0154432D01*
X0131895Y0154420D01*
X0131952Y0154404D01*
X0132007Y0154385D01*
X0132061Y0154362D01*
X0132114Y0154336D01*
X0132165Y0154306D01*
X0132213Y0154272D01*
X0132259Y0154236D01*
X0132303Y0154197D01*
X0132344Y0154154D01*
X0132382Y0154109D01*
X0132417Y0154062D01*
X0132448Y0154012D01*
X0132476Y0153961D01*
X0132501Y0153908D01*
X0132522Y0153853D01*
X0132540Y0153796D01*
X0132553Y0153739D01*
X0132563Y0153681D01*
X0132569Y0153623D01*
X0132571Y0153564D01*
X0132569Y0153505D01*
X0132563Y0153447D01*
X0132553Y0153389D01*
X0132540Y0153332D01*
X0132522Y0153275D01*
X0132501Y0153220D01*
X0132476Y0153167D01*
X0132448Y0153116D01*
X0132417Y0153066D01*
X0132382Y0153019D01*
X0132344Y0152974D01*
X0132303Y0152931D01*
X0132259Y0152892D01*
X0132213Y0152856D01*
X0132165Y0152822D01*
X0132114Y0152792D01*
X0132061Y0152766D01*
X0132007Y0152743D01*
X0131952Y0152724D01*
X0131895Y0152708D01*
X0131837Y0152696D01*
X0131779Y0152688D01*
X0131720Y0152684D01*
X0131662Y0152684D01*
X0131603Y0152688D01*
X0131545Y0152696D01*
X0131487Y0152708D01*
X0131430Y0152724D01*
X0131375Y0152743D01*
X0131321Y0152766D01*
X0131268Y0152792D01*
X0131217Y0152822D01*
X0131169Y0152856D01*
X0131123Y0152892D01*
X0131079Y0152931D01*
X0131038Y0152974D01*
X0131000Y0153019D01*
X0130965Y0153066D01*
X0130934Y0153116D01*
X0130906Y0153167D01*
X0130881Y0153220D01*
X0130860Y0153275D01*
X0130842Y0153332D01*
X0130829Y0153389D01*
X0130819Y0153447D01*
X0130813Y0153505D01*
X0130811Y0153564D01*
X0131134Y0153564D02*
X0131136Y0153611D01*
X0131142Y0153657D01*
X0131151Y0153703D01*
X0131165Y0153747D01*
X0131182Y0153791D01*
X0131203Y0153832D01*
X0131227Y0153872D01*
X0131254Y0153910D01*
X0131285Y0153945D01*
X0131318Y0153978D01*
X0131354Y0154008D01*
X0131393Y0154034D01*
X0131433Y0154058D01*
X0131475Y0154077D01*
X0131519Y0154094D01*
X0131564Y0154106D01*
X0131610Y0154115D01*
X0131656Y0154120D01*
X0131703Y0154121D01*
X0131749Y0154118D01*
X0131795Y0154111D01*
X0131841Y0154100D01*
X0131885Y0154086D01*
X0131928Y0154068D01*
X0131969Y0154046D01*
X0132009Y0154021D01*
X0132046Y0153993D01*
X0132081Y0153962D01*
X0132113Y0153928D01*
X0132142Y0153891D01*
X0132167Y0153853D01*
X0132190Y0153812D01*
X0132209Y0153769D01*
X0132224Y0153725D01*
X0132236Y0153680D01*
X0132244Y0153634D01*
X0132248Y0153587D01*
X0132248Y0153541D01*
X0132244Y0153494D01*
X0132236Y0153448D01*
X0132224Y0153403D01*
X0132209Y0153359D01*
X0132190Y0153316D01*
X0132167Y0153275D01*
X0132142Y0153237D01*
X0132113Y0153200D01*
X0132081Y0153166D01*
X0132046Y0153135D01*
X0132009Y0153107D01*
X0131970Y0153082D01*
X0131928Y0153060D01*
X0131885Y0153042D01*
X0131841Y0153028D01*
X0131795Y0153017D01*
X0131749Y0153010D01*
X0131703Y0153007D01*
X0131656Y0153008D01*
X0131610Y0153013D01*
X0131564Y0153022D01*
X0131519Y0153034D01*
X0131475Y0153051D01*
X0131433Y0153070D01*
X0131393Y0153094D01*
X0131354Y0153120D01*
X0131318Y0153150D01*
X0131285Y0153183D01*
X0131254Y0153218D01*
X0131227Y0153256D01*
X0131203Y0153296D01*
X0131182Y0153337D01*
X0131165Y0153381D01*
X0131151Y0153425D01*
X0131142Y0153471D01*
X0131136Y0153517D01*
X0131134Y0153564D01*
X0130271Y0153564D02*
X0130273Y0153639D01*
X0130279Y0153714D01*
X0130289Y0153788D01*
X0130303Y0153862D01*
X0130320Y0153935D01*
X0130342Y0154006D01*
X0130367Y0154077D01*
X0130396Y0154146D01*
X0130428Y0154214D01*
X0130464Y0154279D01*
X0130504Y0154343D01*
X0130547Y0154405D01*
X0130593Y0154464D01*
X0130642Y0154521D01*
X0130694Y0154575D01*
X0130748Y0154626D01*
X0130806Y0154674D01*
X0130865Y0154719D01*
X0130928Y0154761D01*
X0130992Y0154800D01*
X0131058Y0154835D01*
X0131126Y0154867D01*
X0131196Y0154895D01*
X0131266Y0154919D01*
X0131339Y0154940D01*
X0131412Y0154956D01*
X0131486Y0154969D01*
X0131560Y0154978D01*
X0131635Y0154983D01*
X0131710Y0154984D01*
X0131785Y0154981D01*
X0131859Y0154974D01*
X0131933Y0154963D01*
X0132007Y0154948D01*
X0132080Y0154930D01*
X0132151Y0154907D01*
X0132221Y0154881D01*
X0132290Y0154851D01*
X0132357Y0154818D01*
X0132423Y0154781D01*
X0132486Y0154741D01*
X0132547Y0154697D01*
X0132605Y0154650D01*
X0132661Y0154601D01*
X0132715Y0154548D01*
X0132765Y0154493D01*
X0132813Y0154435D01*
X0132857Y0154374D01*
X0132898Y0154312D01*
X0132936Y0154247D01*
X0132970Y0154180D01*
X0133001Y0154112D01*
X0133028Y0154042D01*
X0133052Y0153971D01*
X0133071Y0153898D01*
X0133087Y0153825D01*
X0133099Y0153751D01*
X0133107Y0153676D01*
X0133111Y0153601D01*
X0133111Y0153527D01*
X0133107Y0153452D01*
X0133099Y0153377D01*
X0133087Y0153303D01*
X0133071Y0153230D01*
X0133052Y0153157D01*
X0133028Y0153086D01*
X0133001Y0153016D01*
X0132970Y0152948D01*
X0132936Y0152881D01*
X0132898Y0152816D01*
X0132857Y0152754D01*
X0132813Y0152693D01*
X0132765Y0152635D01*
X0132715Y0152580D01*
X0132661Y0152527D01*
X0132605Y0152478D01*
X0132547Y0152431D01*
X0132486Y0152387D01*
X0132423Y0152347D01*
X0132357Y0152310D01*
X0132290Y0152277D01*
X0132221Y0152247D01*
X0132151Y0152221D01*
X0132080Y0152198D01*
X0132007Y0152180D01*
X0131933Y0152165D01*
X0131859Y0152154D01*
X0131785Y0152147D01*
X0131710Y0152144D01*
X0131635Y0152145D01*
X0131560Y0152150D01*
X0131486Y0152159D01*
X0131412Y0152172D01*
X0131339Y0152188D01*
X0131266Y0152209D01*
X0131196Y0152233D01*
X0131126Y0152261D01*
X0131058Y0152293D01*
X0130992Y0152328D01*
X0130928Y0152367D01*
X0130865Y0152409D01*
X0130806Y0152454D01*
X0130748Y0152502D01*
X0130694Y0152553D01*
X0130642Y0152607D01*
X0130593Y0152664D01*
X0130547Y0152723D01*
X0130504Y0152785D01*
X0130464Y0152849D01*
X0130428Y0152914D01*
X0130396Y0152982D01*
X0130367Y0153051D01*
X0130342Y0153122D01*
X0130320Y0153193D01*
X0130303Y0153266D01*
X0130289Y0153340D01*
X0130279Y0153414D01*
X0130273Y0153489D01*
X0130271Y0153564D01*
X0130577Y0153564D02*
X0130579Y0153631D01*
X0130585Y0153697D01*
X0130595Y0153763D01*
X0130609Y0153828D01*
X0130626Y0153892D01*
X0130648Y0153955D01*
X0130673Y0154017D01*
X0130702Y0154077D01*
X0130735Y0154135D01*
X0130771Y0154192D01*
X0130810Y0154245D01*
X0130852Y0154297D01*
X0130897Y0154346D01*
X0130946Y0154392D01*
X0130996Y0154435D01*
X0131050Y0154475D01*
X0131105Y0154512D01*
X0131163Y0154545D01*
X0131223Y0154575D01*
X0131284Y0154601D01*
X0131347Y0154623D01*
X0131411Y0154642D01*
X0131476Y0154657D01*
X0131541Y0154668D01*
X0131608Y0154675D01*
X0131674Y0154678D01*
X0131741Y0154677D01*
X0131807Y0154672D01*
X0131873Y0154663D01*
X0131939Y0154650D01*
X0132003Y0154633D01*
X0132067Y0154613D01*
X0132129Y0154588D01*
X0132189Y0154560D01*
X0132248Y0154529D01*
X0132305Y0154494D01*
X0132359Y0154455D01*
X0132411Y0154414D01*
X0132461Y0154369D01*
X0132508Y0154322D01*
X0132551Y0154272D01*
X0132592Y0154219D01*
X0132630Y0154164D01*
X0132664Y0154107D01*
X0132695Y0154047D01*
X0132722Y0153986D01*
X0132745Y0153924D01*
X0132765Y0153860D01*
X0132781Y0153796D01*
X0132793Y0153730D01*
X0132801Y0153664D01*
X0132805Y0153597D01*
X0132805Y0153531D01*
X0132801Y0153464D01*
X0132793Y0153398D01*
X0132781Y0153332D01*
X0132765Y0153268D01*
X0132745Y0153204D01*
X0132722Y0153142D01*
X0132695Y0153081D01*
X0132664Y0153021D01*
X0132630Y0152964D01*
X0132592Y0152909D01*
X0132551Y0152856D01*
X0132508Y0152806D01*
X0132461Y0152759D01*
X0132411Y0152714D01*
X0132359Y0152673D01*
X0132305Y0152634D01*
X0132248Y0152599D01*
X0132189Y0152568D01*
X0132129Y0152540D01*
X0132067Y0152515D01*
X0132003Y0152495D01*
X0131939Y0152478D01*
X0131873Y0152465D01*
X0131807Y0152456D01*
X0131741Y0152451D01*
X0131674Y0152450D01*
X0131608Y0152453D01*
X0131541Y0152460D01*
X0131476Y0152471D01*
X0131411Y0152486D01*
X0131347Y0152505D01*
X0131284Y0152527D01*
X0131223Y0152553D01*
X0131163Y0152583D01*
X0131105Y0152616D01*
X0131050Y0152653D01*
X0130996Y0152693D01*
X0130946Y0152736D01*
X0130897Y0152782D01*
X0130852Y0152831D01*
X0130810Y0152883D01*
X0130771Y0152936D01*
X0130735Y0152993D01*
X0130702Y0153051D01*
X0130673Y0153111D01*
X0130648Y0153173D01*
X0130626Y0153236D01*
X0130609Y0153300D01*
X0130595Y0153365D01*
X0130585Y0153431D01*
X0130579Y0153497D01*
X0130577Y0153564D01*
X0130021Y0153564D02*
X0130023Y0153645D01*
X0130029Y0153726D01*
X0130039Y0153807D01*
X0130053Y0153887D01*
X0130070Y0153967D01*
X0130092Y0154045D01*
X0130117Y0154122D01*
X0130146Y0154198D01*
X0130179Y0154273D01*
X0130215Y0154346D01*
X0130255Y0154417D01*
X0130298Y0154485D01*
X0130345Y0154552D01*
X0130394Y0154617D01*
X0130447Y0154678D01*
X0130503Y0154738D01*
X0130562Y0154794D01*
X0130623Y0154848D01*
X0130687Y0154898D01*
X0130753Y0154945D01*
X0130821Y0154990D01*
X0130891Y0155030D01*
X0130964Y0155067D01*
X0131038Y0155101D01*
X0131113Y0155131D01*
X0131190Y0155157D01*
X0131269Y0155180D01*
X0131348Y0155198D01*
X0131428Y0155213D01*
X0131508Y0155224D01*
X0131589Y0155231D01*
X0131671Y0155234D01*
X0131752Y0155233D01*
X0131833Y0155228D01*
X0131914Y0155219D01*
X0131994Y0155206D01*
X0132074Y0155190D01*
X0132153Y0155169D01*
X0132230Y0155145D01*
X0132307Y0155116D01*
X0132381Y0155085D01*
X0132455Y0155049D01*
X0132526Y0155010D01*
X0132595Y0154968D01*
X0132663Y0154922D01*
X0132728Y0154873D01*
X0132790Y0154821D01*
X0132850Y0154766D01*
X0132907Y0154708D01*
X0132962Y0154648D01*
X0133013Y0154585D01*
X0133061Y0154519D01*
X0133106Y0154451D01*
X0133147Y0154381D01*
X0133185Y0154309D01*
X0133220Y0154236D01*
X0133251Y0154161D01*
X0133278Y0154084D01*
X0133301Y0154006D01*
X0133321Y0153927D01*
X0133337Y0153847D01*
X0133349Y0153767D01*
X0133357Y0153686D01*
X0133361Y0153605D01*
X0133361Y0153523D01*
X0133357Y0153442D01*
X0133349Y0153361D01*
X0133337Y0153281D01*
X0133321Y0153201D01*
X0133301Y0153122D01*
X0133278Y0153044D01*
X0133251Y0152967D01*
X0133220Y0152892D01*
X0133185Y0152819D01*
X0133147Y0152747D01*
X0133106Y0152677D01*
X0133061Y0152609D01*
X0133013Y0152543D01*
X0132962Y0152480D01*
X0132907Y0152420D01*
X0132850Y0152362D01*
X0132790Y0152307D01*
X0132728Y0152255D01*
X0132663Y0152206D01*
X0132595Y0152160D01*
X0132526Y0152118D01*
X0132455Y0152079D01*
X0132381Y0152043D01*
X0132307Y0152012D01*
X0132230Y0151983D01*
X0132153Y0151959D01*
X0132074Y0151938D01*
X0131994Y0151922D01*
X0131914Y0151909D01*
X0131833Y0151900D01*
X0131752Y0151895D01*
X0131671Y0151894D01*
X0131589Y0151897D01*
X0131508Y0151904D01*
X0131428Y0151915D01*
X0131348Y0151930D01*
X0131269Y0151948D01*
X0131190Y0151971D01*
X0131113Y0151997D01*
X0131038Y0152027D01*
X0130964Y0152061D01*
X0130891Y0152098D01*
X0130821Y0152138D01*
X0130753Y0152183D01*
X0130687Y0152230D01*
X0130623Y0152280D01*
X0130562Y0152334D01*
X0130503Y0152390D01*
X0130447Y0152450D01*
X0130394Y0152511D01*
X0130345Y0152576D01*
X0130298Y0152643D01*
X0130255Y0152711D01*
X0130215Y0152782D01*
X0130179Y0152855D01*
X0130146Y0152930D01*
X0130117Y0153006D01*
X0130092Y0153083D01*
X0130070Y0153161D01*
X0130053Y0153241D01*
X0130039Y0153321D01*
X0130029Y0153402D01*
X0130023Y0153483D01*
X0130021Y0153564D01*
X0129722Y0153564D02*
X0129724Y0153652D01*
X0129730Y0153740D01*
X0129740Y0153828D01*
X0129754Y0153916D01*
X0129771Y0154002D01*
X0129793Y0154088D01*
X0129818Y0154172D01*
X0129848Y0154256D01*
X0129880Y0154338D01*
X0129917Y0154418D01*
X0129957Y0154497D01*
X0130001Y0154574D01*
X0130048Y0154649D01*
X0130098Y0154721D01*
X0130152Y0154792D01*
X0130208Y0154859D01*
X0130268Y0154925D01*
X0130330Y0154987D01*
X0130396Y0155047D01*
X0130463Y0155103D01*
X0130534Y0155157D01*
X0130606Y0155207D01*
X0130681Y0155254D01*
X0130758Y0155298D01*
X0130837Y0155338D01*
X0130917Y0155375D01*
X0130999Y0155407D01*
X0131083Y0155437D01*
X0131167Y0155462D01*
X0131253Y0155484D01*
X0131339Y0155501D01*
X0131427Y0155515D01*
X0131515Y0155525D01*
X0131603Y0155531D01*
X0131691Y0155533D01*
X0131779Y0155531D01*
X0131867Y0155525D01*
X0131955Y0155515D01*
X0132043Y0155501D01*
X0132129Y0155484D01*
X0132215Y0155462D01*
X0132299Y0155437D01*
X0132383Y0155407D01*
X0132465Y0155375D01*
X0132545Y0155338D01*
X0132624Y0155298D01*
X0132701Y0155254D01*
X0132776Y0155207D01*
X0132848Y0155157D01*
X0132919Y0155103D01*
X0132986Y0155047D01*
X0133052Y0154987D01*
X0133114Y0154925D01*
X0133174Y0154859D01*
X0133230Y0154792D01*
X0133284Y0154721D01*
X0133334Y0154649D01*
X0133381Y0154574D01*
X0133425Y0154497D01*
X0133465Y0154418D01*
X0133502Y0154338D01*
X0133534Y0154256D01*
X0133564Y0154172D01*
X0133589Y0154088D01*
X0133611Y0154002D01*
X0133628Y0153916D01*
X0133642Y0153828D01*
X0133652Y0153740D01*
X0133658Y0153652D01*
X0133660Y0153564D01*
X0133658Y0153476D01*
X0133652Y0153388D01*
X0133642Y0153300D01*
X0133628Y0153212D01*
X0133611Y0153126D01*
X0133589Y0153040D01*
X0133564Y0152956D01*
X0133534Y0152872D01*
X0133502Y0152790D01*
X0133465Y0152710D01*
X0133425Y0152631D01*
X0133381Y0152554D01*
X0133334Y0152479D01*
X0133284Y0152407D01*
X0133230Y0152336D01*
X0133174Y0152269D01*
X0133114Y0152203D01*
X0133052Y0152141D01*
X0132986Y0152081D01*
X0132919Y0152025D01*
X0132848Y0151971D01*
X0132776Y0151921D01*
X0132701Y0151874D01*
X0132624Y0151830D01*
X0132545Y0151790D01*
X0132465Y0151753D01*
X0132383Y0151721D01*
X0132299Y0151691D01*
X0132215Y0151666D01*
X0132129Y0151644D01*
X0132043Y0151627D01*
X0131955Y0151613D01*
X0131867Y0151603D01*
X0131779Y0151597D01*
X0131691Y0151595D01*
X0131603Y0151597D01*
X0131515Y0151603D01*
X0131427Y0151613D01*
X0131339Y0151627D01*
X0131253Y0151644D01*
X0131167Y0151666D01*
X0131083Y0151691D01*
X0130999Y0151721D01*
X0130917Y0151753D01*
X0130837Y0151790D01*
X0130758Y0151830D01*
X0130681Y0151874D01*
X0130606Y0151921D01*
X0130534Y0151971D01*
X0130463Y0152025D01*
X0130396Y0152081D01*
X0130330Y0152141D01*
X0130268Y0152203D01*
X0130208Y0152269D01*
X0130152Y0152336D01*
X0130098Y0152407D01*
X0130048Y0152479D01*
X0130001Y0152554D01*
X0129957Y0152631D01*
X0129917Y0152710D01*
X0129880Y0152790D01*
X0129848Y0152872D01*
X0129818Y0152956D01*
X0129793Y0153040D01*
X0129771Y0153126D01*
X0129754Y0153212D01*
X0129740Y0153300D01*
X0129730Y0153388D01*
X0129724Y0153476D01*
X0129722Y0153564D01*
X0129464Y0153564D02*
X0129466Y0153658D01*
X0129472Y0153752D01*
X0129482Y0153845D01*
X0129496Y0153938D01*
X0129513Y0154030D01*
X0129535Y0154121D01*
X0129560Y0154212D01*
X0129590Y0154301D01*
X0129622Y0154389D01*
X0129659Y0154476D01*
X0129699Y0154560D01*
X0129743Y0154643D01*
X0129790Y0154725D01*
X0129841Y0154804D01*
X0129895Y0154881D01*
X0129952Y0154955D01*
X0130012Y0155027D01*
X0130075Y0155097D01*
X0130141Y0155163D01*
X0130210Y0155227D01*
X0130282Y0155288D01*
X0130356Y0155346D01*
X0130432Y0155401D01*
X0130510Y0155452D01*
X0130591Y0155500D01*
X0130674Y0155545D01*
X0130758Y0155586D01*
X0130844Y0155624D01*
X0130932Y0155658D01*
X0131021Y0155688D01*
X0131111Y0155714D01*
X0131202Y0155737D01*
X0131294Y0155755D01*
X0131387Y0155770D01*
X0131480Y0155781D01*
X0131574Y0155788D01*
X0131668Y0155791D01*
X0131761Y0155790D01*
X0131855Y0155785D01*
X0131949Y0155776D01*
X0132042Y0155763D01*
X0132134Y0155746D01*
X0132226Y0155726D01*
X0132316Y0155701D01*
X0132406Y0155673D01*
X0132494Y0155641D01*
X0132581Y0155605D01*
X0132666Y0155566D01*
X0132750Y0155523D01*
X0132831Y0155477D01*
X0132911Y0155427D01*
X0132989Y0155374D01*
X0133064Y0155318D01*
X0133136Y0155258D01*
X0133207Y0155196D01*
X0133274Y0155130D01*
X0133339Y0155062D01*
X0133400Y0154991D01*
X0133459Y0154918D01*
X0133515Y0154842D01*
X0133567Y0154764D01*
X0133616Y0154684D01*
X0133661Y0154602D01*
X0133703Y0154518D01*
X0133742Y0154432D01*
X0133776Y0154345D01*
X0133808Y0154257D01*
X0133835Y0154167D01*
X0133858Y0154076D01*
X0133878Y0153984D01*
X0133894Y0153891D01*
X0133906Y0153798D01*
X0133914Y0153705D01*
X0133918Y0153611D01*
X0133918Y0153517D01*
X0133914Y0153423D01*
X0133906Y0153330D01*
X0133894Y0153237D01*
X0133878Y0153144D01*
X0133858Y0153052D01*
X0133835Y0152961D01*
X0133808Y0152871D01*
X0133776Y0152783D01*
X0133742Y0152696D01*
X0133703Y0152610D01*
X0133661Y0152526D01*
X0133616Y0152444D01*
X0133567Y0152364D01*
X0133515Y0152286D01*
X0133459Y0152210D01*
X0133400Y0152137D01*
X0133339Y0152066D01*
X0133274Y0151998D01*
X0133207Y0151932D01*
X0133136Y0151870D01*
X0133064Y0151810D01*
X0132989Y0151754D01*
X0132911Y0151701D01*
X0132831Y0151651D01*
X0132750Y0151605D01*
X0132666Y0151562D01*
X0132581Y0151523D01*
X0132494Y0151487D01*
X0132406Y0151455D01*
X0132316Y0151427D01*
X0132226Y0151402D01*
X0132134Y0151382D01*
X0132042Y0151365D01*
X0131949Y0151352D01*
X0131855Y0151343D01*
X0131761Y0151338D01*
X0131668Y0151337D01*
X0131574Y0151340D01*
X0131480Y0151347D01*
X0131387Y0151358D01*
X0131294Y0151373D01*
X0131202Y0151391D01*
X0131111Y0151414D01*
X0131021Y0151440D01*
X0130932Y0151470D01*
X0130844Y0151504D01*
X0130758Y0151542D01*
X0130674Y0151583D01*
X0130591Y0151628D01*
X0130510Y0151676D01*
X0130432Y0151727D01*
X0130356Y0151782D01*
X0130282Y0151840D01*
X0130210Y0151901D01*
X0130141Y0151965D01*
X0130075Y0152031D01*
X0130012Y0152101D01*
X0129952Y0152173D01*
X0129895Y0152247D01*
X0129841Y0152324D01*
X0129790Y0152403D01*
X0129743Y0152485D01*
X0129699Y0152568D01*
X0129659Y0152652D01*
X0129622Y0152739D01*
X0129590Y0152827D01*
X0129560Y0152916D01*
X0129535Y0153007D01*
X0129513Y0153098D01*
X0129496Y0153190D01*
X0129482Y0153283D01*
X0129472Y0153376D01*
X0129466Y0153470D01*
X0129464Y0153564D01*
X0129395Y0153564D02*
X0129397Y0153660D01*
X0129403Y0153755D01*
X0129413Y0153850D01*
X0129427Y0153944D01*
X0129445Y0154038D01*
X0129466Y0154131D01*
X0129492Y0154223D01*
X0129521Y0154314D01*
X0129554Y0154404D01*
X0129591Y0154492D01*
X0129631Y0154579D01*
X0129675Y0154663D01*
X0129723Y0154746D01*
X0129774Y0154827D01*
X0129828Y0154906D01*
X0129885Y0154982D01*
X0129946Y0155056D01*
X0130009Y0155127D01*
X0130076Y0155196D01*
X0130145Y0155262D01*
X0130217Y0155325D01*
X0130292Y0155384D01*
X0130369Y0155441D01*
X0130448Y0155494D01*
X0130529Y0155544D01*
X0130613Y0155591D01*
X0130698Y0155634D01*
X0130785Y0155674D01*
X0130873Y0155709D01*
X0130963Y0155742D01*
X0131055Y0155770D01*
X0131147Y0155795D01*
X0131240Y0155815D01*
X0131334Y0155832D01*
X0131429Y0155845D01*
X0131524Y0155854D01*
X0131619Y0155859D01*
X0131715Y0155860D01*
X0131810Y0155857D01*
X0131906Y0155850D01*
X0132001Y0155839D01*
X0132095Y0155824D01*
X0132189Y0155805D01*
X0132281Y0155783D01*
X0132373Y0155756D01*
X0132464Y0155726D01*
X0132553Y0155692D01*
X0132641Y0155654D01*
X0132727Y0155613D01*
X0132811Y0155568D01*
X0132894Y0155520D01*
X0132974Y0155468D01*
X0133052Y0155413D01*
X0133128Y0155355D01*
X0133201Y0155294D01*
X0133272Y0155229D01*
X0133340Y0155162D01*
X0133405Y0155092D01*
X0133467Y0155019D01*
X0133526Y0154944D01*
X0133582Y0154867D01*
X0133634Y0154787D01*
X0133683Y0154705D01*
X0133729Y0154621D01*
X0133771Y0154536D01*
X0133810Y0154448D01*
X0133845Y0154359D01*
X0133876Y0154269D01*
X0133904Y0154177D01*
X0133927Y0154085D01*
X0133947Y0153991D01*
X0133963Y0153897D01*
X0133975Y0153802D01*
X0133983Y0153707D01*
X0133987Y0153612D01*
X0133987Y0153516D01*
X0133983Y0153421D01*
X0133975Y0153326D01*
X0133963Y0153231D01*
X0133947Y0153137D01*
X0133927Y0153043D01*
X0133904Y0152951D01*
X0133876Y0152859D01*
X0133845Y0152769D01*
X0133810Y0152680D01*
X0133771Y0152592D01*
X0133729Y0152507D01*
X0133683Y0152423D01*
X0133634Y0152341D01*
X0133582Y0152261D01*
X0133526Y0152184D01*
X0133467Y0152109D01*
X0133405Y0152036D01*
X0133340Y0151966D01*
X0133272Y0151899D01*
X0133201Y0151834D01*
X0133128Y0151773D01*
X0133052Y0151715D01*
X0132974Y0151660D01*
X0132894Y0151608D01*
X0132811Y0151560D01*
X0132727Y0151515D01*
X0132641Y0151474D01*
X0132553Y0151436D01*
X0132464Y0151402D01*
X0132373Y0151372D01*
X0132281Y0151345D01*
X0132189Y0151323D01*
X0132095Y0151304D01*
X0132001Y0151289D01*
X0131906Y0151278D01*
X0131810Y0151271D01*
X0131715Y0151268D01*
X0131619Y0151269D01*
X0131524Y0151274D01*
X0131429Y0151283D01*
X0131334Y0151296D01*
X0131240Y0151313D01*
X0131147Y0151333D01*
X0131055Y0151358D01*
X0130963Y0151386D01*
X0130873Y0151419D01*
X0130785Y0151454D01*
X0130698Y0151494D01*
X0130613Y0151537D01*
X0130529Y0151584D01*
X0130448Y0151634D01*
X0130369Y0151687D01*
X0130292Y0151744D01*
X0130217Y0151803D01*
X0130145Y0151866D01*
X0130076Y0151932D01*
X0130009Y0152001D01*
X0129946Y0152072D01*
X0129885Y0152146D01*
X0129828Y0152222D01*
X0129774Y0152301D01*
X0129723Y0152382D01*
X0129675Y0152465D01*
X0129631Y0152549D01*
X0129591Y0152636D01*
X0129554Y0152724D01*
X0129521Y0152814D01*
X0129492Y0152905D01*
X0129466Y0152997D01*
X0129445Y0153090D01*
X0129427Y0153184D01*
X0129413Y0153278D01*
X0129403Y0153373D01*
X0129397Y0153468D01*
X0129395Y0153564D01*
X0167494Y0130600D02*
X0167494Y0124694D01*
X0179306Y0124694D01*
X0179306Y0130600D01*
X0167494Y0130600D01*
X0172650Y0129397D02*
X0172650Y0125897D01*
X0174150Y0125897D02*
X0172650Y0127647D01*
X0174150Y0129397D01*
X0174150Y0125897D01*
X0218962Y0170483D02*
X0219546Y0169899D01*
X0221881Y0169899D01*
X0222465Y0170483D01*
X0222465Y0171650D01*
X0221881Y0172234D01*
X0221881Y0173582D02*
X0222465Y0174166D01*
X0222465Y0175333D01*
X0221881Y0175917D01*
X0221297Y0175917D01*
X0220713Y0175333D01*
X0220713Y0174750D01*
X0220713Y0175333D02*
X0220130Y0175917D01*
X0219546Y0175917D01*
X0218962Y0175333D01*
X0218962Y0174166D01*
X0219546Y0173582D01*
X0219546Y0172234D02*
X0218962Y0171650D01*
X0218962Y0170483D01*
X0220130Y0177265D02*
X0218962Y0178433D01*
X0222465Y0178433D01*
X0222465Y0179600D02*
X0222465Y0177265D01*
X0237712Y0175333D02*
X0238296Y0175917D01*
X0240631Y0173582D01*
X0241215Y0174166D01*
X0241215Y0175333D01*
X0240631Y0175917D01*
X0238296Y0175917D01*
X0237712Y0175333D02*
X0237712Y0174166D01*
X0238296Y0173582D01*
X0240631Y0173582D01*
X0241215Y0172234D02*
X0241215Y0169899D01*
X0241215Y0171066D02*
X0237712Y0171066D01*
X0238880Y0169899D01*
X0238880Y0177265D02*
X0240631Y0177265D01*
X0241215Y0177849D01*
X0241215Y0179600D01*
X0238880Y0179600D01*
X0242136Y0196344D02*
X0242136Y0264454D01*
X0270758Y0264454D01*
X0270758Y0196344D01*
X0242136Y0196344D01*
X0250462Y0151600D02*
X0251046Y0150433D01*
X0252213Y0149265D01*
X0252213Y0151017D01*
X0252797Y0151600D01*
X0253381Y0151600D01*
X0253965Y0151017D01*
X0253965Y0149849D01*
X0253381Y0149265D01*
X0252213Y0149265D01*
X0251630Y0147917D02*
X0252213Y0147333D01*
X0252797Y0147917D01*
X0253381Y0147917D01*
X0253965Y0147333D01*
X0253965Y0146166D01*
X0253381Y0145582D01*
X0253381Y0144234D02*
X0253965Y0143650D01*
X0253965Y0142483D01*
X0253381Y0141899D01*
X0251046Y0141899D01*
X0250462Y0142483D01*
X0250462Y0143650D01*
X0251046Y0144234D01*
X0251046Y0145582D02*
X0250462Y0146166D01*
X0250462Y0147333D01*
X0251046Y0147917D01*
X0251630Y0147917D01*
X0252213Y0147333D02*
X0252213Y0146750D01*
X0269212Y0147333D02*
X0269212Y0146166D01*
X0269796Y0145582D01*
X0272131Y0145582D01*
X0269796Y0147917D01*
X0272131Y0147917D01*
X0272715Y0147333D01*
X0272715Y0146166D01*
X0272131Y0145582D01*
X0272715Y0144234D02*
X0272715Y0141899D01*
X0272715Y0143066D02*
X0269212Y0143066D01*
X0270380Y0141899D01*
X0269212Y0147333D02*
X0269796Y0147917D01*
X0270380Y0149265D02*
X0272131Y0149265D01*
X0272715Y0149849D01*
X0272715Y0151600D01*
X0270380Y0151600D01*
X0221778Y0110647D02*
X0221785Y0111227D01*
X0221806Y0111806D01*
X0221842Y0112385D01*
X0221892Y0112962D01*
X0221956Y0113539D01*
X0222034Y0114113D01*
X0222126Y0114685D01*
X0222232Y0115255D01*
X0222352Y0115823D01*
X0222486Y0116387D01*
X0222634Y0116947D01*
X0222795Y0117504D01*
X0222970Y0118057D01*
X0223159Y0118605D01*
X0223361Y0119148D01*
X0223576Y0119687D01*
X0223805Y0120220D01*
X0224046Y0120747D01*
X0224300Y0121268D01*
X0224567Y0121782D01*
X0224847Y0122290D01*
X0225139Y0122791D01*
X0225443Y0123285D01*
X0225759Y0123771D01*
X0226087Y0124249D01*
X0226427Y0124719D01*
X0226778Y0125180D01*
X0227140Y0125633D01*
X0227513Y0126076D01*
X0227897Y0126511D01*
X0228292Y0126935D01*
X0228697Y0127350D01*
X0229112Y0127755D01*
X0229536Y0128150D01*
X0229971Y0128534D01*
X0230414Y0128907D01*
X0230867Y0129269D01*
X0231328Y0129620D01*
X0231798Y0129960D01*
X0232276Y0130288D01*
X0232762Y0130604D01*
X0233256Y0130908D01*
X0233757Y0131200D01*
X0234265Y0131480D01*
X0234779Y0131747D01*
X0235300Y0132001D01*
X0235827Y0132242D01*
X0236360Y0132471D01*
X0236899Y0132686D01*
X0237442Y0132888D01*
X0237990Y0133077D01*
X0238543Y0133252D01*
X0239100Y0133413D01*
X0239660Y0133561D01*
X0240224Y0133695D01*
X0240792Y0133815D01*
X0241362Y0133921D01*
X0241934Y0134013D01*
X0242508Y0134091D01*
X0243085Y0134155D01*
X0243662Y0134205D01*
X0244241Y0134241D01*
X0244820Y0134262D01*
X0245400Y0134269D01*
X0245980Y0134262D01*
X0246559Y0134241D01*
X0247138Y0134205D01*
X0247715Y0134155D01*
X0248292Y0134091D01*
X0248866Y0134013D01*
X0249438Y0133921D01*
X0250008Y0133815D01*
X0250576Y0133695D01*
X0251140Y0133561D01*
X0251700Y0133413D01*
X0252257Y0133252D01*
X0252810Y0133077D01*
X0253358Y0132888D01*
X0253901Y0132686D01*
X0254440Y0132471D01*
X0254973Y0132242D01*
X0255500Y0132001D01*
X0256021Y0131747D01*
X0256535Y0131480D01*
X0257043Y0131200D01*
X0257544Y0130908D01*
X0258038Y0130604D01*
X0258524Y0130288D01*
X0259002Y0129960D01*
X0259472Y0129620D01*
X0259933Y0129269D01*
X0260386Y0128907D01*
X0260829Y0128534D01*
X0261264Y0128150D01*
X0261688Y0127755D01*
X0262103Y0127350D01*
X0262508Y0126935D01*
X0262903Y0126511D01*
X0263287Y0126076D01*
X0263660Y0125633D01*
X0264022Y0125180D01*
X0264373Y0124719D01*
X0264713Y0124249D01*
X0265041Y0123771D01*
X0265357Y0123285D01*
X0265661Y0122791D01*
X0265953Y0122290D01*
X0266233Y0121782D01*
X0266500Y0121268D01*
X0266754Y0120747D01*
X0266995Y0120220D01*
X0267224Y0119687D01*
X0267439Y0119148D01*
X0267641Y0118605D01*
X0267830Y0118057D01*
X0268005Y0117504D01*
X0268166Y0116947D01*
X0268314Y0116387D01*
X0268448Y0115823D01*
X0268568Y0115255D01*
X0268674Y0114685D01*
X0268766Y0114113D01*
X0268844Y0113539D01*
X0268908Y0112962D01*
X0268958Y0112385D01*
X0268994Y0111806D01*
X0269015Y0111227D01*
X0269022Y0110647D01*
X0269015Y0110067D01*
X0268994Y0109488D01*
X0268958Y0108909D01*
X0268908Y0108332D01*
X0268844Y0107755D01*
X0268766Y0107181D01*
X0268674Y0106609D01*
X0268568Y0106039D01*
X0268448Y0105471D01*
X0268314Y0104907D01*
X0268166Y0104347D01*
X0268005Y0103790D01*
X0267830Y0103237D01*
X0267641Y0102689D01*
X0267439Y0102146D01*
X0267224Y0101607D01*
X0266995Y0101074D01*
X0266754Y0100547D01*
X0266500Y0100026D01*
X0266233Y0099512D01*
X0265953Y0099004D01*
X0265661Y0098503D01*
X0265357Y0098009D01*
X0265041Y0097523D01*
X0264713Y0097045D01*
X0264373Y0096575D01*
X0264022Y0096114D01*
X0263660Y0095661D01*
X0263287Y0095218D01*
X0262903Y0094783D01*
X0262508Y0094359D01*
X0262103Y0093944D01*
X0261688Y0093539D01*
X0261264Y0093144D01*
X0260829Y0092760D01*
X0260386Y0092387D01*
X0259933Y0092025D01*
X0259472Y0091674D01*
X0259002Y0091334D01*
X0258524Y0091006D01*
X0258038Y0090690D01*
X0257544Y0090386D01*
X0257043Y0090094D01*
X0256535Y0089814D01*
X0256021Y0089547D01*
X0255500Y0089293D01*
X0254973Y0089052D01*
X0254440Y0088823D01*
X0253901Y0088608D01*
X0253358Y0088406D01*
X0252810Y0088217D01*
X0252257Y0088042D01*
X0251700Y0087881D01*
X0251140Y0087733D01*
X0250576Y0087599D01*
X0250008Y0087479D01*
X0249438Y0087373D01*
X0248866Y0087281D01*
X0248292Y0087203D01*
X0247715Y0087139D01*
X0247138Y0087089D01*
X0246559Y0087053D01*
X0245980Y0087032D01*
X0245400Y0087025D01*
X0244820Y0087032D01*
X0244241Y0087053D01*
X0243662Y0087089D01*
X0243085Y0087139D01*
X0242508Y0087203D01*
X0241934Y0087281D01*
X0241362Y0087373D01*
X0240792Y0087479D01*
X0240224Y0087599D01*
X0239660Y0087733D01*
X0239100Y0087881D01*
X0238543Y0088042D01*
X0237990Y0088217D01*
X0237442Y0088406D01*
X0236899Y0088608D01*
X0236360Y0088823D01*
X0235827Y0089052D01*
X0235300Y0089293D01*
X0234779Y0089547D01*
X0234265Y0089814D01*
X0233757Y0090094D01*
X0233256Y0090386D01*
X0232762Y0090690D01*
X0232276Y0091006D01*
X0231798Y0091334D01*
X0231328Y0091674D01*
X0230867Y0092025D01*
X0230414Y0092387D01*
X0229971Y0092760D01*
X0229536Y0093144D01*
X0229112Y0093539D01*
X0228697Y0093944D01*
X0228292Y0094359D01*
X0227897Y0094783D01*
X0227513Y0095218D01*
X0227140Y0095661D01*
X0226778Y0096114D01*
X0226427Y0096575D01*
X0226087Y0097045D01*
X0225759Y0097523D01*
X0225443Y0098009D01*
X0225139Y0098503D01*
X0224847Y0099004D01*
X0224567Y0099512D01*
X0224300Y0100026D01*
X0224046Y0100547D01*
X0223805Y0101074D01*
X0223576Y0101607D01*
X0223361Y0102146D01*
X0223159Y0102689D01*
X0222970Y0103237D01*
X0222795Y0103790D01*
X0222634Y0104347D01*
X0222486Y0104907D01*
X0222352Y0105471D01*
X0222232Y0106039D01*
X0222126Y0106609D01*
X0222034Y0107181D01*
X0221956Y0107755D01*
X0221892Y0108332D01*
X0221842Y0108909D01*
X0221806Y0109488D01*
X0221785Y0110067D01*
X0221778Y0110647D01*
X0081494Y0226686D02*
X0081494Y0246371D01*
X0069683Y0246371D01*
X0069683Y0226686D01*
X0081494Y0226686D01*
X0046085Y0264261D02*
X0018526Y0264261D01*
X0018526Y0169773D01*
X0046085Y0169773D01*
X0046085Y0264261D01*
D16*
X0069290Y0247946D02*
X0069292Y0248002D01*
X0069298Y0248057D01*
X0069308Y0248111D01*
X0069321Y0248165D01*
X0069339Y0248218D01*
X0069360Y0248269D01*
X0069384Y0248319D01*
X0069412Y0248367D01*
X0069444Y0248413D01*
X0069478Y0248457D01*
X0069516Y0248498D01*
X0069556Y0248536D01*
X0069599Y0248571D01*
X0069644Y0248603D01*
X0069692Y0248632D01*
X0069741Y0248658D01*
X0069792Y0248680D01*
X0069844Y0248698D01*
X0069898Y0248712D01*
X0069953Y0248723D01*
X0070008Y0248730D01*
X0070063Y0248733D01*
X0070119Y0248732D01*
X0070174Y0248727D01*
X0070229Y0248718D01*
X0070283Y0248706D01*
X0070336Y0248689D01*
X0070388Y0248669D01*
X0070438Y0248645D01*
X0070486Y0248618D01*
X0070533Y0248588D01*
X0070577Y0248554D01*
X0070619Y0248517D01*
X0070657Y0248477D01*
X0070694Y0248435D01*
X0070727Y0248390D01*
X0070756Y0248344D01*
X0070783Y0248295D01*
X0070805Y0248244D01*
X0070825Y0248192D01*
X0070840Y0248138D01*
X0070852Y0248084D01*
X0070860Y0248029D01*
X0070864Y0247974D01*
X0070864Y0247918D01*
X0070860Y0247863D01*
X0070852Y0247808D01*
X0070840Y0247754D01*
X0070825Y0247700D01*
X0070805Y0247648D01*
X0070783Y0247597D01*
X0070756Y0247548D01*
X0070727Y0247502D01*
X0070694Y0247457D01*
X0070657Y0247415D01*
X0070619Y0247375D01*
X0070577Y0247338D01*
X0070533Y0247304D01*
X0070486Y0247274D01*
X0070438Y0247247D01*
X0070388Y0247223D01*
X0070336Y0247203D01*
X0070283Y0247186D01*
X0070229Y0247174D01*
X0070174Y0247165D01*
X0070119Y0247160D01*
X0070063Y0247159D01*
X0070008Y0247162D01*
X0069953Y0247169D01*
X0069898Y0247180D01*
X0069844Y0247194D01*
X0069792Y0247212D01*
X0069741Y0247234D01*
X0069692Y0247260D01*
X0069644Y0247289D01*
X0069599Y0247321D01*
X0069556Y0247356D01*
X0069516Y0247394D01*
X0069478Y0247435D01*
X0069444Y0247479D01*
X0069412Y0247525D01*
X0069384Y0247573D01*
X0069360Y0247623D01*
X0069339Y0247674D01*
X0069321Y0247727D01*
X0069308Y0247781D01*
X0069298Y0247835D01*
X0069292Y0247890D01*
X0069290Y0247946D01*
X0069259Y0186311D02*
X0069259Y0183172D01*
X0067690Y0183172D02*
X0070828Y0186311D01*
X0070828Y0184741D02*
X0067690Y0184741D01*
X0067690Y0186311D02*
X0070828Y0183172D01*
X0134365Y0127417D02*
X0137501Y0124281D01*
X0137501Y0125849D02*
X0134365Y0125849D01*
X0134365Y0124281D02*
X0137501Y0127417D01*
X0135933Y0127417D02*
X0135933Y0124281D01*
D17*
X0197707Y0135474D02*
X0198691Y0136458D01*
X0198691Y0159096D01*
X0197707Y0160080D01*
X0198691Y0159096D02*
X0201644Y0159096D01*
X0201644Y0160572D01*
X0204105Y0160572D02*
X0204105Y0159096D01*
X0208042Y0159096D01*
X0208042Y0136458D02*
X0204105Y0136458D01*
X0204105Y0134981D01*
X0201644Y0134981D02*
X0201644Y0136458D01*
X0198691Y0136458D01*
X0126790Y0202769D02*
X0126790Y0206706D01*
X0128266Y0206706D01*
X0128266Y0209167D02*
X0126790Y0209167D01*
X0126790Y0212119D01*
X0127774Y0213104D01*
X0126790Y0212119D02*
X0104152Y0212119D01*
X0103168Y0213104D01*
X0104152Y0212119D02*
X0104152Y0209167D01*
X0102676Y0209167D01*
X0102676Y0206706D02*
X0104152Y0206706D01*
X0104152Y0202769D01*
X0028672Y0117273D02*
X0028672Y0115796D01*
X0032609Y0115796D01*
X0026211Y0115796D02*
X0023258Y0115796D01*
X0022274Y0116781D01*
X0023258Y0115796D02*
X0023258Y0088237D01*
X0022274Y0087253D01*
X0023258Y0088237D02*
X0026211Y0088237D01*
X0026211Y0086761D01*
X0028672Y0086761D02*
X0028672Y0088237D01*
X0032609Y0088237D01*
X0026211Y0115796D02*
X0026211Y0117273D01*
D18*
X0032855Y0102017D03*
D19*
X0208288Y0147777D03*
D20*
X0224221Y0171342D02*
X0224221Y0181568D01*
X0236209Y0181568D01*
X0236209Y0185456D01*
X0236209Y0181568D02*
X0236209Y0171342D01*
X0227809Y0179034D02*
X0225309Y0179034D01*
X0226559Y0177784D02*
X0226559Y0180284D01*
X0224221Y0181568D02*
X0224221Y0185456D01*
X0255721Y0157456D02*
X0255721Y0153568D01*
X0267709Y0153568D01*
X0267709Y0157456D01*
X0267709Y0153568D02*
X0267709Y0143342D01*
X0259309Y0151034D02*
X0256809Y0151034D01*
X0258059Y0149784D02*
X0258059Y0152284D01*
X0255721Y0153568D02*
X0255721Y0143342D01*
D21*
X0115471Y0202523D03*
D22*
X0076699Y0158800D03*
X0076837Y0148879D03*
X0071325Y0170375D03*
X0071187Y0170375D03*
X0071050Y0170375D03*
X0070912Y0170375D03*
X0070498Y0170237D03*
X0070361Y0170237D03*
X0070223Y0170237D03*
X0069809Y0170100D03*
X0069672Y0170100D03*
X0069120Y0169962D03*
X0071601Y0170513D03*
X0071739Y0170513D03*
X0071876Y0170513D03*
X0043491Y0157974D03*
X0041148Y0163072D03*
X0041010Y0163072D03*
X0040872Y0163072D03*
X0036187Y0163072D03*
X0036050Y0163072D03*
X0035912Y0163072D03*
X0038392Y0150257D03*
X0028884Y0144332D03*
X0028746Y0144332D03*
X0024888Y0144332D03*
X0024750Y0144332D03*
X0022546Y0153978D03*
X0022408Y0153978D03*
X0022270Y0153978D03*
X0022270Y0162107D03*
X0022132Y0162107D03*
X0021994Y0162107D03*
X0019514Y0162107D03*
X0019376Y0162107D03*
X0019239Y0162107D03*
X0046522Y0125730D03*
X0065813Y0096793D03*
D23*
X0070223Y0104302D03*
X0065813Y0110503D03*
X0051483Y0110779D03*
X0065951Y0127039D03*
X0065813Y0140956D03*
X0076699Y0148948D03*
X0076561Y0158731D03*
X0067605Y0169617D03*
X0067467Y0169617D03*
X0067054Y0169480D03*
X0068018Y0169755D03*
X0068156Y0169755D03*
X0068294Y0169755D03*
X0068569Y0169893D03*
X0068707Y0169893D03*
X0068845Y0169893D03*
X0068983Y0169893D03*
X0069258Y0170031D03*
X0069396Y0170031D03*
X0069534Y0170031D03*
X0069947Y0170169D03*
X0070085Y0170169D03*
X0070636Y0170306D03*
X0070774Y0170306D03*
X0043628Y0158043D03*
X0040735Y0163141D03*
X0036325Y0163141D03*
X0021857Y0162176D03*
X0019652Y0162176D03*
X0025026Y0144263D03*
X0025164Y0144263D03*
X0028333Y0144263D03*
X0028471Y0144263D03*
X0028609Y0144263D03*
X0046384Y0137787D03*
D24*
X0051620Y0144745D03*
X0060715Y0145710D03*
X0076561Y0149017D03*
X0067329Y0169548D03*
X0067191Y0169548D03*
X0066916Y0169411D03*
X0066778Y0169411D03*
X0066640Y0169411D03*
X0066502Y0169411D03*
X0066365Y0169273D03*
X0066227Y0169273D03*
X0066089Y0169273D03*
X0065813Y0169135D03*
X0065676Y0169135D03*
X0065538Y0169135D03*
X0065262Y0168997D03*
X0065124Y0168997D03*
X0064711Y0168859D03*
X0067743Y0169686D03*
X0067880Y0169686D03*
X0068431Y0169824D03*
X0043904Y0158111D03*
X0043766Y0158111D03*
X0040597Y0163072D03*
X0040459Y0163072D03*
X0040321Y0163072D03*
X0036739Y0163072D03*
X0036601Y0163072D03*
X0036463Y0163072D03*
X0038254Y0150119D03*
X0028195Y0144332D03*
X0025302Y0144332D03*
X0022959Y0153978D03*
X0022821Y0153978D03*
X0022683Y0153978D03*
X0021719Y0162107D03*
X0021581Y0162107D03*
X0019790Y0162107D03*
X0060715Y0115257D03*
X0060715Y0101478D03*
X0031916Y0110572D03*
D25*
X0046522Y0115464D03*
X0046384Y0104027D03*
X0028057Y0144263D03*
X0027920Y0144263D03*
X0025577Y0144263D03*
X0025439Y0144263D03*
X0023097Y0153909D03*
X0021443Y0162176D03*
X0019928Y0162176D03*
X0038117Y0150050D03*
X0044042Y0158180D03*
X0061404Y0167826D03*
X0061817Y0167964D03*
X0062231Y0168102D03*
X0062644Y0168239D03*
X0063057Y0168377D03*
X0063195Y0168377D03*
X0063471Y0168515D03*
X0063609Y0168515D03*
X0063746Y0168515D03*
X0063884Y0168653D03*
X0064022Y0168653D03*
X0064160Y0168653D03*
X0064298Y0168791D03*
X0064435Y0168791D03*
X0064573Y0168791D03*
X0064849Y0168928D03*
X0064987Y0168928D03*
X0065400Y0169066D03*
X0065951Y0169204D03*
X0076424Y0158594D03*
X0076286Y0149224D03*
X0076424Y0149086D03*
D26*
X0076148Y0149293D03*
X0076148Y0158387D03*
X0076286Y0158525D03*
X0063333Y0168446D03*
X0062920Y0168308D03*
X0062782Y0168308D03*
X0062506Y0168170D03*
X0062369Y0168170D03*
X0062093Y0168033D03*
X0061955Y0168033D03*
X0061680Y0167895D03*
X0061542Y0167895D03*
X0061266Y0167757D03*
X0061128Y0167757D03*
X0060991Y0167619D03*
X0060853Y0167619D03*
X0060715Y0167619D03*
X0060577Y0167481D03*
X0060439Y0167481D03*
X0060164Y0167344D03*
X0060026Y0167344D03*
X0059750Y0167206D03*
X0059613Y0167206D03*
X0059337Y0167068D03*
X0058924Y0166930D03*
X0058648Y0166793D03*
X0044180Y0158249D03*
X0040183Y0163072D03*
X0040046Y0163072D03*
X0039908Y0163072D03*
X0037152Y0163072D03*
X0037014Y0163072D03*
X0036876Y0163072D03*
X0021306Y0162107D03*
X0020065Y0162107D03*
X0023235Y0153978D03*
X0023372Y0153978D03*
X0023510Y0153978D03*
X0025715Y0144332D03*
X0027782Y0144332D03*
X0051758Y0137580D03*
X0052861Y0130415D03*
X0057959Y0117737D03*
X0058097Y0117737D03*
X0070085Y0104371D03*
X0065951Y0097068D03*
X0049967Y0096241D03*
X0049691Y0096379D03*
X0049278Y0096517D03*
X0049002Y0096655D03*
X0048727Y0096793D03*
X0048313Y0096930D03*
X0048038Y0097068D03*
X0047762Y0097206D03*
X0047624Y0097206D03*
X0047349Y0097344D03*
X0047073Y0097481D03*
X0046935Y0097481D03*
X0046798Y0097619D03*
X0046935Y0098584D03*
X0047349Y0098722D03*
X0047624Y0098859D03*
X0049278Y0099548D03*
X0048451Y0100926D03*
X0048313Y0100926D03*
X0048176Y0100926D03*
X0048038Y0100926D03*
X0047900Y0100926D03*
X0047762Y0100926D03*
X0047624Y0100926D03*
X0047487Y0100926D03*
X0031778Y0111261D03*
D27*
X0046384Y0115257D03*
X0058924Y0117875D03*
X0059061Y0117875D03*
X0059199Y0117875D03*
X0060577Y0114981D03*
X0069947Y0104509D03*
X0049416Y0101340D03*
X0046798Y0101202D03*
X0046660Y0101340D03*
X0045971Y0098033D03*
X0059337Y0129588D03*
X0059475Y0129588D03*
X0059613Y0129588D03*
X0059750Y0129588D03*
X0059888Y0129588D03*
X0052447Y0130277D03*
X0052309Y0130277D03*
X0051758Y0144470D03*
X0060577Y0145434D03*
X0076010Y0149430D03*
X0075872Y0158249D03*
X0057959Y0166517D03*
X0057270Y0166241D03*
X0056994Y0166104D03*
X0056719Y0165966D03*
X0056443Y0165828D03*
X0056306Y0165828D03*
X0056030Y0165690D03*
X0055754Y0165552D03*
X0055479Y0165415D03*
X0055203Y0165277D03*
X0055065Y0165277D03*
X0054928Y0165139D03*
X0054790Y0165139D03*
X0054652Y0165001D03*
X0054376Y0164863D03*
X0054101Y0164726D03*
X0053825Y0164588D03*
X0053550Y0164450D03*
X0053274Y0164312D03*
X0052309Y0163761D03*
X0044455Y0158387D03*
X0039770Y0163072D03*
X0039632Y0163072D03*
X0037428Y0163072D03*
X0037290Y0163072D03*
X0024199Y0153978D03*
X0024061Y0153978D03*
X0023924Y0153978D03*
X0023786Y0153978D03*
X0021168Y0162107D03*
X0020341Y0162107D03*
X0025991Y0144332D03*
X0027506Y0144332D03*
D28*
X0026542Y0153978D03*
X0026404Y0153978D03*
X0026266Y0153978D03*
X0026128Y0153978D03*
X0025991Y0153978D03*
X0020754Y0162107D03*
X0037979Y0163072D03*
X0039081Y0163072D03*
X0051620Y0140611D03*
X0051620Y0133997D03*
X0051483Y0129863D03*
X0049416Y0126143D03*
X0051620Y0122147D03*
X0052861Y0120493D03*
X0046246Y0114844D03*
X0045144Y0113328D03*
X0045144Y0127796D03*
X0046384Y0129726D03*
X0046522Y0133859D03*
X0045144Y0136202D03*
X0060439Y0137718D03*
X0061128Y0134135D03*
X0064022Y0145159D03*
X0066089Y0145021D03*
X0075183Y0149981D03*
X0076010Y0152875D03*
X0065951Y0122974D03*
X0066089Y0114568D03*
X0064022Y0114706D03*
X0066365Y0106025D03*
X0066502Y0106025D03*
X0069258Y0104785D03*
X0069396Y0104647D03*
X0048313Y0098584D03*
D29*
X0048176Y0099066D03*
X0048038Y0099066D03*
X0047900Y0098928D03*
X0047762Y0098928D03*
X0047487Y0098791D03*
X0047211Y0098653D03*
X0047073Y0098653D03*
X0046798Y0098515D03*
X0045833Y0098102D03*
X0047211Y0097413D03*
X0047487Y0097275D03*
X0047900Y0097137D03*
X0048176Y0096999D03*
X0048451Y0096861D03*
X0048589Y0096861D03*
X0048865Y0096724D03*
X0049140Y0096586D03*
X0049416Y0096448D03*
X0049554Y0096448D03*
X0049829Y0096310D03*
X0050105Y0096172D03*
X0050243Y0096172D03*
X0049140Y0099480D03*
X0049002Y0099480D03*
X0049416Y0099617D03*
X0049554Y0099617D03*
X0049691Y0099755D03*
X0049829Y0099755D03*
X0049967Y0099893D03*
X0050105Y0099893D03*
X0050243Y0099893D03*
X0049140Y0101133D03*
X0049002Y0101133D03*
X0048865Y0100995D03*
X0048727Y0100995D03*
X0048589Y0100995D03*
X0049278Y0101271D03*
X0047349Y0100995D03*
X0047211Y0100995D03*
X0047073Y0100995D03*
X0046935Y0101133D03*
X0045695Y0102924D03*
X0045833Y0105405D03*
X0045971Y0105405D03*
X0046109Y0105405D03*
X0046246Y0105405D03*
X0046384Y0105405D03*
X0046522Y0105405D03*
X0046660Y0105405D03*
X0046798Y0105405D03*
X0046935Y0105405D03*
X0047073Y0105405D03*
X0047211Y0105405D03*
X0047349Y0105405D03*
X0047487Y0105405D03*
X0047624Y0105405D03*
X0048313Y0105405D03*
X0048451Y0105405D03*
X0048589Y0105405D03*
X0048727Y0105405D03*
X0048865Y0105405D03*
X0049002Y0105405D03*
X0049140Y0105405D03*
X0049278Y0105405D03*
X0049416Y0105405D03*
X0049554Y0105405D03*
X0049691Y0105405D03*
X0049829Y0105405D03*
X0049967Y0105405D03*
X0050105Y0105405D03*
X0050243Y0105405D03*
X0049554Y0103889D03*
X0049416Y0103889D03*
X0049278Y0103889D03*
X0049140Y0103889D03*
X0049002Y0103889D03*
X0048865Y0103889D03*
X0048727Y0103889D03*
X0048589Y0103889D03*
X0048451Y0103889D03*
X0048313Y0103889D03*
X0048176Y0103889D03*
X0048313Y0108574D03*
X0048451Y0108574D03*
X0048589Y0108574D03*
X0048727Y0108574D03*
X0048865Y0108574D03*
X0049002Y0108574D03*
X0049140Y0108574D03*
X0049278Y0108574D03*
X0049416Y0108574D03*
X0049554Y0108574D03*
X0049691Y0108574D03*
X0049829Y0108574D03*
X0049967Y0108574D03*
X0050105Y0108574D03*
X0050243Y0108574D03*
X0047624Y0108574D03*
X0047487Y0108574D03*
X0047349Y0108574D03*
X0047211Y0108574D03*
X0047073Y0108574D03*
X0046935Y0108574D03*
X0046798Y0108574D03*
X0046660Y0108574D03*
X0046522Y0108574D03*
X0046384Y0108574D03*
X0046246Y0108574D03*
X0046109Y0108574D03*
X0045971Y0108574D03*
X0045833Y0108574D03*
X0051620Y0111054D03*
X0058235Y0117806D03*
X0058372Y0117806D03*
X0058510Y0117806D03*
X0058648Y0117806D03*
X0058786Y0117806D03*
X0065951Y0110779D03*
X0060577Y0101271D03*
X0046384Y0125936D03*
X0048176Y0127865D03*
X0052585Y0130346D03*
X0052723Y0130346D03*
X0066089Y0126763D03*
X0065951Y0141231D03*
X0076010Y0158318D03*
X0060302Y0167413D03*
X0059888Y0167275D03*
X0059475Y0167137D03*
X0059199Y0166999D03*
X0059061Y0166999D03*
X0058786Y0166861D03*
X0058510Y0166724D03*
X0058372Y0166724D03*
X0058235Y0166586D03*
X0058097Y0166586D03*
X0057821Y0166448D03*
X0057683Y0166448D03*
X0057546Y0166310D03*
X0057408Y0166310D03*
X0057132Y0166172D03*
X0056857Y0166035D03*
X0056581Y0165897D03*
X0056168Y0165759D03*
X0055892Y0165621D03*
X0055617Y0165483D03*
X0055341Y0165346D03*
X0044317Y0158318D03*
X0037979Y0149913D03*
X0027644Y0144263D03*
X0025853Y0144263D03*
X0023648Y0153909D03*
X0020203Y0162176D03*
D30*
X0021030Y0162176D03*
X0024337Y0153909D03*
X0026128Y0144263D03*
X0027369Y0144263D03*
X0037841Y0149775D03*
X0044593Y0158456D03*
X0049691Y0162176D03*
X0050105Y0162452D03*
X0050380Y0162590D03*
X0050794Y0162865D03*
X0051069Y0163003D03*
X0051207Y0163141D03*
X0051483Y0163279D03*
X0051620Y0163417D03*
X0051758Y0163417D03*
X0051896Y0163554D03*
X0052034Y0163554D03*
X0052172Y0163692D03*
X0052447Y0163830D03*
X0052585Y0163968D03*
X0052723Y0163968D03*
X0052861Y0164106D03*
X0052998Y0164106D03*
X0053136Y0164243D03*
X0053412Y0164381D03*
X0053687Y0164519D03*
X0053963Y0164657D03*
X0054239Y0164794D03*
X0054514Y0164932D03*
X0047487Y0144539D03*
X0047349Y0144539D03*
X0047487Y0139854D03*
X0047624Y0139854D03*
X0050243Y0139854D03*
X0050380Y0139854D03*
X0046246Y0137373D03*
X0049554Y0133102D03*
X0049554Y0130208D03*
X0049691Y0130208D03*
X0049829Y0130208D03*
X0049967Y0130208D03*
X0050105Y0130208D03*
X0050243Y0130208D03*
X0050380Y0130208D03*
X0050518Y0130208D03*
X0050656Y0130208D03*
X0050794Y0130208D03*
X0050931Y0130208D03*
X0048176Y0130208D03*
X0048038Y0130208D03*
X0047900Y0130208D03*
X0047762Y0130208D03*
X0047624Y0130208D03*
X0047487Y0130208D03*
X0055754Y0118220D03*
X0062231Y0122078D03*
X0062369Y0122078D03*
X0063884Y0122078D03*
X0064022Y0122078D03*
X0064160Y0122078D03*
X0062093Y0126901D03*
X0061955Y0126901D03*
X0061817Y0126901D03*
X0060026Y0129657D03*
X0067329Y0129794D03*
X0067329Y0134066D03*
X0061955Y0141231D03*
X0061817Y0141231D03*
X0061680Y0141231D03*
X0061542Y0141231D03*
X0061404Y0141231D03*
X0061266Y0141231D03*
X0061128Y0141231D03*
X0067329Y0143298D03*
X0075872Y0149499D03*
X0067329Y0112846D03*
X0065124Y0106783D03*
X0064987Y0106783D03*
X0064711Y0106920D03*
X0064573Y0106920D03*
X0064298Y0107058D03*
X0064160Y0107058D03*
X0063746Y0107196D03*
X0063333Y0107334D03*
X0062920Y0107472D03*
X0062506Y0107609D03*
X0062093Y0107747D03*
X0061680Y0107885D03*
X0061955Y0110779D03*
X0062093Y0110779D03*
X0061128Y0110779D03*
X0065400Y0106645D03*
X0064573Y0105129D03*
X0067467Y0105956D03*
X0067743Y0105818D03*
X0067329Y0099066D03*
X0061955Y0096999D03*
X0061817Y0096999D03*
X0061680Y0096999D03*
X0061542Y0096999D03*
X0061404Y0096999D03*
X0061266Y0096999D03*
X0049554Y0101546D03*
X0046522Y0101409D03*
X0046109Y0098102D03*
X0047900Y0111054D03*
X0031640Y0112019D03*
D31*
X0045420Y0127590D03*
X0045557Y0135995D03*
X0032880Y0139578D03*
X0032743Y0139165D03*
X0035774Y0153909D03*
X0035912Y0153909D03*
X0036050Y0153909D03*
X0036187Y0153909D03*
X0036325Y0153909D03*
X0036463Y0153909D03*
X0036601Y0153909D03*
X0036739Y0153909D03*
X0036876Y0153909D03*
X0037014Y0153909D03*
X0037152Y0153909D03*
X0060164Y0136546D03*
X0060439Y0134342D03*
X0060026Y0132275D03*
X0067054Y0125247D03*
X0063884Y0144125D03*
X0074770Y0153771D03*
X0074908Y0153771D03*
X0075046Y0153771D03*
X0075183Y0153771D03*
X0075321Y0153771D03*
X0075459Y0153771D03*
X0075597Y0153771D03*
X0075735Y0153771D03*
X0075872Y0153771D03*
X0048451Y0112432D03*
X0063884Y0099893D03*
D32*
X0064573Y0101340D03*
X0064711Y0101340D03*
X0064849Y0101340D03*
X0064987Y0101340D03*
X0065124Y0101340D03*
X0065262Y0101340D03*
X0065400Y0101340D03*
X0064022Y0104922D03*
X0063884Y0104922D03*
X0063746Y0104922D03*
X0063609Y0104785D03*
X0063471Y0104785D03*
X0063333Y0104785D03*
X0063195Y0104647D03*
X0063057Y0104647D03*
X0062920Y0104647D03*
X0062782Y0104509D03*
X0062644Y0104509D03*
X0062506Y0104509D03*
X0062231Y0104371D03*
X0062093Y0104371D03*
X0061817Y0104233D03*
X0061680Y0104233D03*
X0061404Y0104096D03*
X0061266Y0104096D03*
X0060853Y0103958D03*
X0060439Y0103820D03*
X0060026Y0103682D03*
X0059888Y0103682D03*
X0059613Y0103544D03*
X0059475Y0103544D03*
X0060991Y0108092D03*
X0061128Y0108092D03*
X0061266Y0108092D03*
X0061404Y0107954D03*
X0061542Y0107954D03*
X0061817Y0107816D03*
X0061955Y0107816D03*
X0062231Y0107678D03*
X0062369Y0107678D03*
X0062644Y0107541D03*
X0062782Y0107541D03*
X0063057Y0107403D03*
X0063195Y0107403D03*
X0063471Y0107265D03*
X0063609Y0107265D03*
X0063884Y0107127D03*
X0064022Y0107127D03*
X0064435Y0106989D03*
X0064849Y0106852D03*
X0065262Y0106714D03*
X0065262Y0105336D03*
X0065124Y0105336D03*
X0064987Y0105198D03*
X0064849Y0105198D03*
X0064711Y0105198D03*
X0064435Y0105060D03*
X0064298Y0105060D03*
X0064160Y0105060D03*
X0065400Y0105336D03*
X0067191Y0106025D03*
X0067329Y0106025D03*
X0067605Y0105887D03*
X0067880Y0105749D03*
X0068018Y0105749D03*
X0068156Y0105611D03*
X0068294Y0105611D03*
X0068431Y0105474D03*
X0069809Y0104509D03*
X0066089Y0097344D03*
X0062231Y0097068D03*
X0062093Y0097068D03*
X0061128Y0097068D03*
X0060991Y0097068D03*
X0060715Y0108230D03*
X0060577Y0108230D03*
X0060302Y0108367D03*
X0060164Y0108367D03*
X0059888Y0108505D03*
X0059750Y0108505D03*
X0059475Y0108643D03*
X0059337Y0108643D03*
X0060853Y0110848D03*
X0060991Y0110848D03*
X0061266Y0110710D03*
X0061404Y0110710D03*
X0061542Y0110710D03*
X0061680Y0110710D03*
X0061817Y0110710D03*
X0062231Y0110848D03*
X0064573Y0115119D03*
X0064711Y0115119D03*
X0064849Y0115119D03*
X0064987Y0115119D03*
X0065124Y0115119D03*
X0065262Y0115119D03*
X0065400Y0115119D03*
X0065676Y0114981D03*
X0065676Y0118013D03*
X0065538Y0118013D03*
X0065400Y0118013D03*
X0065262Y0118013D03*
X0065124Y0118013D03*
X0064987Y0118013D03*
X0064849Y0118013D03*
X0064711Y0118013D03*
X0064573Y0118013D03*
X0064435Y0118013D03*
X0064298Y0118013D03*
X0064160Y0118013D03*
X0064022Y0118013D03*
X0063884Y0118013D03*
X0063746Y0118013D03*
X0063609Y0118013D03*
X0063471Y0118013D03*
X0063333Y0118013D03*
X0063195Y0118013D03*
X0063057Y0118013D03*
X0062920Y0118013D03*
X0062782Y0118013D03*
X0062644Y0118013D03*
X0062506Y0118013D03*
X0062369Y0118013D03*
X0062231Y0118013D03*
X0062093Y0118013D03*
X0061955Y0118013D03*
X0061817Y0118013D03*
X0061680Y0118013D03*
X0061542Y0118013D03*
X0061404Y0118013D03*
X0061266Y0118013D03*
X0061128Y0118013D03*
X0060991Y0118013D03*
X0060853Y0118013D03*
X0060715Y0118013D03*
X0060577Y0118013D03*
X0060439Y0118013D03*
X0061680Y0122147D03*
X0061817Y0122147D03*
X0061955Y0122147D03*
X0062093Y0122147D03*
X0061542Y0122285D03*
X0061404Y0122285D03*
X0061266Y0122285D03*
X0061128Y0122422D03*
X0063746Y0122009D03*
X0064298Y0122147D03*
X0064435Y0122147D03*
X0064573Y0122147D03*
X0064711Y0122147D03*
X0064849Y0122285D03*
X0064987Y0122285D03*
X0065124Y0122285D03*
X0065262Y0122422D03*
X0067329Y0125041D03*
X0067191Y0129726D03*
X0067054Y0129726D03*
X0066916Y0129726D03*
X0066778Y0129726D03*
X0066640Y0129726D03*
X0066502Y0129726D03*
X0066365Y0129726D03*
X0066227Y0129726D03*
X0066089Y0129726D03*
X0065951Y0129726D03*
X0065813Y0129726D03*
X0065676Y0129726D03*
X0065538Y0129726D03*
X0065400Y0129726D03*
X0065262Y0129726D03*
X0065124Y0129726D03*
X0064987Y0129726D03*
X0064849Y0129726D03*
X0064711Y0129726D03*
X0064573Y0129726D03*
X0064435Y0129726D03*
X0064298Y0129726D03*
X0064160Y0129726D03*
X0064022Y0129726D03*
X0063884Y0129726D03*
X0063746Y0129726D03*
X0063609Y0129726D03*
X0063471Y0129726D03*
X0063333Y0129726D03*
X0063195Y0129726D03*
X0063057Y0129726D03*
X0062920Y0129726D03*
X0062782Y0129726D03*
X0062644Y0129726D03*
X0062506Y0129726D03*
X0062369Y0129726D03*
X0062231Y0129726D03*
X0062093Y0129726D03*
X0061955Y0129726D03*
X0061817Y0129726D03*
X0061680Y0129726D03*
X0061542Y0129726D03*
X0062231Y0126970D03*
X0062369Y0126970D03*
X0061680Y0126832D03*
X0061542Y0126832D03*
X0061404Y0126832D03*
X0061266Y0126694D03*
X0061128Y0126694D03*
X0061817Y0134135D03*
X0061955Y0134135D03*
X0062093Y0134135D03*
X0062231Y0134135D03*
X0062369Y0134135D03*
X0062506Y0134135D03*
X0062644Y0134135D03*
X0062782Y0134135D03*
X0062920Y0134135D03*
X0063057Y0134135D03*
X0063195Y0134135D03*
X0063333Y0134135D03*
X0063471Y0134135D03*
X0063609Y0134135D03*
X0063746Y0134135D03*
X0063884Y0134135D03*
X0064022Y0134135D03*
X0064160Y0134135D03*
X0064298Y0134135D03*
X0064435Y0134135D03*
X0064573Y0134135D03*
X0064711Y0134135D03*
X0064849Y0134135D03*
X0064987Y0134135D03*
X0065124Y0134135D03*
X0065262Y0134135D03*
X0065400Y0134135D03*
X0065538Y0134135D03*
X0065676Y0134135D03*
X0065813Y0134135D03*
X0065951Y0134135D03*
X0066089Y0134135D03*
X0066227Y0134135D03*
X0066365Y0134135D03*
X0066502Y0134135D03*
X0066640Y0134135D03*
X0066778Y0134135D03*
X0066916Y0134135D03*
X0067054Y0134135D03*
X0067191Y0134135D03*
X0067191Y0138407D03*
X0067054Y0138407D03*
X0066916Y0138407D03*
X0066778Y0138407D03*
X0066640Y0138407D03*
X0066502Y0138407D03*
X0066365Y0138407D03*
X0066227Y0138407D03*
X0066089Y0138407D03*
X0065951Y0138407D03*
X0065813Y0138407D03*
X0065676Y0138407D03*
X0065538Y0138407D03*
X0065400Y0138407D03*
X0065262Y0138407D03*
X0065124Y0138407D03*
X0064987Y0138407D03*
X0064849Y0138407D03*
X0064711Y0138407D03*
X0064573Y0138407D03*
X0064435Y0138407D03*
X0064298Y0138407D03*
X0064160Y0138407D03*
X0064022Y0138407D03*
X0063884Y0138407D03*
X0063746Y0138407D03*
X0063609Y0138407D03*
X0063471Y0138407D03*
X0063333Y0138407D03*
X0063195Y0138407D03*
X0063057Y0138407D03*
X0062920Y0138407D03*
X0062782Y0138407D03*
X0062644Y0138407D03*
X0062506Y0138407D03*
X0062369Y0138407D03*
X0062231Y0138407D03*
X0062093Y0138407D03*
X0061955Y0138407D03*
X0061817Y0138407D03*
X0061680Y0138407D03*
X0061542Y0138407D03*
X0061404Y0138269D03*
X0061266Y0138269D03*
X0061128Y0138269D03*
X0060991Y0141300D03*
X0062093Y0141300D03*
X0062231Y0141300D03*
X0064298Y0145434D03*
X0064573Y0145572D03*
X0064711Y0145572D03*
X0064849Y0145572D03*
X0064987Y0145572D03*
X0065124Y0145572D03*
X0065262Y0145572D03*
X0065400Y0145572D03*
X0065676Y0145434D03*
X0067329Y0138407D03*
X0075735Y0149568D03*
X0075735Y0158111D03*
X0051345Y0163210D03*
X0050931Y0162934D03*
X0050656Y0162796D03*
X0050518Y0162659D03*
X0050243Y0162521D03*
X0049967Y0162383D03*
X0049829Y0162245D03*
X0049554Y0162107D03*
X0049416Y0161970D03*
X0049278Y0161832D03*
X0049140Y0161832D03*
X0049002Y0161694D03*
X0048865Y0161556D03*
X0048727Y0161556D03*
X0048589Y0161419D03*
X0048451Y0161281D03*
X0048176Y0161143D03*
X0048038Y0161005D03*
X0047624Y0160730D03*
X0047487Y0160592D03*
X0047073Y0160316D03*
X0046384Y0159765D03*
X0044731Y0158525D03*
X0039494Y0163072D03*
X0039357Y0163072D03*
X0037703Y0163072D03*
X0037565Y0163072D03*
X0037703Y0149706D03*
X0046798Y0144332D03*
X0047073Y0144470D03*
X0047211Y0144470D03*
X0047624Y0144607D03*
X0047762Y0144607D03*
X0047900Y0144607D03*
X0048038Y0144607D03*
X0048176Y0144607D03*
X0047073Y0140060D03*
X0046935Y0140060D03*
X0047211Y0139922D03*
X0047349Y0139922D03*
X0047762Y0139785D03*
X0047900Y0139785D03*
X0048038Y0139785D03*
X0048176Y0139785D03*
X0049416Y0139785D03*
X0049554Y0139785D03*
X0049691Y0139785D03*
X0049829Y0139785D03*
X0049967Y0139785D03*
X0050105Y0139785D03*
X0050518Y0139922D03*
X0050656Y0139922D03*
X0050794Y0140060D03*
X0050931Y0140060D03*
X0050518Y0133308D03*
X0050243Y0133170D03*
X0050105Y0133170D03*
X0049967Y0133170D03*
X0049829Y0133170D03*
X0049691Y0133170D03*
X0049416Y0133033D03*
X0049278Y0133033D03*
X0049140Y0133033D03*
X0049002Y0133033D03*
X0048865Y0133033D03*
X0048727Y0133033D03*
X0048589Y0133033D03*
X0048451Y0133033D03*
X0048313Y0133033D03*
X0048176Y0133170D03*
X0048038Y0133170D03*
X0047900Y0133170D03*
X0047762Y0133170D03*
X0047624Y0133170D03*
X0047349Y0133308D03*
X0047349Y0130139D03*
X0047211Y0130139D03*
X0047073Y0130139D03*
X0046935Y0130139D03*
X0049416Y0130139D03*
X0051069Y0130139D03*
X0051069Y0125730D03*
X0051207Y0125730D03*
X0050931Y0125592D03*
X0050794Y0125592D03*
X0050656Y0125592D03*
X0050518Y0125592D03*
X0050380Y0125592D03*
X0050243Y0125592D03*
X0050105Y0125730D03*
X0049967Y0125730D03*
X0049829Y0123111D03*
X0049691Y0123111D03*
X0049554Y0123111D03*
X0049416Y0123111D03*
X0049278Y0123111D03*
X0049140Y0123111D03*
X0049002Y0123111D03*
X0048865Y0123111D03*
X0048727Y0123111D03*
X0048589Y0123111D03*
X0048451Y0123111D03*
X0048313Y0123111D03*
X0048176Y0123111D03*
X0048038Y0123111D03*
X0047900Y0123111D03*
X0047762Y0122974D03*
X0047624Y0122974D03*
X0047487Y0122974D03*
X0047211Y0122836D03*
X0049967Y0122974D03*
X0050105Y0122974D03*
X0050243Y0122974D03*
X0050380Y0122974D03*
X0050656Y0122836D03*
X0050656Y0118151D03*
X0050794Y0118151D03*
X0050931Y0118151D03*
X0051069Y0118151D03*
X0051207Y0118151D03*
X0050518Y0118151D03*
X0050380Y0118151D03*
X0050243Y0118151D03*
X0050105Y0118151D03*
X0049967Y0118151D03*
X0049829Y0118151D03*
X0049691Y0118151D03*
X0049554Y0118151D03*
X0049416Y0118151D03*
X0049278Y0118151D03*
X0049140Y0118151D03*
X0049002Y0118151D03*
X0048865Y0118151D03*
X0048727Y0118151D03*
X0048589Y0118151D03*
X0048451Y0118151D03*
X0048313Y0118151D03*
X0048176Y0118151D03*
X0048038Y0118151D03*
X0047900Y0118151D03*
X0047762Y0118151D03*
X0047624Y0118151D03*
X0047487Y0118151D03*
X0047349Y0118151D03*
X0047211Y0118151D03*
X0047073Y0118151D03*
X0046935Y0118151D03*
X0046798Y0118151D03*
X0046660Y0118151D03*
X0046522Y0118151D03*
X0050105Y0115257D03*
X0050243Y0115257D03*
X0050380Y0115257D03*
X0050518Y0115395D03*
X0050656Y0115395D03*
X0050794Y0115395D03*
X0050931Y0115395D03*
X0051069Y0115257D03*
X0051207Y0115257D03*
X0052723Y0118151D03*
X0052861Y0118151D03*
X0052998Y0118151D03*
X0053136Y0118151D03*
X0053274Y0118151D03*
X0053412Y0118151D03*
X0053550Y0118151D03*
X0053687Y0118151D03*
X0053825Y0118151D03*
X0053963Y0118151D03*
X0054101Y0118151D03*
X0054239Y0118151D03*
X0054376Y0118151D03*
X0054514Y0118151D03*
X0054652Y0118151D03*
X0054790Y0118151D03*
X0054928Y0118151D03*
X0055065Y0118151D03*
X0055203Y0118151D03*
X0055341Y0118151D03*
X0055479Y0118151D03*
X0055617Y0118151D03*
X0048038Y0111123D03*
X0047762Y0110985D03*
X0047624Y0110985D03*
X0047487Y0110985D03*
X0047349Y0110985D03*
X0047211Y0110985D03*
X0047073Y0110985D03*
X0046935Y0110985D03*
X0046798Y0111123D03*
X0046660Y0111123D03*
X0049691Y0103682D03*
X0046384Y0098033D03*
X0046246Y0098033D03*
X0024888Y0153978D03*
X0024750Y0153978D03*
X0024613Y0153978D03*
X0024475Y0153978D03*
X0020479Y0162107D03*
D33*
X0020892Y0162176D03*
X0025026Y0153909D03*
X0026266Y0144263D03*
X0027231Y0144263D03*
X0046522Y0144125D03*
X0046660Y0144263D03*
X0046935Y0144401D03*
X0046660Y0140267D03*
X0046798Y0140129D03*
X0051069Y0140129D03*
X0051207Y0140267D03*
X0051069Y0133515D03*
X0050931Y0133515D03*
X0050794Y0133377D03*
X0050656Y0133377D03*
X0050380Y0133239D03*
X0047487Y0133239D03*
X0047211Y0133377D03*
X0047073Y0133377D03*
X0046935Y0133515D03*
X0046798Y0130070D03*
X0046660Y0129932D03*
X0051207Y0130070D03*
X0051345Y0125798D03*
X0051483Y0125798D03*
X0049829Y0125798D03*
X0049691Y0125798D03*
X0050518Y0122905D03*
X0050794Y0122767D03*
X0050931Y0122767D03*
X0051069Y0122629D03*
X0051345Y0118220D03*
X0051345Y0115188D03*
X0049967Y0115188D03*
X0051758Y0111330D03*
X0048176Y0111192D03*
X0046522Y0111192D03*
X0046384Y0101684D03*
X0059337Y0103476D03*
X0059750Y0103613D03*
X0060164Y0103751D03*
X0060302Y0103751D03*
X0060577Y0103889D03*
X0060715Y0103889D03*
X0060991Y0104027D03*
X0061128Y0104027D03*
X0061542Y0104165D03*
X0061955Y0104302D03*
X0062369Y0104440D03*
X0064298Y0101271D03*
X0064435Y0101271D03*
X0064160Y0101133D03*
X0065538Y0101271D03*
X0065676Y0101271D03*
X0065813Y0101133D03*
X0067054Y0105956D03*
X0068569Y0105405D03*
X0068707Y0105267D03*
X0069672Y0104578D03*
X0066089Y0111054D03*
X0065813Y0114913D03*
X0065538Y0115050D03*
X0064435Y0115050D03*
X0064298Y0114913D03*
X0065813Y0118082D03*
X0065951Y0118082D03*
X0067329Y0119460D03*
X0065400Y0122491D03*
X0060991Y0122491D03*
X0060991Y0126625D03*
X0061266Y0129794D03*
X0061404Y0129794D03*
X0061404Y0134066D03*
X0061542Y0134066D03*
X0061680Y0134066D03*
X0060715Y0138062D03*
X0060853Y0138200D03*
X0060991Y0138200D03*
X0060853Y0141369D03*
X0062369Y0141369D03*
X0064435Y0145503D03*
X0065538Y0145503D03*
X0065813Y0145365D03*
X0066089Y0141507D03*
X0075597Y0149637D03*
X0075597Y0158043D03*
X0048313Y0161212D03*
X0047900Y0160936D03*
X0047762Y0160798D03*
X0047349Y0160523D03*
X0047211Y0160385D03*
X0046935Y0160247D03*
X0046798Y0160109D03*
X0046660Y0159972D03*
X0046522Y0159834D03*
X0046246Y0159696D03*
X0046109Y0159558D03*
X0045971Y0159420D03*
X0045833Y0159283D03*
X0045282Y0158869D03*
X0045144Y0158731D03*
X0045006Y0158594D03*
X0044869Y0158594D03*
X0047349Y0122905D03*
X0047073Y0122767D03*
X0046935Y0122767D03*
X0046798Y0122629D03*
X0059613Y0108574D03*
X0060026Y0108436D03*
X0060439Y0108298D03*
X0060853Y0108161D03*
X0062369Y0110917D03*
X0060715Y0097275D03*
X0060853Y0097137D03*
X0062369Y0097137D03*
D34*
X0062506Y0097344D03*
X0065951Y0101064D03*
X0068983Y0105060D03*
X0068845Y0105198D03*
X0069534Y0104647D03*
X0066916Y0106025D03*
X0066778Y0106025D03*
X0062506Y0110985D03*
X0060715Y0110985D03*
X0060577Y0111123D03*
X0064160Y0114844D03*
X0065538Y0122560D03*
X0065676Y0122698D03*
X0060853Y0122560D03*
X0060715Y0122698D03*
X0060715Y0126419D03*
X0060853Y0126556D03*
X0061128Y0129863D03*
X0061266Y0134135D03*
X0060715Y0141438D03*
X0060577Y0141576D03*
X0062506Y0141438D03*
X0064160Y0145296D03*
X0075459Y0149706D03*
X0075459Y0157974D03*
X0051483Y0140474D03*
X0051345Y0140336D03*
X0046522Y0140336D03*
X0045144Y0142265D03*
X0046660Y0133722D03*
X0046798Y0133584D03*
X0046522Y0129863D03*
X0051345Y0130001D03*
X0051207Y0133584D03*
X0051345Y0133722D03*
X0051620Y0125867D03*
X0049554Y0126005D03*
X0051207Y0122560D03*
X0051483Y0118289D03*
X0051483Y0115119D03*
X0049829Y0115119D03*
X0046384Y0118289D03*
X0046660Y0122560D03*
X0031502Y0112915D03*
X0046522Y0098033D03*
X0046660Y0098033D03*
X0025715Y0153978D03*
X0025577Y0153978D03*
X0025439Y0153978D03*
X0025302Y0153978D03*
X0025164Y0153978D03*
X0020617Y0162107D03*
X0037841Y0163072D03*
X0039219Y0163072D03*
X0045420Y0158938D03*
X0045557Y0159076D03*
X0045695Y0159214D03*
D35*
X0037565Y0149637D03*
X0046384Y0143987D03*
X0046384Y0140543D03*
X0051483Y0133928D03*
X0059337Y0132413D03*
X0060991Y0129932D03*
X0060577Y0126350D03*
X0060577Y0122767D03*
X0065813Y0122767D03*
X0066089Y0118220D03*
X0065951Y0114775D03*
X0060439Y0114637D03*
X0051620Y0115050D03*
X0048313Y0111330D03*
X0046384Y0111330D03*
X0050243Y0102924D03*
X0049691Y0101960D03*
X0060439Y0100857D03*
X0060577Y0097413D03*
X0064022Y0100995D03*
X0066640Y0105956D03*
X0069120Y0104854D03*
X0051483Y0122354D03*
X0051345Y0122491D03*
X0051758Y0126074D03*
X0046246Y0126350D03*
X0046522Y0122354D03*
X0059337Y0136684D03*
X0060577Y0137924D03*
X0060439Y0145090D03*
X0065951Y0145228D03*
X0075321Y0149775D03*
X0075183Y0157767D03*
X0075321Y0157905D03*
X0027093Y0144263D03*
X0026404Y0144263D03*
X0025853Y0153909D03*
D36*
X0026680Y0153909D03*
X0026542Y0144263D03*
X0026955Y0144263D03*
X0037428Y0149499D03*
X0046246Y0143712D03*
X0046384Y0134066D03*
X0052861Y0127452D03*
X0059337Y0124558D03*
X0060439Y0123043D03*
X0060439Y0126074D03*
X0060853Y0130070D03*
X0060991Y0134204D03*
X0051620Y0118495D03*
X0051758Y0114775D03*
X0046384Y0122216D03*
X0031365Y0113810D03*
X0066227Y0105956D03*
X0066089Y0100857D03*
X0075046Y0150050D03*
X0075046Y0157629D03*
D37*
X0074908Y0157560D03*
X0074908Y0150119D03*
X0060439Y0141852D03*
X0051758Y0134273D03*
X0051620Y0129726D03*
X0060715Y0130139D03*
X0066089Y0123249D03*
X0067191Y0119253D03*
X0060439Y0111399D03*
X0065951Y0106025D03*
X0066089Y0106025D03*
X0060439Y0097619D03*
X0048589Y0098584D03*
X0048451Y0098584D03*
X0046246Y0111674D03*
X0049691Y0114844D03*
X0045144Y0120218D03*
X0046246Y0140749D03*
X0037290Y0149430D03*
X0027369Y0153978D03*
X0027231Y0153978D03*
X0027093Y0153978D03*
X0026955Y0153978D03*
X0026817Y0153978D03*
X0038117Y0163072D03*
X0038943Y0163072D03*
D38*
X0027782Y0153909D03*
X0027644Y0153909D03*
X0027506Y0153909D03*
X0037152Y0149224D03*
X0051758Y0140956D03*
X0059475Y0136684D03*
X0060853Y0134204D03*
X0046246Y0129381D03*
X0067054Y0119184D03*
X0065813Y0105956D03*
X0048865Y0098653D03*
X0048727Y0098653D03*
X0074770Y0150188D03*
X0074770Y0157491D03*
D39*
X0074632Y0157422D03*
X0074632Y0150257D03*
X0059475Y0132344D03*
X0060577Y0130277D03*
X0052861Y0136202D03*
X0046246Y0134411D03*
X0036463Y0148052D03*
X0036601Y0148328D03*
X0036739Y0148604D03*
X0036876Y0148741D03*
X0037014Y0149017D03*
X0028471Y0153978D03*
X0028333Y0153978D03*
X0028195Y0153978D03*
X0028057Y0153978D03*
X0027920Y0153978D03*
X0026680Y0144332D03*
X0038254Y0163072D03*
X0038806Y0163072D03*
X0066916Y0119115D03*
X0065676Y0106025D03*
X0065538Y0106025D03*
X0045833Y0102993D03*
D40*
X0031089Y0116222D03*
X0052447Y0127521D03*
X0059750Y0124627D03*
X0063884Y0113604D03*
X0067054Y0112639D03*
X0067054Y0098859D03*
X0052585Y0136064D03*
X0060026Y0136615D03*
X0067054Y0143092D03*
X0074494Y0153840D03*
X0074632Y0153840D03*
X0035636Y0153978D03*
X0035498Y0153978D03*
X0035361Y0153978D03*
X0035223Y0153978D03*
X0035085Y0153978D03*
D41*
X0036325Y0147846D03*
X0036187Y0147570D03*
X0036050Y0147294D03*
X0035912Y0147019D03*
X0035774Y0146743D03*
X0028746Y0153909D03*
X0028609Y0153909D03*
X0026817Y0144263D03*
X0045282Y0142334D03*
X0052861Y0142885D03*
X0059337Y0143574D03*
X0051758Y0129519D03*
X0051758Y0121802D03*
X0046246Y0121802D03*
X0052861Y0112983D03*
X0059337Y0113121D03*
X0066778Y0119046D03*
X0059337Y0099342D03*
X0050105Y0102924D03*
X0031227Y0114913D03*
X0074494Y0150326D03*
X0074494Y0157354D03*
D42*
X0074357Y0152393D03*
X0031227Y0131861D03*
D43*
X0034947Y0145090D03*
X0035085Y0145365D03*
X0035223Y0145641D03*
X0029987Y0153909D03*
X0029849Y0153909D03*
X0029711Y0153909D03*
X0029573Y0153909D03*
X0038668Y0163141D03*
X0059613Y0136684D03*
X0059613Y0132413D03*
X0059475Y0124558D03*
X0060302Y0118771D03*
X0066365Y0118909D03*
X0067191Y0112708D03*
X0052723Y0120424D03*
X0045971Y0102924D03*
X0074357Y0157216D03*
D44*
X0074219Y0153840D03*
X0060302Y0133859D03*
D45*
X0073254Y0153840D03*
X0073392Y0153840D03*
X0073530Y0153840D03*
X0073668Y0153840D03*
X0073806Y0153840D03*
X0073943Y0153840D03*
X0074081Y0153840D03*
D46*
X0073117Y0153771D03*
D47*
X0072979Y0153840D03*
X0072841Y0153840D03*
D48*
X0072703Y0153840D03*
X0072565Y0153840D03*
D49*
X0072428Y0153840D03*
X0072290Y0153840D03*
X0072152Y0153840D03*
D50*
X0072014Y0153840D03*
X0071876Y0153840D03*
D51*
X0071739Y0153840D03*
X0071601Y0153840D03*
X0031089Y0130552D03*
D52*
X0071463Y0153909D03*
D53*
X0071325Y0153840D03*
X0071187Y0153840D03*
D54*
X0071050Y0153840D03*
X0070912Y0153840D03*
D55*
X0070774Y0153840D03*
X0070636Y0153840D03*
D56*
X0070498Y0153909D03*
D57*
X0070361Y0153840D03*
X0070223Y0153840D03*
D58*
X0070085Y0153840D03*
X0069947Y0153840D03*
D59*
X0069809Y0153840D03*
X0069672Y0153840D03*
X0069534Y0153840D03*
X0063057Y0124489D03*
X0062920Y0124489D03*
X0062782Y0124489D03*
X0062644Y0124489D03*
X0031365Y0132757D03*
D60*
X0069258Y0153840D03*
X0069396Y0153840D03*
D61*
X0069120Y0153840D03*
X0068983Y0153840D03*
D62*
X0068845Y0153909D03*
X0051896Y0128003D03*
X0049278Y0128003D03*
D63*
X0049140Y0128072D03*
X0052034Y0128072D03*
X0051896Y0120218D03*
X0046109Y0120218D03*
X0045971Y0120218D03*
X0031640Y0134411D03*
X0068569Y0153840D03*
X0068707Y0153840D03*
D64*
X0068431Y0153840D03*
X0068294Y0153840D03*
X0066227Y0143367D03*
X0048865Y0128210D03*
X0052172Y0120080D03*
X0051896Y0113190D03*
X0046109Y0113190D03*
X0066227Y0112915D03*
D65*
X0066640Y0112777D03*
X0060026Y0113052D03*
X0052172Y0113052D03*
X0045833Y0113328D03*
X0045557Y0119942D03*
X0052447Y0119942D03*
X0048589Y0128348D03*
X0045971Y0127934D03*
X0046109Y0142265D03*
X0052034Y0142541D03*
X0060026Y0143505D03*
X0066640Y0143230D03*
X0068018Y0153840D03*
X0068156Y0153840D03*
X0055617Y0153840D03*
X0055479Y0153840D03*
X0055341Y0153840D03*
X0055203Y0153840D03*
X0055065Y0153840D03*
X0054928Y0153840D03*
X0054790Y0153840D03*
X0054652Y0153840D03*
X0054514Y0153840D03*
X0054376Y0153840D03*
X0054239Y0153840D03*
X0054101Y0153840D03*
X0053963Y0153840D03*
X0053825Y0153840D03*
X0053687Y0153840D03*
X0053550Y0153840D03*
X0066365Y0124765D03*
X0066502Y0099135D03*
X0060026Y0099273D03*
D66*
X0059888Y0099342D03*
X0066640Y0099066D03*
X0066778Y0112708D03*
X0059888Y0113121D03*
X0052309Y0112983D03*
X0045695Y0113397D03*
X0045833Y0127865D03*
X0046109Y0135582D03*
X0052172Y0142609D03*
X0059888Y0143574D03*
X0066778Y0143161D03*
X0067880Y0153909D03*
X0061128Y0153909D03*
X0060991Y0153909D03*
X0060853Y0153909D03*
X0060715Y0153909D03*
X0060577Y0153909D03*
X0060439Y0153909D03*
X0060302Y0153909D03*
X0060164Y0153909D03*
X0060026Y0153909D03*
X0059888Y0153909D03*
X0059750Y0153909D03*
X0059613Y0153909D03*
X0059475Y0153909D03*
X0059337Y0153909D03*
X0059199Y0153909D03*
X0059061Y0153909D03*
X0058924Y0153909D03*
X0058786Y0153909D03*
X0058648Y0153909D03*
X0058510Y0153909D03*
X0058372Y0153909D03*
X0058235Y0153909D03*
X0058097Y0153909D03*
X0057959Y0153909D03*
X0057821Y0153909D03*
X0057683Y0153909D03*
X0057546Y0153909D03*
X0057408Y0153909D03*
X0057270Y0153909D03*
X0057132Y0153909D03*
X0056994Y0153909D03*
X0056857Y0153909D03*
X0056719Y0153909D03*
X0056581Y0153909D03*
X0056443Y0153909D03*
X0056306Y0153909D03*
X0056168Y0153909D03*
X0056030Y0153909D03*
X0055892Y0153909D03*
X0055754Y0153909D03*
X0053412Y0153909D03*
X0053274Y0153909D03*
X0053136Y0153909D03*
X0052998Y0153909D03*
X0052861Y0153909D03*
X0052723Y0153909D03*
X0052585Y0153909D03*
X0052447Y0153909D03*
X0052309Y0153909D03*
X0052172Y0153909D03*
X0052034Y0153909D03*
X0051896Y0153909D03*
X0051758Y0153909D03*
X0051620Y0153909D03*
X0051483Y0153909D03*
X0051345Y0153909D03*
X0051207Y0153909D03*
X0051069Y0153909D03*
X0050931Y0153909D03*
X0050794Y0153909D03*
X0050656Y0153909D03*
X0050518Y0153909D03*
X0050380Y0153909D03*
X0050243Y0153909D03*
X0050105Y0153909D03*
X0049967Y0153909D03*
X0049829Y0153909D03*
X0049691Y0153909D03*
X0049554Y0153909D03*
X0049416Y0153909D03*
X0049278Y0153909D03*
X0049140Y0153909D03*
X0049002Y0153909D03*
X0048865Y0153909D03*
X0048727Y0153909D03*
X0048589Y0153909D03*
X0048451Y0153909D03*
X0048313Y0153909D03*
X0048176Y0153909D03*
X0048038Y0153909D03*
X0047900Y0153909D03*
X0047762Y0153909D03*
X0047624Y0153909D03*
X0047487Y0153909D03*
X0047349Y0153909D03*
X0047211Y0153909D03*
X0047073Y0153909D03*
X0046935Y0153909D03*
X0046798Y0153909D03*
X0046660Y0153909D03*
X0046522Y0153909D03*
X0046384Y0153909D03*
X0046246Y0153909D03*
X0046109Y0153909D03*
X0045971Y0153909D03*
X0045833Y0153909D03*
X0045695Y0153909D03*
X0045557Y0153909D03*
X0045420Y0153909D03*
X0045282Y0153909D03*
X0045144Y0153909D03*
X0045006Y0153909D03*
X0044869Y0153909D03*
X0044731Y0153909D03*
X0044593Y0153909D03*
X0044455Y0153909D03*
X0044317Y0153909D03*
X0031916Y0135857D03*
X0060164Y0124558D03*
X0060302Y0124558D03*
X0066502Y0124834D03*
D67*
X0066640Y0124903D03*
X0059750Y0113190D03*
X0063333Y0112915D03*
X0063471Y0113052D03*
X0052447Y0112915D03*
X0045557Y0113466D03*
X0052585Y0119804D03*
X0048451Y0128485D03*
X0045695Y0127796D03*
X0045971Y0135651D03*
X0051896Y0135651D03*
X0052309Y0142678D03*
X0045971Y0142265D03*
X0044180Y0153840D03*
X0059750Y0143643D03*
X0061266Y0153840D03*
X0061404Y0153840D03*
X0061542Y0153840D03*
X0061680Y0153840D03*
X0061817Y0153840D03*
X0061955Y0153840D03*
X0062093Y0153840D03*
X0062231Y0153840D03*
X0062369Y0153840D03*
X0062506Y0153840D03*
X0062644Y0153840D03*
X0062782Y0153840D03*
X0062920Y0153840D03*
X0063057Y0153840D03*
X0063195Y0153840D03*
X0063333Y0153840D03*
X0063471Y0153840D03*
X0063609Y0153840D03*
X0063746Y0153840D03*
X0063884Y0153840D03*
X0064022Y0153840D03*
X0064160Y0153840D03*
X0064298Y0153840D03*
X0064435Y0153840D03*
X0064573Y0153840D03*
X0064711Y0153840D03*
X0064849Y0153840D03*
X0064987Y0153840D03*
X0065124Y0153840D03*
X0065262Y0153840D03*
X0065400Y0153840D03*
X0065538Y0153840D03*
X0065676Y0153840D03*
X0065813Y0153840D03*
X0065951Y0153840D03*
X0066089Y0153840D03*
X0066227Y0153840D03*
X0067605Y0153840D03*
X0067743Y0153840D03*
X0032054Y0136478D03*
X0059750Y0099411D03*
X0063195Y0099135D03*
X0066778Y0098997D03*
D68*
X0066916Y0098859D03*
X0062920Y0098859D03*
X0059613Y0099548D03*
X0052585Y0112777D03*
X0059613Y0113328D03*
X0066778Y0125041D03*
X0052172Y0135789D03*
X0045833Y0135789D03*
X0045833Y0142265D03*
X0040597Y0153978D03*
X0040459Y0153978D03*
X0040321Y0153978D03*
X0032329Y0137580D03*
X0045557Y0127659D03*
X0059613Y0143781D03*
X0066916Y0143092D03*
X0066916Y0153840D03*
X0067054Y0153840D03*
X0067191Y0153840D03*
X0067329Y0153840D03*
X0067467Y0153840D03*
X0066778Y0153840D03*
X0066640Y0153840D03*
X0066502Y0153840D03*
D69*
X0067191Y0143230D03*
X0060577Y0134273D03*
X0060439Y0130552D03*
X0067191Y0125178D03*
X0060164Y0118840D03*
X0060026Y0118840D03*
X0059888Y0118840D03*
X0059750Y0118840D03*
X0059613Y0118840D03*
X0059475Y0118840D03*
X0059337Y0118840D03*
X0049967Y0102856D03*
X0067191Y0098997D03*
X0034396Y0143781D03*
X0034672Y0144470D03*
X0034809Y0144745D03*
X0030813Y0153978D03*
X0030676Y0153978D03*
X0030538Y0153978D03*
X0030400Y0153978D03*
X0030262Y0153978D03*
X0030124Y0153978D03*
D70*
X0040735Y0153909D03*
X0040872Y0153909D03*
X0041010Y0153909D03*
X0041148Y0153909D03*
X0041286Y0153909D03*
X0041424Y0153909D03*
X0041561Y0153909D03*
X0041699Y0153909D03*
X0041837Y0153909D03*
X0041975Y0153909D03*
X0042113Y0153909D03*
X0042250Y0153909D03*
X0042388Y0153909D03*
X0042526Y0153909D03*
X0042664Y0153909D03*
X0042802Y0153909D03*
X0042939Y0153909D03*
X0043077Y0153909D03*
X0043215Y0153909D03*
X0043353Y0153909D03*
X0043491Y0153909D03*
X0043628Y0153909D03*
X0043766Y0153909D03*
X0043904Y0153909D03*
X0044042Y0153909D03*
X0052447Y0142747D03*
X0052034Y0135720D03*
X0060026Y0124558D03*
X0063609Y0113259D03*
X0063195Y0112846D03*
X0063057Y0112708D03*
X0062920Y0112570D03*
X0066916Y0112570D03*
X0063609Y0099480D03*
X0063471Y0099342D03*
X0063333Y0099204D03*
X0063057Y0098928D03*
X0049002Y0113121D03*
X0048865Y0112983D03*
X0048727Y0112846D03*
X0049140Y0113259D03*
X0049278Y0113397D03*
X0049416Y0113535D03*
X0045420Y0119873D03*
X0032191Y0137098D03*
X0062920Y0143023D03*
X0063057Y0143161D03*
X0063195Y0143298D03*
X0063333Y0143436D03*
X0063471Y0143574D03*
X0063609Y0143712D03*
X0066365Y0153771D03*
D71*
X0063746Y0143850D03*
X0052585Y0142885D03*
X0052309Y0135857D03*
X0045695Y0135857D03*
X0048313Y0128692D03*
X0059888Y0124558D03*
X0066916Y0125109D03*
X0063746Y0113397D03*
X0063746Y0099617D03*
X0048589Y0112708D03*
X0040183Y0153909D03*
X0040046Y0153909D03*
X0039908Y0153909D03*
X0039770Y0153909D03*
X0039632Y0153909D03*
X0039494Y0153909D03*
X0039357Y0153909D03*
X0039219Y0153909D03*
X0039081Y0153909D03*
X0038943Y0153909D03*
X0038806Y0153909D03*
X0038668Y0153909D03*
X0038530Y0153909D03*
X0038392Y0153909D03*
X0038254Y0153909D03*
X0038117Y0153909D03*
D72*
X0035636Y0146537D03*
X0035498Y0146261D03*
X0035361Y0145985D03*
X0029435Y0153978D03*
X0029298Y0153978D03*
X0029160Y0153978D03*
X0029022Y0153978D03*
X0028884Y0153978D03*
X0038392Y0163072D03*
X0060715Y0134273D03*
X0052723Y0127521D03*
X0051758Y0118840D03*
X0046246Y0118840D03*
X0066227Y0118840D03*
X0066502Y0118978D03*
X0066640Y0118978D03*
D73*
X0066227Y0124696D03*
X0066365Y0112846D03*
X0066502Y0112846D03*
X0060302Y0112983D03*
X0060164Y0112983D03*
X0052034Y0113121D03*
X0045971Y0113259D03*
X0045695Y0120011D03*
X0052309Y0120011D03*
X0048727Y0128279D03*
X0046109Y0128003D03*
X0051896Y0142472D03*
X0060164Y0143436D03*
X0060302Y0143436D03*
X0066365Y0143298D03*
X0066502Y0143298D03*
X0031778Y0135169D03*
X0060164Y0099204D03*
X0060302Y0099204D03*
X0066227Y0099204D03*
X0066365Y0099204D03*
D74*
X0063609Y0124420D03*
X0063471Y0124420D03*
X0063333Y0124420D03*
X0063195Y0124420D03*
X0062506Y0124558D03*
X0049278Y0142196D03*
X0049140Y0142196D03*
X0049002Y0142196D03*
X0048865Y0142196D03*
X0048727Y0142196D03*
X0048589Y0142196D03*
X0048451Y0142196D03*
X0048313Y0142196D03*
D75*
X0045695Y0142265D03*
X0052447Y0135926D03*
X0052309Y0127521D03*
X0049554Y0113741D03*
X0045420Y0113466D03*
X0047762Y0106989D03*
X0047900Y0106989D03*
X0048038Y0106989D03*
X0048176Y0106989D03*
X0062782Y0112363D03*
X0062782Y0098584D03*
X0032467Y0138131D03*
X0032605Y0138682D03*
X0037290Y0153978D03*
X0037428Y0153978D03*
X0037565Y0153978D03*
X0037703Y0153978D03*
X0037841Y0153978D03*
X0037979Y0153978D03*
X0062782Y0142816D03*
D76*
X0062644Y0142472D03*
X0059613Y0124558D03*
X0062644Y0112019D03*
X0062644Y0098239D03*
X0033569Y0141645D03*
X0033707Y0142058D03*
X0033018Y0153909D03*
X0032880Y0153909D03*
X0032743Y0153909D03*
X0032605Y0153909D03*
X0032467Y0153909D03*
D77*
X0049002Y0128141D03*
X0052172Y0128141D03*
X0052034Y0120149D03*
X0045833Y0120149D03*
X0060164Y0131724D03*
D78*
X0059888Y0132344D03*
X0059888Y0136615D03*
X0052723Y0136202D03*
X0033431Y0141300D03*
X0033294Y0140887D03*
X0033294Y0153978D03*
X0033431Y0153978D03*
X0033569Y0153978D03*
X0033707Y0153978D03*
X0033845Y0153978D03*
X0033156Y0153978D03*
X0030262Y0124627D03*
X0059475Y0113190D03*
D79*
X0045282Y0113466D03*
X0046246Y0102718D03*
X0052585Y0127521D03*
X0059750Y0132344D03*
X0059750Y0136615D03*
X0045282Y0136202D03*
X0045420Y0142265D03*
X0033983Y0142816D03*
X0033845Y0142403D03*
X0032329Y0153978D03*
X0032191Y0153978D03*
X0032054Y0153978D03*
X0031916Y0153978D03*
X0031778Y0153978D03*
X0031640Y0153978D03*
X0031502Y0153978D03*
X0038530Y0163072D03*
D80*
X0034947Y0153909D03*
X0034809Y0153909D03*
X0034672Y0153909D03*
X0034534Y0153909D03*
X0034396Y0153909D03*
X0034258Y0153909D03*
X0034120Y0153909D03*
X0033983Y0153909D03*
X0033156Y0140405D03*
X0033018Y0139991D03*
X0045557Y0142334D03*
X0045420Y0136133D03*
X0052723Y0142885D03*
X0059475Y0143712D03*
X0045282Y0120011D03*
X0052723Y0112846D03*
X0059475Y0099480D03*
D81*
X0049829Y0102787D03*
X0046109Y0102787D03*
X0045282Y0127728D03*
X0034120Y0143161D03*
X0034258Y0143436D03*
X0034534Y0144125D03*
X0031365Y0153909D03*
X0031227Y0153909D03*
X0031089Y0153909D03*
X0030951Y0153909D03*
D82*
X0031502Y0133653D03*
D83*
X0030951Y0118357D03*
D84*
X0030951Y0128554D03*
D85*
X0030813Y0124489D03*
D86*
X0030676Y0124489D03*
D87*
X0030538Y0124558D03*
D88*
X0030400Y0124558D03*
D89*
X0040490Y0078100D02*
X0069490Y0078100D01*
X0069490Y0037650D01*
X0067390Y0025600D02*
X0221190Y0025600D01*
X0221190Y0001500D01*
X0067390Y0001500D01*
X0067390Y0025600D01*
X0040490Y0025600D01*
X0040490Y0078100D01*
X0040490Y0037100D02*
X0248090Y0037100D01*
X0248090Y0025600D02*
X0221190Y0025600D01*
X0219090Y0037650D02*
X0219090Y0078000D01*
X0248090Y0078000D01*
X0248090Y0025600D01*
M02*
