%
M48
M72
T01C0.01378
T02C0.01969
T03C0.04000
T04C0.04724
T05C0.05118
T06C0.12205
T07C0.13000
%
T01
X13890Y31413
X19748Y34933
X14016Y40972
X16630Y48197
X17185Y59811
X13642Y61217
X23122Y63811
X35685Y75811
X39685Y77311
X43370Y79740
X51185Y86311
X47307Y91551
X46185Y102311
X49724Y103362
X59685Y102311
X64892Y94400
X66933Y90248
X63055Y87614
X66992Y83677
X70933Y83248
X66992Y76220
X70933Y68248
X75734Y56300
X73892Y49400
X67185Y50311
X76457Y40921
X85185Y37811
X92685Y43811
X92685Y61811
X98185Y61311
X108110Y64035
X115685Y60811
X118012Y49382
X124685Y58311
X128354Y61913
X135685Y59811
X138283Y66654
X138283Y77654
X134685Y81811
X127685Y80811
X128185Y73657
X118272Y90394
X108185Y80811
X104114Y83551
X98488Y83677
X92783Y85654
X86892Y78400
X82740Y79740
X74866Y95488
X74685Y99066
X70929Y99425
X74866Y110232
X78803Y115154
X74866Y119110
X73892Y123400
X70929Y120047
X82126Y122008
X86677Y119110
X94196Y115173
X96685Y111311
X100185Y112811
X99854Y108913
X98185Y105311
X104512Y107882
X115685Y105311
X118173Y123047
X123185Y123811
X126047Y121110
X131764Y120075
X137685Y108811
X142196Y114183
X150028Y120283
X148232Y123547
X153606Y119110
X158043Y121047
X155185Y124311
X161480Y119110
X165417Y123110
X168685Y117311
X172642Y118449
X172196Y123047
X176185Y116311
X178185Y113311
X177685Y109311
X174174Y106513
X169185Y105311
X164685Y100811
X159685Y103811
X156185Y106311
X148685Y97811
X153685Y93811
X155682Y90748
X159260Y89831
X163685Y90811
X169185Y81811
X171685Y77811
X177228Y79740
X174315Y86343
X177228Y96300
X184165Y87705
X193685Y90311
X198185Y93311
X207323Y92244
X202496Y104839
X203185Y113311
X203185Y118811
X197685Y131811
X200850Y134858
X187998Y132311
X187642Y123886
X173291Y142854
X168417Y151106
X165417Y142732
X155142Y150949
X145232Y149106
X145732Y142732
X145685Y139154
X142376Y134858
X148185Y132811
X129185Y134822
X127047Y142295
X120482Y142732
X120047Y146669
X117185Y149311
X114203Y156983
X117185Y159811
X120047Y163167
X127173Y165854
X131251Y166354
X126047Y181613
X131142Y186650
X135142Y201650
X138142Y207650
X133921Y213598
X133142Y208650
X151685Y179075
X159185Y179825
X163685Y183311
X169228Y183248
X172892Y179400
X169715Y173841
X166685Y171811
X163685Y167811
X160715Y163781
X157185Y165311
X156685Y170822
X152365Y162061
X169685Y162811
X179892Y158400
X186059Y153457
X189039Y162417
X180209Y182039
X176185Y203626
X183892Y205400
X169892Y219400
X161480Y221472
X165892Y236400
X175563Y236894
X182892Y241400
X186892Y241400
X190892Y235400
X196913Y241157
X197020Y257484
X181892Y258400
X167892Y266400
X177252Y297236
X207791Y285890
X216252Y282236
X223752Y283236
X229685Y207811
X229685Y182102
X213142Y176724
X206665Y201370
X200892Y203400
X161185Y200811
X155892Y206400
X158685Y188311
X111185Y170822
X104685Y168343
X96988Y176586
X100685Y180811
X96415Y184102
X103392Y190650
X106392Y186650
X99392Y197650
X88685Y205311
X84392Y197650
X78087Y198343
X78587Y210343
X66992Y209661
X66992Y197850
X65483Y194300
X68642Y180650
X73392Y180650
X69311Y173311
X63685Y171811
X49848Y160648
X47307Y163167
X44433Y165854
X38642Y166650
X33685Y165561
X31185Y169561
X30185Y160811
X30685Y149811
X30685Y143811
X30435Y139561
X27685Y134811
X21892Y135400
X18685Y126811
X18748Y122984
X15915Y119110
X20185Y109311
X14426Y107072
X13642Y96650
X13642Y80902
X39433Y56300
X43370Y60055
X48126Y60008
X47185Y66311
X57892Y59400
X58892Y44400
X47201Y39228
X47079Y27169
X47457Y18921
X36185Y34811
X37185Y51311
X44201Y50228
X75457Y23921
X85457Y18921
X94012Y19382
X120012Y19382
X129685Y8811
X140894Y19228
X150390Y19130
X168390Y27130
X181165Y31433
X183390Y23130
X174685Y8811
X166390Y49130
X174685Y56811
X169685Y65311
X160685Y64811
X160016Y73130
X151720Y73575
X149799Y90583
X144685Y92311
X137858Y99425
X131685Y102811
X131685Y93311
X108185Y73657
X85185Y61811
X47307Y123047
X39685Y122984
X35685Y125811
X47307Y137045
X36892Y142400
X15915Y149811
X18685Y172811
X21685Y175811
X21685Y180811
X18685Y189811
X21685Y199811
X18685Y214311
X15915Y221472
X14685Y248811
X30150Y253736
X29776Y266079
X48906Y267866
X49783Y254461
X63185Y266811
X49028Y286520
X63185Y291311
X90614Y288402
X110299Y296276
X140685Y281811
X88685Y244984
X50209Y231772
X38150Y233236
X46587Y197343
X47709Y193134
X47392Y186650
X39392Y193650
X35685Y183811
X44435Y172811
X71142Y154150
X70142Y144900
X80642Y136900
X87642Y137900
X91707Y137311
X101935Y137311
X106362Y134822
X111185Y142311
X101685Y144800
X85685Y156061
X79685Y156061
X79685Y177811
X90185Y183811
X30402Y286610
X187272Y62228
X198185Y56811
X209957Y61228
X213894Y61228
X210685Y69535
X210390Y51130
X229685Y46311
X210685Y16811
X217831Y88787
X229685Y110811
X147894Y51228
X141685Y53811
T02
X28969Y42543
X28969Y47465
X28969Y52386
X28969Y57307
X29063Y70776
X29063Y75697
X29063Y80618
X29063Y85539
X29169Y99598
X29169Y104520
X29169Y109441
X29169Y114362
X29169Y119283
X55870Y199500
X55870Y204421
X55870Y209343
X55870Y214264
X211634Y148323
X211634Y143402
X211634Y138480
X211634Y133559
T03
X90700Y37411
X96100Y26211
X101500Y37411
X112300Y37411
X123100Y37411
X117700Y26211
X106900Y26211
X128500Y26211
X139300Y26211
X150100Y26211
X144700Y37411
X133900Y37411
X155500Y37411
X160900Y26211
X166300Y37411
T04
X217311Y236673
X217311Y250453
T05
X28622Y241850
X28622Y228071
X28622Y214291
X28622Y200512
T06
X23685Y296276
X224472Y296276
X224472Y14780
X23685Y14780
T07
X62900Y31811
X194100Y31811
M30
