G75*
%MOIN*%
%OFA0B0*%
%FSLAX25Y25*%
%IPPOS*%
%LPD*%
%AMOC8*
5,1,8,0,0,1.08239X$1,22.5*
%
%ADD10C,0.00000*%
%ADD11C,0.05500*%
%ADD12R,0.05131X0.04737*%
%ADD13R,0.12611X0.07099*%
%ADD14R,0.05600X0.09600*%
%ADD15R,0.14973X0.09461*%
%ADD16R,0.06312X0.08280*%
%ADD17C,0.10800*%
%ADD18C,0.04769*%
%ADD19R,0.06800X0.10800*%
%ADD20C,0.09400*%
%ADD21R,0.03950X0.03162*%
%ADD22R,0.05682X0.03950*%
%ADD23R,0.10643X0.05328*%
%ADD24R,0.09461X0.05328*%
%ADD25R,0.05328X0.06706*%
%ADD26R,0.05524X0.05367*%
%ADD27R,0.05721X0.05367*%
%ADD28R,0.09461X0.05209*%
%ADD29R,0.04737X0.05131*%
%ADD30R,0.04934X0.05052*%
%ADD31R,0.06800X0.03300*%
%ADD32OC8,0.05950*%
%ADD33C,0.07250*%
%ADD34C,0.12800*%
%ADD35C,0.17005*%
D10*
X0012400Y0035678D02*
X0012400Y0265993D01*
X0051770Y0265993D01*
X0087203Y0307332D01*
X0201376Y0307332D01*
X0236809Y0265993D01*
X0276180Y0265993D01*
X0276180Y0035678D01*
X0012400Y0035678D01*
X0045690Y0062450D02*
X0045692Y0062604D01*
X0045698Y0062759D01*
X0045708Y0062913D01*
X0045722Y0063067D01*
X0045740Y0063220D01*
X0045761Y0063373D01*
X0045787Y0063526D01*
X0045817Y0063677D01*
X0045850Y0063828D01*
X0045888Y0063978D01*
X0045929Y0064127D01*
X0045974Y0064275D01*
X0046023Y0064421D01*
X0046076Y0064567D01*
X0046132Y0064710D01*
X0046192Y0064853D01*
X0046256Y0064993D01*
X0046323Y0065133D01*
X0046394Y0065270D01*
X0046468Y0065405D01*
X0046546Y0065539D01*
X0046627Y0065670D01*
X0046712Y0065799D01*
X0046800Y0065927D01*
X0046891Y0066051D01*
X0046985Y0066174D01*
X0047083Y0066294D01*
X0047183Y0066411D01*
X0047287Y0066526D01*
X0047393Y0066638D01*
X0047502Y0066747D01*
X0047614Y0066853D01*
X0047729Y0066957D01*
X0047846Y0067057D01*
X0047966Y0067155D01*
X0048089Y0067249D01*
X0048213Y0067340D01*
X0048341Y0067428D01*
X0048470Y0067513D01*
X0048601Y0067594D01*
X0048735Y0067672D01*
X0048870Y0067746D01*
X0049007Y0067817D01*
X0049147Y0067884D01*
X0049287Y0067948D01*
X0049430Y0068008D01*
X0049573Y0068064D01*
X0049719Y0068117D01*
X0049865Y0068166D01*
X0050013Y0068211D01*
X0050162Y0068252D01*
X0050312Y0068290D01*
X0050463Y0068323D01*
X0050614Y0068353D01*
X0050767Y0068379D01*
X0050920Y0068400D01*
X0051073Y0068418D01*
X0051227Y0068432D01*
X0051381Y0068442D01*
X0051536Y0068448D01*
X0051690Y0068450D01*
X0051844Y0068448D01*
X0051999Y0068442D01*
X0052153Y0068432D01*
X0052307Y0068418D01*
X0052460Y0068400D01*
X0052613Y0068379D01*
X0052766Y0068353D01*
X0052917Y0068323D01*
X0053068Y0068290D01*
X0053218Y0068252D01*
X0053367Y0068211D01*
X0053515Y0068166D01*
X0053661Y0068117D01*
X0053807Y0068064D01*
X0053950Y0068008D01*
X0054093Y0067948D01*
X0054233Y0067884D01*
X0054373Y0067817D01*
X0054510Y0067746D01*
X0054645Y0067672D01*
X0054779Y0067594D01*
X0054910Y0067513D01*
X0055039Y0067428D01*
X0055167Y0067340D01*
X0055291Y0067249D01*
X0055414Y0067155D01*
X0055534Y0067057D01*
X0055651Y0066957D01*
X0055766Y0066853D01*
X0055878Y0066747D01*
X0055987Y0066638D01*
X0056093Y0066526D01*
X0056197Y0066411D01*
X0056297Y0066294D01*
X0056395Y0066174D01*
X0056489Y0066051D01*
X0056580Y0065927D01*
X0056668Y0065799D01*
X0056753Y0065670D01*
X0056834Y0065539D01*
X0056912Y0065405D01*
X0056986Y0065270D01*
X0057057Y0065133D01*
X0057124Y0064993D01*
X0057188Y0064853D01*
X0057248Y0064710D01*
X0057304Y0064567D01*
X0057357Y0064421D01*
X0057406Y0064275D01*
X0057451Y0064127D01*
X0057492Y0063978D01*
X0057530Y0063828D01*
X0057563Y0063677D01*
X0057593Y0063526D01*
X0057619Y0063373D01*
X0057640Y0063220D01*
X0057658Y0063067D01*
X0057672Y0062913D01*
X0057682Y0062759D01*
X0057688Y0062604D01*
X0057690Y0062450D01*
X0057688Y0062296D01*
X0057682Y0062141D01*
X0057672Y0061987D01*
X0057658Y0061833D01*
X0057640Y0061680D01*
X0057619Y0061527D01*
X0057593Y0061374D01*
X0057563Y0061223D01*
X0057530Y0061072D01*
X0057492Y0060922D01*
X0057451Y0060773D01*
X0057406Y0060625D01*
X0057357Y0060479D01*
X0057304Y0060333D01*
X0057248Y0060190D01*
X0057188Y0060047D01*
X0057124Y0059907D01*
X0057057Y0059767D01*
X0056986Y0059630D01*
X0056912Y0059495D01*
X0056834Y0059361D01*
X0056753Y0059230D01*
X0056668Y0059101D01*
X0056580Y0058973D01*
X0056489Y0058849D01*
X0056395Y0058726D01*
X0056297Y0058606D01*
X0056197Y0058489D01*
X0056093Y0058374D01*
X0055987Y0058262D01*
X0055878Y0058153D01*
X0055766Y0058047D01*
X0055651Y0057943D01*
X0055534Y0057843D01*
X0055414Y0057745D01*
X0055291Y0057651D01*
X0055167Y0057560D01*
X0055039Y0057472D01*
X0054910Y0057387D01*
X0054779Y0057306D01*
X0054645Y0057228D01*
X0054510Y0057154D01*
X0054373Y0057083D01*
X0054233Y0057016D01*
X0054093Y0056952D01*
X0053950Y0056892D01*
X0053807Y0056836D01*
X0053661Y0056783D01*
X0053515Y0056734D01*
X0053367Y0056689D01*
X0053218Y0056648D01*
X0053068Y0056610D01*
X0052917Y0056577D01*
X0052766Y0056547D01*
X0052613Y0056521D01*
X0052460Y0056500D01*
X0052307Y0056482D01*
X0052153Y0056468D01*
X0051999Y0056458D01*
X0051844Y0056452D01*
X0051690Y0056450D01*
X0051536Y0056452D01*
X0051381Y0056458D01*
X0051227Y0056468D01*
X0051073Y0056482D01*
X0050920Y0056500D01*
X0050767Y0056521D01*
X0050614Y0056547D01*
X0050463Y0056577D01*
X0050312Y0056610D01*
X0050162Y0056648D01*
X0050013Y0056689D01*
X0049865Y0056734D01*
X0049719Y0056783D01*
X0049573Y0056836D01*
X0049430Y0056892D01*
X0049287Y0056952D01*
X0049147Y0057016D01*
X0049007Y0057083D01*
X0048870Y0057154D01*
X0048735Y0057228D01*
X0048601Y0057306D01*
X0048470Y0057387D01*
X0048341Y0057472D01*
X0048213Y0057560D01*
X0048089Y0057651D01*
X0047966Y0057745D01*
X0047846Y0057843D01*
X0047729Y0057943D01*
X0047614Y0058047D01*
X0047502Y0058153D01*
X0047393Y0058262D01*
X0047287Y0058374D01*
X0047183Y0058489D01*
X0047083Y0058606D01*
X0046985Y0058726D01*
X0046891Y0058849D01*
X0046800Y0058973D01*
X0046712Y0059101D01*
X0046627Y0059230D01*
X0046546Y0059361D01*
X0046468Y0059495D01*
X0046394Y0059630D01*
X0046323Y0059767D01*
X0046256Y0059907D01*
X0046192Y0060047D01*
X0046132Y0060190D01*
X0046076Y0060333D01*
X0046023Y0060479D01*
X0045974Y0060625D01*
X0045929Y0060773D01*
X0045888Y0060922D01*
X0045850Y0061072D01*
X0045817Y0061223D01*
X0045787Y0061374D01*
X0045761Y0061527D01*
X0045740Y0061680D01*
X0045722Y0061833D01*
X0045708Y0061987D01*
X0045698Y0062141D01*
X0045692Y0062296D01*
X0045690Y0062450D01*
X0230890Y0062450D02*
X0230892Y0062604D01*
X0230898Y0062759D01*
X0230908Y0062913D01*
X0230922Y0063067D01*
X0230940Y0063220D01*
X0230961Y0063373D01*
X0230987Y0063526D01*
X0231017Y0063677D01*
X0231050Y0063828D01*
X0231088Y0063978D01*
X0231129Y0064127D01*
X0231174Y0064275D01*
X0231223Y0064421D01*
X0231276Y0064567D01*
X0231332Y0064710D01*
X0231392Y0064853D01*
X0231456Y0064993D01*
X0231523Y0065133D01*
X0231594Y0065270D01*
X0231668Y0065405D01*
X0231746Y0065539D01*
X0231827Y0065670D01*
X0231912Y0065799D01*
X0232000Y0065927D01*
X0232091Y0066051D01*
X0232185Y0066174D01*
X0232283Y0066294D01*
X0232383Y0066411D01*
X0232487Y0066526D01*
X0232593Y0066638D01*
X0232702Y0066747D01*
X0232814Y0066853D01*
X0232929Y0066957D01*
X0233046Y0067057D01*
X0233166Y0067155D01*
X0233289Y0067249D01*
X0233413Y0067340D01*
X0233541Y0067428D01*
X0233670Y0067513D01*
X0233801Y0067594D01*
X0233935Y0067672D01*
X0234070Y0067746D01*
X0234207Y0067817D01*
X0234347Y0067884D01*
X0234487Y0067948D01*
X0234630Y0068008D01*
X0234773Y0068064D01*
X0234919Y0068117D01*
X0235065Y0068166D01*
X0235213Y0068211D01*
X0235362Y0068252D01*
X0235512Y0068290D01*
X0235663Y0068323D01*
X0235814Y0068353D01*
X0235967Y0068379D01*
X0236120Y0068400D01*
X0236273Y0068418D01*
X0236427Y0068432D01*
X0236581Y0068442D01*
X0236736Y0068448D01*
X0236890Y0068450D01*
X0237044Y0068448D01*
X0237199Y0068442D01*
X0237353Y0068432D01*
X0237507Y0068418D01*
X0237660Y0068400D01*
X0237813Y0068379D01*
X0237966Y0068353D01*
X0238117Y0068323D01*
X0238268Y0068290D01*
X0238418Y0068252D01*
X0238567Y0068211D01*
X0238715Y0068166D01*
X0238861Y0068117D01*
X0239007Y0068064D01*
X0239150Y0068008D01*
X0239293Y0067948D01*
X0239433Y0067884D01*
X0239573Y0067817D01*
X0239710Y0067746D01*
X0239845Y0067672D01*
X0239979Y0067594D01*
X0240110Y0067513D01*
X0240239Y0067428D01*
X0240367Y0067340D01*
X0240491Y0067249D01*
X0240614Y0067155D01*
X0240734Y0067057D01*
X0240851Y0066957D01*
X0240966Y0066853D01*
X0241078Y0066747D01*
X0241187Y0066638D01*
X0241293Y0066526D01*
X0241397Y0066411D01*
X0241497Y0066294D01*
X0241595Y0066174D01*
X0241689Y0066051D01*
X0241780Y0065927D01*
X0241868Y0065799D01*
X0241953Y0065670D01*
X0242034Y0065539D01*
X0242112Y0065405D01*
X0242186Y0065270D01*
X0242257Y0065133D01*
X0242324Y0064993D01*
X0242388Y0064853D01*
X0242448Y0064710D01*
X0242504Y0064567D01*
X0242557Y0064421D01*
X0242606Y0064275D01*
X0242651Y0064127D01*
X0242692Y0063978D01*
X0242730Y0063828D01*
X0242763Y0063677D01*
X0242793Y0063526D01*
X0242819Y0063373D01*
X0242840Y0063220D01*
X0242858Y0063067D01*
X0242872Y0062913D01*
X0242882Y0062759D01*
X0242888Y0062604D01*
X0242890Y0062450D01*
X0242888Y0062296D01*
X0242882Y0062141D01*
X0242872Y0061987D01*
X0242858Y0061833D01*
X0242840Y0061680D01*
X0242819Y0061527D01*
X0242793Y0061374D01*
X0242763Y0061223D01*
X0242730Y0061072D01*
X0242692Y0060922D01*
X0242651Y0060773D01*
X0242606Y0060625D01*
X0242557Y0060479D01*
X0242504Y0060333D01*
X0242448Y0060190D01*
X0242388Y0060047D01*
X0242324Y0059907D01*
X0242257Y0059767D01*
X0242186Y0059630D01*
X0242112Y0059495D01*
X0242034Y0059361D01*
X0241953Y0059230D01*
X0241868Y0059101D01*
X0241780Y0058973D01*
X0241689Y0058849D01*
X0241595Y0058726D01*
X0241497Y0058606D01*
X0241397Y0058489D01*
X0241293Y0058374D01*
X0241187Y0058262D01*
X0241078Y0058153D01*
X0240966Y0058047D01*
X0240851Y0057943D01*
X0240734Y0057843D01*
X0240614Y0057745D01*
X0240491Y0057651D01*
X0240367Y0057560D01*
X0240239Y0057472D01*
X0240110Y0057387D01*
X0239979Y0057306D01*
X0239845Y0057228D01*
X0239710Y0057154D01*
X0239573Y0057083D01*
X0239433Y0057016D01*
X0239293Y0056952D01*
X0239150Y0056892D01*
X0239007Y0056836D01*
X0238861Y0056783D01*
X0238715Y0056734D01*
X0238567Y0056689D01*
X0238418Y0056648D01*
X0238268Y0056610D01*
X0238117Y0056577D01*
X0237966Y0056547D01*
X0237813Y0056521D01*
X0237660Y0056500D01*
X0237507Y0056482D01*
X0237353Y0056468D01*
X0237199Y0056458D01*
X0237044Y0056452D01*
X0236890Y0056450D01*
X0236736Y0056452D01*
X0236581Y0056458D01*
X0236427Y0056468D01*
X0236273Y0056482D01*
X0236120Y0056500D01*
X0235967Y0056521D01*
X0235814Y0056547D01*
X0235663Y0056577D01*
X0235512Y0056610D01*
X0235362Y0056648D01*
X0235213Y0056689D01*
X0235065Y0056734D01*
X0234919Y0056783D01*
X0234773Y0056836D01*
X0234630Y0056892D01*
X0234487Y0056952D01*
X0234347Y0057016D01*
X0234207Y0057083D01*
X0234070Y0057154D01*
X0233935Y0057228D01*
X0233801Y0057306D01*
X0233670Y0057387D01*
X0233541Y0057472D01*
X0233413Y0057560D01*
X0233289Y0057651D01*
X0233166Y0057745D01*
X0233046Y0057843D01*
X0232929Y0057943D01*
X0232814Y0058047D01*
X0232702Y0058153D01*
X0232593Y0058262D01*
X0232487Y0058374D01*
X0232383Y0058489D01*
X0232283Y0058606D01*
X0232185Y0058726D01*
X0232091Y0058849D01*
X0232000Y0058973D01*
X0231912Y0059101D01*
X0231827Y0059230D01*
X0231746Y0059361D01*
X0231668Y0059495D01*
X0231594Y0059630D01*
X0231523Y0059767D01*
X0231456Y0059907D01*
X0231392Y0060047D01*
X0231332Y0060190D01*
X0231276Y0060333D01*
X0231223Y0060479D01*
X0231174Y0060625D01*
X0231129Y0060773D01*
X0231088Y0060922D01*
X0231050Y0061072D01*
X0231017Y0061223D01*
X0230987Y0061374D01*
X0230961Y0061527D01*
X0230940Y0061680D01*
X0230922Y0061833D01*
X0230908Y0061987D01*
X0230898Y0062141D01*
X0230892Y0062296D01*
X0230890Y0062450D01*
D11*
X0268150Y0205897D02*
X0269150Y0206897D01*
X0269150Y0224647D01*
X0268900Y0224897D01*
X0269400Y0231147D02*
X0263400Y0237147D01*
X0253400Y0237147D01*
X0253900Y0223647D02*
X0254400Y0223647D01*
D12*
X0189467Y0172544D03*
X0182774Y0172544D03*
X0153250Y0170426D03*
X0146557Y0170426D03*
X0140369Y0170682D03*
X0133676Y0170682D03*
X0133676Y0179745D03*
X0140369Y0179745D03*
X0146680Y0179895D03*
X0153372Y0179895D03*
X0140274Y0161304D03*
X0133581Y0161304D03*
X0182274Y0139170D03*
X0188967Y0139170D03*
X0163085Y0273584D03*
X0156392Y0273584D03*
X0173892Y0288584D03*
X0180585Y0288584D03*
D13*
X0176077Y0273584D03*
X0193400Y0273584D03*
D14*
X0171339Y0262284D03*
X0162239Y0262284D03*
X0153139Y0262284D03*
D15*
X0162239Y0237883D03*
D16*
X0181266Y0165025D03*
X0190715Y0165025D03*
X0190715Y0147702D03*
X0181266Y0147702D03*
D17*
X0254026Y0223509D03*
X0254026Y0237289D03*
D18*
X0203333Y0155159D02*
X0199365Y0155159D01*
X0199365Y0150237D02*
X0203333Y0150237D01*
X0203333Y0145316D02*
X0199365Y0145316D01*
X0199365Y0140395D02*
X0203333Y0140395D01*
X0122853Y0207478D02*
X0122853Y0211446D01*
X0117931Y0211446D02*
X0117931Y0207478D01*
X0113010Y0207478D02*
X0113010Y0211446D01*
X0108089Y0211446D02*
X0108089Y0207478D01*
X0027900Y0111859D02*
X0023931Y0111859D01*
X0023931Y0106938D02*
X0027900Y0106938D01*
X0027900Y0102017D02*
X0023931Y0102017D01*
X0023931Y0097096D02*
X0027900Y0097096D01*
X0027900Y0092174D02*
X0023931Y0092174D01*
D19*
X0147239Y0286084D03*
X0162239Y0286084D03*
X0253223Y0202194D03*
X0268223Y0202194D03*
D20*
X0030337Y0196348D03*
X0030337Y0210127D03*
X0030337Y0223907D03*
X0030337Y0237686D03*
D21*
X0269124Y0231143D03*
X0269124Y0224844D03*
D22*
X0026920Y0168670D03*
X0026920Y0164340D03*
X0026920Y0160009D03*
X0026920Y0155678D03*
X0026920Y0151348D03*
X0026920Y0147017D03*
X0026920Y0142686D03*
X0026920Y0138356D03*
D23*
X0029400Y0185147D03*
D24*
X0074006Y0185186D03*
D25*
X0077136Y0168434D03*
X0077136Y0137804D03*
D26*
X0072707Y0129930D03*
D27*
X0037274Y0129930D03*
D28*
X0028809Y0129123D03*
D29*
X0084054Y0137647D03*
X0090746Y0137647D03*
X0090746Y0145647D03*
X0084054Y0145647D03*
X0084054Y0153647D03*
X0090746Y0153647D03*
X0090746Y0161647D03*
X0084054Y0161647D03*
X0084054Y0169647D03*
X0090746Y0169647D03*
D30*
X0090845Y0177647D03*
X0083955Y0177647D03*
D31*
X0072994Y0120147D03*
X0072994Y0115147D03*
X0072994Y0110147D03*
X0072994Y0105147D03*
X0072994Y0100147D03*
X0072994Y0095147D03*
X0072994Y0090147D03*
X0072994Y0085147D03*
X0039806Y0085147D03*
X0039806Y0090147D03*
X0039806Y0095147D03*
X0039806Y0100147D03*
X0039806Y0105147D03*
X0039806Y0110147D03*
X0039806Y0115147D03*
X0039806Y0120147D03*
D32*
X0245400Y0134269D03*
X0245400Y0094899D03*
D33*
X0209690Y0068050D03*
X0204240Y0056850D03*
X0198790Y0068050D03*
X0193340Y0056850D03*
X0182440Y0056850D03*
X0187890Y0068050D03*
X0176990Y0068050D03*
X0171540Y0056850D03*
X0166090Y0068050D03*
X0160640Y0056850D03*
X0149740Y0056850D03*
X0155190Y0068050D03*
X0144290Y0068050D03*
X0138840Y0056850D03*
X0133390Y0068050D03*
X0127940Y0056850D03*
X0117040Y0056850D03*
X0122490Y0068050D03*
X0111590Y0068050D03*
X0106140Y0056850D03*
X0100690Y0068050D03*
X0089790Y0068050D03*
X0095240Y0056850D03*
X0084340Y0056850D03*
X0078890Y0068050D03*
D34*
X0051690Y0062450D03*
X0236890Y0062450D03*
D35*
X0262400Y0057332D03*
X0144290Y0210875D03*
X0217124Y0257111D03*
X0071455Y0258111D03*
X0026180Y0057332D03*
M02*
