G75*
%MOIN*%
%OFA0B0*%
%FSLAX25Y25*%
%IPPOS*%
%LPD*%
%AMOC8*
5,1,8,0,0,1.08239X$1,22.5*
%
%ADD10C,0.00000*%
%ADD11C,0.05000*%
%ADD12C,0.05500*%
%ADD13R,0.04737X0.05131*%
%ADD14R,0.05131X0.04737*%
%ADD15R,0.07099X0.12611*%
%ADD16R,0.09600X0.05600*%
%ADD17R,0.09461X0.14973*%
%ADD18R,0.03950X0.03950*%
%ADD19R,0.04343X0.04737*%
%ADD20R,0.07493X0.02965*%
%ADD21R,0.07493X0.04146*%
%ADD22R,0.05131X0.03162*%
%ADD23C,0.10800*%
%ADD24R,0.03000X0.08600*%
%ADD25R,0.08600X0.03000*%
%ADD26R,0.06706X0.01981*%
%ADD27R,0.01981X0.06706*%
%ADD28R,0.01780X0.00414*%
%ADD29R,0.00414X0.01790*%
%ADD30R,0.01796X0.00398*%
%ADD31R,0.00404X0.01778*%
%ADD32R,0.00413X0.01781*%
%ADD33R,0.01799X0.00425*%
%ADD34R,0.00409X0.01784*%
%ADD35R,0.01778X0.00402*%
%ADD36R,0.01784X0.02749*%
%ADD37R,0.01745X0.03162*%
%ADD38R,0.02749X0.01784*%
%ADD39R,0.03162X0.01745*%
%ADD40C,0.04769*%
%ADD41OC8,0.06800*%
%ADD42C,0.20800*%
%ADD43R,0.06706X0.05918*%
%ADD44R,0.10800X0.06800*%
%ADD45C,0.09400*%
%ADD46R,0.04737X0.06312*%
%ADD47R,0.03950X0.04343*%
%ADD48C,0.17005*%
D10*
X0006969Y0009400D02*
X0008937Y0308613D01*
X0237283Y0308613D01*
X0239252Y0009400D01*
X0006969Y0009400D01*
D11*
X0167500Y0039400D02*
X0168000Y0039400D01*
D12*
X0180185Y0039900D02*
X0188185Y0047900D01*
X0230685Y0047900D01*
X0230185Y0047400D01*
X0180185Y0039900D02*
X0146685Y0039900D01*
D13*
X0133874Y0063554D03*
X0133874Y0070246D03*
X0138000Y0083554D03*
X0138000Y0090246D03*
X0112252Y0106054D03*
X0112252Y0112746D03*
G36*
X0085031Y0086819D02*
X0087399Y0090920D01*
X0091841Y0088355D01*
X0089473Y0084254D01*
X0085031Y0086819D01*
G37*
G36*
X0081685Y0081023D02*
X0084053Y0085124D01*
X0088495Y0082559D01*
X0086127Y0078458D01*
X0081685Y0081023D01*
G37*
X0076598Y0079813D03*
X0076598Y0086506D03*
X0076232Y0069152D03*
X0076232Y0062459D03*
X0104374Y0063554D03*
X0104374Y0070246D03*
X0067004Y0127522D03*
X0067004Y0134215D03*
X0057539Y0134396D03*
X0057539Y0127703D03*
X0048555Y0112589D03*
X0048555Y0105896D03*
X0123870Y0198491D03*
X0123870Y0205183D03*
X0136913Y0185900D03*
X0143606Y0185900D03*
X0137622Y0156498D03*
X0137622Y0149806D03*
X0181000Y0188369D03*
X0181000Y0195061D03*
X0200500Y0206869D03*
X0200500Y0213561D03*
X0206500Y0190498D03*
X0206500Y0183806D03*
X0213500Y0164998D03*
X0213500Y0158306D03*
X0207311Y0105727D03*
X0200618Y0105727D03*
X0192752Y0106215D03*
X0186059Y0106215D03*
X0224165Y0101628D03*
X0230858Y0101628D03*
X0186693Y0247471D03*
X0180000Y0247471D03*
X0180000Y0261408D03*
X0186693Y0261408D03*
D14*
X0184669Y0287187D03*
X0191362Y0287187D03*
X0085075Y0181002D03*
X0085075Y0174309D03*
X0068067Y0174097D03*
X0061374Y0174097D03*
X0061248Y0185030D03*
X0067941Y0185030D03*
X0121937Y0112746D03*
X0121937Y0106054D03*
X0122720Y0077400D03*
X0124374Y0070246D03*
X0124374Y0063554D03*
X0116028Y0077400D03*
X0113874Y0070246D03*
X0113874Y0063554D03*
X0096185Y0063554D03*
X0096185Y0070246D03*
X0086685Y0070246D03*
X0086685Y0063554D03*
X0059941Y0089239D03*
X0053248Y0089239D03*
X0148169Y0082113D03*
X0148169Y0075420D03*
X0157571Y0075538D03*
X0157571Y0082231D03*
X0165756Y0082046D03*
X0165756Y0075353D03*
X0176228Y0070176D03*
X0176228Y0063483D03*
X0185602Y0063609D03*
X0185602Y0070302D03*
X0193913Y0070302D03*
X0193913Y0063609D03*
X0202508Y0077416D03*
X0202508Y0084109D03*
X0193268Y0092254D03*
X0193268Y0098947D03*
X0184185Y0099246D03*
X0184185Y0092554D03*
X0207252Y0069849D03*
X0207252Y0063156D03*
X0216217Y0062935D03*
X0216217Y0069628D03*
X0216665Y0093254D03*
X0216665Y0099947D03*
D15*
X0222500Y0180491D03*
X0222500Y0197813D03*
X0185500Y0210554D03*
X0185500Y0227876D03*
D16*
X0170700Y0206815D03*
X0170700Y0197715D03*
X0170700Y0188615D03*
X0204700Y0175252D03*
X0204700Y0166152D03*
X0204700Y0157052D03*
D17*
X0180299Y0166152D03*
X0146299Y0197715D03*
D18*
X0128213Y0185900D03*
X0122307Y0185900D03*
X0195394Y0247471D03*
X0201299Y0247471D03*
X0200850Y0261231D03*
X0194945Y0261231D03*
X0200685Y0069853D03*
X0200685Y0063947D03*
X0223185Y0063447D03*
X0223185Y0069353D03*
X0166327Y0068924D03*
X0166327Y0063018D03*
X0157138Y0063018D03*
X0157138Y0068924D03*
X0147953Y0069239D03*
X0147953Y0063333D03*
D19*
X0116315Y0199754D03*
X0116315Y0206054D03*
X0100173Y0206054D03*
X0100173Y0199754D03*
X0180945Y0272538D03*
X0180945Y0278837D03*
X0197087Y0278837D03*
X0197087Y0272538D03*
D20*
X0189016Y0270077D03*
X0108244Y0197294D03*
D21*
X0082406Y0223152D03*
X0070594Y0231026D03*
X0070594Y0246774D03*
X0082406Y0238900D03*
X0082406Y0254648D03*
X0070594Y0262522D03*
X0082406Y0270396D03*
X0082406Y0286144D03*
X0070594Y0278270D03*
X0070594Y0294018D03*
X0157209Y0294018D03*
X0169020Y0286144D03*
X0169020Y0270396D03*
X0157209Y0262522D03*
X0169020Y0254648D03*
X0157209Y0246774D03*
X0157209Y0231026D03*
X0169020Y0238900D03*
X0169020Y0223152D03*
X0157209Y0278270D03*
D22*
X0065205Y0116664D03*
X0065205Y0111743D03*
X0065205Y0106821D03*
X0065205Y0101900D03*
X0056543Y0101900D03*
X0056543Y0106821D03*
X0056543Y0111743D03*
X0056543Y0116664D03*
D23*
X0218311Y0233262D03*
X0218311Y0247042D03*
D24*
X0090756Y0146486D03*
X0085756Y0146486D03*
X0080756Y0146486D03*
X0075756Y0146486D03*
X0075756Y0127086D03*
X0080756Y0127086D03*
X0085756Y0127086D03*
X0090756Y0127086D03*
D25*
X0106800Y0099400D03*
X0106800Y0094400D03*
X0106800Y0089400D03*
X0106800Y0084400D03*
X0126200Y0084400D03*
X0126200Y0089400D03*
X0126200Y0094400D03*
X0126200Y0099400D03*
D26*
X0138335Y0115821D03*
X0138335Y0117790D03*
X0138335Y0119758D03*
X0138335Y0121727D03*
X0138335Y0123695D03*
X0138335Y0125664D03*
X0138335Y0127632D03*
X0138335Y0129601D03*
X0138335Y0131569D03*
X0138335Y0133538D03*
X0138335Y0135506D03*
X0138335Y0137475D03*
X0138335Y0139443D03*
X0138335Y0141412D03*
X0138335Y0143380D03*
X0138335Y0145349D03*
X0183217Y0145349D03*
X0183217Y0143380D03*
X0183217Y0141412D03*
X0183217Y0139443D03*
X0183217Y0137475D03*
X0183217Y0135506D03*
X0183217Y0133538D03*
X0183217Y0131569D03*
X0183217Y0129601D03*
X0183217Y0127632D03*
X0183217Y0125664D03*
X0183217Y0123695D03*
X0183217Y0121727D03*
X0183217Y0119758D03*
X0183217Y0117790D03*
X0183217Y0115821D03*
D27*
X0175539Y0108144D03*
X0173571Y0108144D03*
X0171602Y0108144D03*
X0169634Y0108144D03*
X0167665Y0108144D03*
X0165697Y0108144D03*
X0163728Y0108144D03*
X0161760Y0108144D03*
X0159791Y0108144D03*
X0157823Y0108144D03*
X0155854Y0108144D03*
X0153886Y0108144D03*
X0151917Y0108144D03*
X0149949Y0108144D03*
X0147980Y0108144D03*
X0146012Y0108144D03*
X0146012Y0153026D03*
X0147980Y0153026D03*
X0149949Y0153026D03*
X0151917Y0153026D03*
X0153886Y0153026D03*
X0155854Y0153026D03*
X0157823Y0153026D03*
X0159791Y0153026D03*
X0161760Y0153026D03*
X0163728Y0153026D03*
X0165697Y0153026D03*
X0167665Y0153026D03*
X0169634Y0153026D03*
X0171602Y0153026D03*
X0173571Y0153026D03*
X0175539Y0153026D03*
D28*
X0052599Y0069063D03*
D29*
X0061070Y0069659D03*
D30*
X0060477Y0078134D03*
D31*
X0052001Y0077535D03*
D32*
X0052002Y0069660D03*
D33*
X0060478Y0069058D03*
D34*
X0061067Y0077532D03*
D35*
X0052598Y0078132D03*
D36*
X0052598Y0079709D03*
X0060472Y0079709D03*
X0060472Y0067485D03*
X0052598Y0067485D03*
D37*
X0054173Y0067691D03*
X0055748Y0067691D03*
X0057323Y0067691D03*
X0058898Y0067691D03*
X0058898Y0079502D03*
X0057323Y0079502D03*
X0055748Y0079502D03*
X0054173Y0079502D03*
D38*
X0050423Y0077534D03*
X0050423Y0069660D03*
X0062648Y0069660D03*
X0062648Y0077534D03*
D39*
X0062441Y0075959D03*
X0062441Y0074384D03*
X0062441Y0072809D03*
X0062441Y0071235D03*
X0050630Y0071235D03*
X0050630Y0072809D03*
X0050630Y0074384D03*
X0050630Y0075959D03*
D40*
X0032047Y0077207D02*
X0028079Y0077207D01*
X0028079Y0072286D02*
X0032047Y0072286D01*
X0032047Y0067365D02*
X0028079Y0067365D01*
X0027984Y0053896D02*
X0031953Y0053896D01*
X0031953Y0048975D02*
X0027984Y0048975D01*
X0027984Y0044054D02*
X0031953Y0044054D01*
X0031953Y0039132D02*
X0027984Y0039132D01*
X0028079Y0082128D02*
X0032047Y0082128D01*
X0032154Y0096187D02*
X0028185Y0096187D01*
X0028185Y0101109D02*
X0032154Y0101109D01*
X0032154Y0106030D02*
X0028185Y0106030D01*
X0028185Y0110951D02*
X0032154Y0110951D01*
X0032154Y0115872D02*
X0028185Y0115872D01*
X0054886Y0196089D02*
X0058854Y0196089D01*
X0058854Y0201010D02*
X0054886Y0201010D01*
X0054886Y0205931D02*
X0058854Y0205931D01*
X0058854Y0210853D02*
X0054886Y0210853D01*
X0210650Y0144912D02*
X0214618Y0144912D01*
X0214618Y0139991D02*
X0210650Y0139991D01*
X0210650Y0135069D02*
X0214618Y0135069D01*
X0214618Y0130148D02*
X0210650Y0130148D01*
D41*
X0168300Y0040000D03*
X0157500Y0040000D03*
X0146700Y0040000D03*
X0141300Y0028800D03*
X0130500Y0028800D03*
X0119700Y0028800D03*
X0114300Y0040000D03*
X0125100Y0040000D03*
X0135900Y0040000D03*
X0152100Y0028800D03*
X0162900Y0028800D03*
X0108900Y0028800D03*
X0098100Y0028800D03*
X0092700Y0040000D03*
X0103500Y0040000D03*
D42*
X0064900Y0034400D03*
X0196100Y0034400D03*
D43*
X0097500Y0088160D03*
X0097500Y0095640D03*
D44*
X0193500Y0183652D03*
X0193500Y0198652D03*
X0225000Y0170652D03*
X0225000Y0155652D03*
D45*
X0028622Y0153101D03*
X0028622Y0166880D03*
X0028622Y0180660D03*
X0028622Y0194439D03*
D46*
X0186299Y0076935D03*
X0193780Y0076935D03*
X0190039Y0085597D03*
X0210228Y0077412D03*
X0217709Y0077412D03*
X0213969Y0086073D03*
X0219685Y0108069D03*
X0215945Y0116731D03*
X0223425Y0116731D03*
D47*
X0207280Y0099014D03*
X0199799Y0099014D03*
X0203539Y0090746D03*
D48*
X0225000Y0021900D03*
X0025374Y0021900D03*
X0025374Y0297845D03*
X0225000Y0297845D03*
M02*
