G75*
%MOIN*%
%OFA0B0*%
%FSLAX25Y25*%
%IPPOS*%
%LPD*%
%AMOC8*
5,1,8,0,0,1.08239X$1,22.5*
%
%ADD10C,0.00000*%
%ADD11R,0.04331X0.03937*%
%ADD12R,0.11811X0.06299*%
%ADD13R,0.04800X0.08800*%
%ADD14R,0.14173X0.08661*%
%ADD15R,0.05512X0.07480*%
%ADD16R,0.06000X0.10000*%
%ADD17R,0.03150X0.02362*%
%ADD18R,0.04882X0.03150*%
%ADD19R,0.09843X0.04528*%
%ADD20R,0.08661X0.04528*%
%ADD21R,0.04528X0.05906*%
%ADD22R,0.04724X0.04567*%
%ADD23R,0.04921X0.04567*%
%ADD24R,0.08661X0.04409*%
D10*
X0005969Y0001000D02*
X0007937Y0312024D01*
X0236283Y0312024D01*
X0238252Y0001000D01*
X0005969Y0001000D01*
D11*
X0151866Y0128469D03*
X0151961Y0137846D03*
X0158654Y0137846D03*
X0164843Y0137591D03*
X0164894Y0128346D03*
X0158559Y0128469D03*
X0171587Y0128346D03*
X0171535Y0137591D03*
X0171657Y0147059D03*
X0164965Y0147059D03*
X0158654Y0146909D03*
X0151961Y0146909D03*
X0189559Y0118335D03*
X0196252Y0118335D03*
X0194059Y0149709D03*
X0200752Y0149709D03*
X0135870Y0241748D03*
X0129177Y0241748D03*
X0118370Y0226748D03*
X0111677Y0226748D03*
D12*
X0131362Y0226748D03*
X0148685Y0226748D03*
D13*
X0126624Y0215448D03*
X0117524Y0215448D03*
X0108424Y0215448D03*
D14*
X0117524Y0191047D03*
D15*
X0192551Y0142189D03*
X0202000Y0142189D03*
X0202000Y0124866D03*
X0192551Y0124866D03*
D16*
X0213508Y0216358D03*
X0228508Y0216358D03*
X0117524Y0239248D03*
X0102524Y0239248D03*
D17*
X0228409Y0238008D03*
X0228409Y0244307D03*
D18*
X0025205Y0169835D03*
X0025205Y0165504D03*
X0025205Y0161173D03*
X0025205Y0156843D03*
X0025205Y0152512D03*
X0025205Y0148181D03*
X0025205Y0143850D03*
X0025205Y0139520D03*
D19*
X0027685Y0186311D03*
D20*
X0072291Y0186350D03*
D21*
X0075421Y0169598D03*
X0075421Y0138969D03*
D22*
X0070992Y0131094D03*
D23*
X0035559Y0131094D03*
D24*
X0027094Y0130287D03*
M02*
