G75*
%MOIN*%
%OFA0B0*%
%FSLAX25Y25*%
%IPPOS*%
%LPD*%
%AMOC8*
5,1,8,0,0,1.08239X$1,22.5*
%
%ADD10C,0.00000*%
%ADD11C,0.05500*%
%ADD12C,0.05000*%
%ADD13R,0.05131X0.04737*%
%ADD14R,0.12611X0.07099*%
%ADD15R,0.05600X0.09600*%
%ADD16R,0.14973X0.09461*%
%ADD17R,0.06312X0.08280*%
%ADD18C,0.10800*%
%ADD19C,0.04769*%
%ADD20OC8,0.06800*%
%ADD21C,0.20800*%
%ADD22R,0.06800X0.10800*%
%ADD23C,0.09400*%
%ADD24R,0.03950X0.03162*%
%ADD25R,0.05682X0.03950*%
%ADD26R,0.10643X0.05328*%
%ADD27R,0.09461X0.05328*%
%ADD28R,0.05328X0.06706*%
%ADD29R,0.05524X0.05367*%
%ADD30R,0.05721X0.05367*%
%ADD31R,0.09461X0.05209*%
%ADD32C,0.17005*%
D10*
X0005969Y0001000D02*
X0007937Y0312024D01*
X0236283Y0312024D01*
X0238252Y0001000D01*
X0005969Y0001000D01*
D11*
X0128435Y0009811D02*
X0129935Y0008311D01*
X0128435Y0009811D02*
X0128435Y0026061D01*
X0133685Y0036811D02*
X0139685Y0030811D01*
X0139685Y0025811D01*
X0174685Y0008811D02*
X0174685Y0056811D01*
X0198185Y0056811D02*
X0198185Y0093061D01*
X0198435Y0093311D01*
X0229685Y0046311D02*
X0229685Y0214311D01*
X0228185Y0214311D01*
X0228185Y0236811D01*
X0228685Y0237811D01*
X0228685Y0244311D02*
X0223185Y0244311D01*
X0217185Y0250311D01*
X0217185Y0236811D02*
X0217685Y0236811D01*
X0217185Y0236811D02*
X0213685Y0233311D01*
X0213685Y0216311D01*
X0222685Y0207311D01*
X0222685Y0042811D01*
D12*
X0223185Y0043311D02*
X0210685Y0030811D01*
X0210685Y0016811D01*
D13*
X0196252Y0118335D03*
X0189559Y0118335D03*
X0171587Y0128346D03*
X0171535Y0137591D03*
X0164843Y0137591D03*
X0158654Y0137846D03*
X0158559Y0128469D03*
X0164894Y0128346D03*
X0151866Y0128469D03*
X0151961Y0137846D03*
X0151961Y0146909D03*
X0158654Y0146909D03*
X0164965Y0147059D03*
X0171657Y0147059D03*
X0194059Y0149709D03*
X0200752Y0149709D03*
X0135870Y0241748D03*
X0129177Y0241748D03*
X0118370Y0226748D03*
X0111677Y0226748D03*
D14*
X0131362Y0226748D03*
X0148685Y0226748D03*
D15*
X0126624Y0215448D03*
X0117524Y0215448D03*
X0108424Y0215448D03*
D16*
X0117524Y0191047D03*
D17*
X0192551Y0142189D03*
X0202000Y0142189D03*
X0202000Y0124866D03*
X0192551Y0124866D03*
D18*
X0217311Y0236673D03*
X0217311Y0250453D03*
D19*
X0213618Y0148323D02*
X0209650Y0148323D01*
X0209650Y0143402D02*
X0213618Y0143402D01*
X0213618Y0138480D02*
X0209650Y0138480D01*
X0209650Y0133559D02*
X0213618Y0133559D01*
X0057854Y0199500D02*
X0053886Y0199500D01*
X0053886Y0204421D02*
X0057854Y0204421D01*
X0057854Y0209343D02*
X0053886Y0209343D01*
X0053886Y0214264D02*
X0057854Y0214264D01*
X0031154Y0119283D02*
X0027185Y0119283D01*
X0027185Y0114362D02*
X0031154Y0114362D01*
X0031154Y0109441D02*
X0027185Y0109441D01*
X0027185Y0104520D02*
X0031154Y0104520D01*
X0031154Y0099598D02*
X0027185Y0099598D01*
X0027079Y0085539D02*
X0031047Y0085539D01*
X0031047Y0080618D02*
X0027079Y0080618D01*
X0027079Y0075697D02*
X0031047Y0075697D01*
X0031047Y0070776D02*
X0027079Y0070776D01*
X0026984Y0057307D02*
X0030953Y0057307D01*
X0030953Y0052386D02*
X0026984Y0052386D01*
X0026984Y0047465D02*
X0030953Y0047465D01*
X0030953Y0042543D02*
X0026984Y0042543D01*
D20*
X0090700Y0037411D03*
X0096100Y0026211D03*
X0101500Y0037411D03*
X0112300Y0037411D03*
X0123100Y0037411D03*
X0117700Y0026211D03*
X0106900Y0026211D03*
X0128500Y0026211D03*
X0139300Y0026211D03*
X0150100Y0026211D03*
X0144700Y0037411D03*
X0133900Y0037411D03*
X0155500Y0037411D03*
X0160900Y0026211D03*
X0166300Y0037411D03*
D21*
X0194100Y0031811D03*
X0062900Y0031811D03*
D22*
X0213508Y0216358D03*
X0228508Y0216358D03*
X0117524Y0239248D03*
X0102524Y0239248D03*
D23*
X0028622Y0241850D03*
X0028622Y0228071D03*
X0028622Y0214291D03*
X0028622Y0200512D03*
D24*
X0228409Y0238008D03*
X0228409Y0244307D03*
D25*
X0025205Y0169835D03*
X0025205Y0165504D03*
X0025205Y0161173D03*
X0025205Y0156843D03*
X0025205Y0152512D03*
X0025205Y0148181D03*
X0025205Y0143850D03*
X0025205Y0139520D03*
D26*
X0027685Y0186311D03*
D27*
X0072291Y0186350D03*
D28*
X0075421Y0169598D03*
X0075421Y0138969D03*
D29*
X0070992Y0131094D03*
D30*
X0035559Y0131094D03*
D31*
X0027094Y0130287D03*
D32*
X0023685Y0014780D03*
X0224472Y0014780D03*
X0224472Y0296276D03*
X0023685Y0296276D03*
M02*
