G75*
%MOIN*%
%OFA0B0*%
%FSLAX25Y25*%
%IPPOS*%
%LPD*%
%AMOC8*
5,1,8,0,0,1.08239X$1,22.5*
%
%ADD10C,0.00000*%
%ADD11C,0.05500*%
%ADD12R,0.05131X0.04737*%
%ADD13R,0.12611X0.07099*%
%ADD14R,0.05600X0.09600*%
%ADD15R,0.14973X0.09461*%
%ADD16R,0.08674X0.03556*%
%ADD17R,0.11036X0.04737*%
%ADD18R,0.06312X0.11430*%
%ADD19R,0.05524X0.05524*%
%ADD20R,0.11036X0.06706*%
%ADD21R,0.06312X0.08280*%
%ADD22C,0.10800*%
%ADD23C,0.04769*%
%ADD24OC8,0.06800*%
%ADD25C,0.20800*%
%ADD26R,0.06800X0.10800*%
%ADD27C,0.09400*%
%ADD28R,0.03950X0.03162*%
%ADD29C,0.17005*%
D10*
X0006969Y0009400D02*
X0008937Y0308613D01*
X0237283Y0308613D01*
X0239252Y0009400D01*
X0006969Y0009400D01*
D11*
X0152185Y0028900D02*
X0171185Y0028900D01*
X0179685Y0020400D01*
X0180185Y0020400D02*
X0203685Y0020400D01*
X0204185Y0019900D02*
X0223685Y0039400D01*
X0223685Y0203900D01*
X0214685Y0212900D01*
X0214685Y0229900D01*
X0218185Y0233400D01*
X0218685Y0233400D01*
X0224185Y0240900D02*
X0229685Y0240900D01*
X0224185Y0240900D02*
X0218185Y0246900D01*
X0229685Y0234400D02*
X0229185Y0233400D01*
X0229185Y0210900D01*
X0230685Y0210900D01*
X0230685Y0046900D01*
D12*
X0197252Y0114924D03*
X0190559Y0114924D03*
X0172587Y0124935D03*
X0165894Y0124935D03*
X0159559Y0125057D03*
X0152866Y0125057D03*
X0152961Y0134435D03*
X0159654Y0134435D03*
X0165843Y0134180D03*
X0172535Y0134180D03*
X0172657Y0143648D03*
X0165965Y0143648D03*
X0159654Y0143498D03*
X0152961Y0143498D03*
X0195059Y0146298D03*
X0201752Y0146298D03*
X0136870Y0238337D03*
X0130177Y0238337D03*
X0119370Y0223337D03*
X0112677Y0223337D03*
D13*
X0132362Y0223337D03*
X0149685Y0223337D03*
D14*
X0127624Y0212037D03*
X0118524Y0212037D03*
X0109424Y0212037D03*
D15*
X0118524Y0187636D03*
D16*
X0107591Y0167715D03*
X0107591Y0163384D03*
X0107591Y0159054D03*
X0107591Y0154723D03*
X0107591Y0150392D03*
X0107591Y0146061D03*
X0107591Y0141731D03*
X0107591Y0137400D03*
D17*
X0105622Y0175983D03*
D18*
X0057091Y0162203D03*
X0057091Y0142912D03*
D19*
X0056697Y0130904D03*
D20*
X0105622Y0123424D03*
D21*
X0193551Y0121455D03*
X0203000Y0121455D03*
X0203000Y0138778D03*
X0193551Y0138778D03*
D22*
X0218311Y0233262D03*
X0218311Y0247042D03*
D23*
X0214618Y0144912D02*
X0210650Y0144912D01*
X0210650Y0139991D02*
X0214618Y0139991D01*
X0214618Y0135069D02*
X0210650Y0135069D01*
X0210650Y0130148D02*
X0214618Y0130148D01*
X0058854Y0196089D02*
X0054886Y0196089D01*
X0054886Y0201010D02*
X0058854Y0201010D01*
X0058854Y0205931D02*
X0054886Y0205931D01*
X0054886Y0210853D02*
X0058854Y0210853D01*
X0032154Y0115872D02*
X0028185Y0115872D01*
X0028185Y0110951D02*
X0032154Y0110951D01*
X0032154Y0106030D02*
X0028185Y0106030D01*
X0028185Y0101109D02*
X0032154Y0101109D01*
X0032154Y0096187D02*
X0028185Y0096187D01*
X0028079Y0082128D02*
X0032047Y0082128D01*
X0032047Y0077207D02*
X0028079Y0077207D01*
X0028079Y0072286D02*
X0032047Y0072286D01*
X0032047Y0067365D02*
X0028079Y0067365D01*
X0027984Y0053896D02*
X0031953Y0053896D01*
X0031953Y0048975D02*
X0027984Y0048975D01*
X0027984Y0044054D02*
X0031953Y0044054D01*
X0031953Y0039132D02*
X0027984Y0039132D01*
D24*
X0092700Y0040000D03*
X0103500Y0040000D03*
X0098100Y0028800D03*
X0108900Y0028800D03*
X0114300Y0040000D03*
X0125100Y0040000D03*
X0135900Y0040000D03*
X0130500Y0028800D03*
X0119700Y0028800D03*
X0141300Y0028800D03*
X0146700Y0040000D03*
X0157500Y0040000D03*
X0168300Y0040000D03*
X0162900Y0028800D03*
X0152100Y0028800D03*
D25*
X0196100Y0034400D03*
X0064900Y0034400D03*
D26*
X0214508Y0212947D03*
X0229508Y0212947D03*
X0118524Y0235837D03*
X0103524Y0235837D03*
D27*
X0028622Y0194439D03*
X0028622Y0180660D03*
X0028622Y0166880D03*
X0028622Y0153101D03*
D28*
X0229409Y0234597D03*
X0229409Y0240896D03*
D29*
X0225000Y0297845D03*
X0025374Y0297845D03*
X0025374Y0021900D03*
X0225000Y0021900D03*
M02*
