G75*
%MOIN*%
%OFA0B0*%
%FSLAX25Y25*%
%IPPOS*%
%LPD*%
%AMOC8*
5,1,8,0,0,1.08239X$1,22.5*
%
%ADD10C,0.00000*%
%ADD11R,0.03937X0.04331*%
%ADD12R,0.06299X0.11811*%
%ADD13R,0.04331X0.03937*%
%ADD14R,0.08800X0.04800*%
%ADD15R,0.08661X0.14173*%
%ADD16R,0.03150X0.03150*%
%ADD17R,0.03543X0.03937*%
%ADD18R,0.06693X0.02165*%
%ADD19R,0.03937X0.03543*%
%ADD20R,0.02165X0.06693*%
%ADD21R,0.06693X0.03346*%
%ADD22R,0.04331X0.02362*%
%ADD23R,0.02200X0.07800*%
%ADD24R,0.07800X0.02200*%
%ADD25R,0.01181X0.05906*%
%ADD26R,0.05906X0.01181*%
%ADD27R,0.05906X0.05118*%
%ADD28R,0.10000X0.06000*%
%ADD29R,0.03937X0.05512*%
%ADD30R,0.03150X0.03543*%
%ADD31R,0.02362X0.03150*%
%ADD32R,0.04252X0.04134*%
%ADD33R,0.01600X0.04600*%
D10*
X0012400Y0035678D02*
X0012400Y0265993D01*
X0051770Y0265993D01*
X0087203Y0307332D01*
X0201376Y0307332D01*
X0236809Y0265993D01*
X0276180Y0265993D01*
X0276180Y0035678D01*
X0012400Y0035678D01*
X0045690Y0062450D02*
X0045692Y0062604D01*
X0045698Y0062759D01*
X0045708Y0062913D01*
X0045722Y0063067D01*
X0045740Y0063220D01*
X0045761Y0063373D01*
X0045787Y0063526D01*
X0045817Y0063677D01*
X0045850Y0063828D01*
X0045888Y0063978D01*
X0045929Y0064127D01*
X0045974Y0064275D01*
X0046023Y0064421D01*
X0046076Y0064567D01*
X0046132Y0064710D01*
X0046192Y0064853D01*
X0046256Y0064993D01*
X0046323Y0065133D01*
X0046394Y0065270D01*
X0046468Y0065405D01*
X0046546Y0065539D01*
X0046627Y0065670D01*
X0046712Y0065799D01*
X0046800Y0065927D01*
X0046891Y0066051D01*
X0046985Y0066174D01*
X0047083Y0066294D01*
X0047183Y0066411D01*
X0047287Y0066526D01*
X0047393Y0066638D01*
X0047502Y0066747D01*
X0047614Y0066853D01*
X0047729Y0066957D01*
X0047846Y0067057D01*
X0047966Y0067155D01*
X0048089Y0067249D01*
X0048213Y0067340D01*
X0048341Y0067428D01*
X0048470Y0067513D01*
X0048601Y0067594D01*
X0048735Y0067672D01*
X0048870Y0067746D01*
X0049007Y0067817D01*
X0049147Y0067884D01*
X0049287Y0067948D01*
X0049430Y0068008D01*
X0049573Y0068064D01*
X0049719Y0068117D01*
X0049865Y0068166D01*
X0050013Y0068211D01*
X0050162Y0068252D01*
X0050312Y0068290D01*
X0050463Y0068323D01*
X0050614Y0068353D01*
X0050767Y0068379D01*
X0050920Y0068400D01*
X0051073Y0068418D01*
X0051227Y0068432D01*
X0051381Y0068442D01*
X0051536Y0068448D01*
X0051690Y0068450D01*
X0051844Y0068448D01*
X0051999Y0068442D01*
X0052153Y0068432D01*
X0052307Y0068418D01*
X0052460Y0068400D01*
X0052613Y0068379D01*
X0052766Y0068353D01*
X0052917Y0068323D01*
X0053068Y0068290D01*
X0053218Y0068252D01*
X0053367Y0068211D01*
X0053515Y0068166D01*
X0053661Y0068117D01*
X0053807Y0068064D01*
X0053950Y0068008D01*
X0054093Y0067948D01*
X0054233Y0067884D01*
X0054373Y0067817D01*
X0054510Y0067746D01*
X0054645Y0067672D01*
X0054779Y0067594D01*
X0054910Y0067513D01*
X0055039Y0067428D01*
X0055167Y0067340D01*
X0055291Y0067249D01*
X0055414Y0067155D01*
X0055534Y0067057D01*
X0055651Y0066957D01*
X0055766Y0066853D01*
X0055878Y0066747D01*
X0055987Y0066638D01*
X0056093Y0066526D01*
X0056197Y0066411D01*
X0056297Y0066294D01*
X0056395Y0066174D01*
X0056489Y0066051D01*
X0056580Y0065927D01*
X0056668Y0065799D01*
X0056753Y0065670D01*
X0056834Y0065539D01*
X0056912Y0065405D01*
X0056986Y0065270D01*
X0057057Y0065133D01*
X0057124Y0064993D01*
X0057188Y0064853D01*
X0057248Y0064710D01*
X0057304Y0064567D01*
X0057357Y0064421D01*
X0057406Y0064275D01*
X0057451Y0064127D01*
X0057492Y0063978D01*
X0057530Y0063828D01*
X0057563Y0063677D01*
X0057593Y0063526D01*
X0057619Y0063373D01*
X0057640Y0063220D01*
X0057658Y0063067D01*
X0057672Y0062913D01*
X0057682Y0062759D01*
X0057688Y0062604D01*
X0057690Y0062450D01*
X0057688Y0062296D01*
X0057682Y0062141D01*
X0057672Y0061987D01*
X0057658Y0061833D01*
X0057640Y0061680D01*
X0057619Y0061527D01*
X0057593Y0061374D01*
X0057563Y0061223D01*
X0057530Y0061072D01*
X0057492Y0060922D01*
X0057451Y0060773D01*
X0057406Y0060625D01*
X0057357Y0060479D01*
X0057304Y0060333D01*
X0057248Y0060190D01*
X0057188Y0060047D01*
X0057124Y0059907D01*
X0057057Y0059767D01*
X0056986Y0059630D01*
X0056912Y0059495D01*
X0056834Y0059361D01*
X0056753Y0059230D01*
X0056668Y0059101D01*
X0056580Y0058973D01*
X0056489Y0058849D01*
X0056395Y0058726D01*
X0056297Y0058606D01*
X0056197Y0058489D01*
X0056093Y0058374D01*
X0055987Y0058262D01*
X0055878Y0058153D01*
X0055766Y0058047D01*
X0055651Y0057943D01*
X0055534Y0057843D01*
X0055414Y0057745D01*
X0055291Y0057651D01*
X0055167Y0057560D01*
X0055039Y0057472D01*
X0054910Y0057387D01*
X0054779Y0057306D01*
X0054645Y0057228D01*
X0054510Y0057154D01*
X0054373Y0057083D01*
X0054233Y0057016D01*
X0054093Y0056952D01*
X0053950Y0056892D01*
X0053807Y0056836D01*
X0053661Y0056783D01*
X0053515Y0056734D01*
X0053367Y0056689D01*
X0053218Y0056648D01*
X0053068Y0056610D01*
X0052917Y0056577D01*
X0052766Y0056547D01*
X0052613Y0056521D01*
X0052460Y0056500D01*
X0052307Y0056482D01*
X0052153Y0056468D01*
X0051999Y0056458D01*
X0051844Y0056452D01*
X0051690Y0056450D01*
X0051536Y0056452D01*
X0051381Y0056458D01*
X0051227Y0056468D01*
X0051073Y0056482D01*
X0050920Y0056500D01*
X0050767Y0056521D01*
X0050614Y0056547D01*
X0050463Y0056577D01*
X0050312Y0056610D01*
X0050162Y0056648D01*
X0050013Y0056689D01*
X0049865Y0056734D01*
X0049719Y0056783D01*
X0049573Y0056836D01*
X0049430Y0056892D01*
X0049287Y0056952D01*
X0049147Y0057016D01*
X0049007Y0057083D01*
X0048870Y0057154D01*
X0048735Y0057228D01*
X0048601Y0057306D01*
X0048470Y0057387D01*
X0048341Y0057472D01*
X0048213Y0057560D01*
X0048089Y0057651D01*
X0047966Y0057745D01*
X0047846Y0057843D01*
X0047729Y0057943D01*
X0047614Y0058047D01*
X0047502Y0058153D01*
X0047393Y0058262D01*
X0047287Y0058374D01*
X0047183Y0058489D01*
X0047083Y0058606D01*
X0046985Y0058726D01*
X0046891Y0058849D01*
X0046800Y0058973D01*
X0046712Y0059101D01*
X0046627Y0059230D01*
X0046546Y0059361D01*
X0046468Y0059495D01*
X0046394Y0059630D01*
X0046323Y0059767D01*
X0046256Y0059907D01*
X0046192Y0060047D01*
X0046132Y0060190D01*
X0046076Y0060333D01*
X0046023Y0060479D01*
X0045974Y0060625D01*
X0045929Y0060773D01*
X0045888Y0060922D01*
X0045850Y0061072D01*
X0045817Y0061223D01*
X0045787Y0061374D01*
X0045761Y0061527D01*
X0045740Y0061680D01*
X0045722Y0061833D01*
X0045708Y0061987D01*
X0045698Y0062141D01*
X0045692Y0062296D01*
X0045690Y0062450D01*
X0230890Y0062450D02*
X0230892Y0062604D01*
X0230898Y0062759D01*
X0230908Y0062913D01*
X0230922Y0063067D01*
X0230940Y0063220D01*
X0230961Y0063373D01*
X0230987Y0063526D01*
X0231017Y0063677D01*
X0231050Y0063828D01*
X0231088Y0063978D01*
X0231129Y0064127D01*
X0231174Y0064275D01*
X0231223Y0064421D01*
X0231276Y0064567D01*
X0231332Y0064710D01*
X0231392Y0064853D01*
X0231456Y0064993D01*
X0231523Y0065133D01*
X0231594Y0065270D01*
X0231668Y0065405D01*
X0231746Y0065539D01*
X0231827Y0065670D01*
X0231912Y0065799D01*
X0232000Y0065927D01*
X0232091Y0066051D01*
X0232185Y0066174D01*
X0232283Y0066294D01*
X0232383Y0066411D01*
X0232487Y0066526D01*
X0232593Y0066638D01*
X0232702Y0066747D01*
X0232814Y0066853D01*
X0232929Y0066957D01*
X0233046Y0067057D01*
X0233166Y0067155D01*
X0233289Y0067249D01*
X0233413Y0067340D01*
X0233541Y0067428D01*
X0233670Y0067513D01*
X0233801Y0067594D01*
X0233935Y0067672D01*
X0234070Y0067746D01*
X0234207Y0067817D01*
X0234347Y0067884D01*
X0234487Y0067948D01*
X0234630Y0068008D01*
X0234773Y0068064D01*
X0234919Y0068117D01*
X0235065Y0068166D01*
X0235213Y0068211D01*
X0235362Y0068252D01*
X0235512Y0068290D01*
X0235663Y0068323D01*
X0235814Y0068353D01*
X0235967Y0068379D01*
X0236120Y0068400D01*
X0236273Y0068418D01*
X0236427Y0068432D01*
X0236581Y0068442D01*
X0236736Y0068448D01*
X0236890Y0068450D01*
X0237044Y0068448D01*
X0237199Y0068442D01*
X0237353Y0068432D01*
X0237507Y0068418D01*
X0237660Y0068400D01*
X0237813Y0068379D01*
X0237966Y0068353D01*
X0238117Y0068323D01*
X0238268Y0068290D01*
X0238418Y0068252D01*
X0238567Y0068211D01*
X0238715Y0068166D01*
X0238861Y0068117D01*
X0239007Y0068064D01*
X0239150Y0068008D01*
X0239293Y0067948D01*
X0239433Y0067884D01*
X0239573Y0067817D01*
X0239710Y0067746D01*
X0239845Y0067672D01*
X0239979Y0067594D01*
X0240110Y0067513D01*
X0240239Y0067428D01*
X0240367Y0067340D01*
X0240491Y0067249D01*
X0240614Y0067155D01*
X0240734Y0067057D01*
X0240851Y0066957D01*
X0240966Y0066853D01*
X0241078Y0066747D01*
X0241187Y0066638D01*
X0241293Y0066526D01*
X0241397Y0066411D01*
X0241497Y0066294D01*
X0241595Y0066174D01*
X0241689Y0066051D01*
X0241780Y0065927D01*
X0241868Y0065799D01*
X0241953Y0065670D01*
X0242034Y0065539D01*
X0242112Y0065405D01*
X0242186Y0065270D01*
X0242257Y0065133D01*
X0242324Y0064993D01*
X0242388Y0064853D01*
X0242448Y0064710D01*
X0242504Y0064567D01*
X0242557Y0064421D01*
X0242606Y0064275D01*
X0242651Y0064127D01*
X0242692Y0063978D01*
X0242730Y0063828D01*
X0242763Y0063677D01*
X0242793Y0063526D01*
X0242819Y0063373D01*
X0242840Y0063220D01*
X0242858Y0063067D01*
X0242872Y0062913D01*
X0242882Y0062759D01*
X0242888Y0062604D01*
X0242890Y0062450D01*
X0242888Y0062296D01*
X0242882Y0062141D01*
X0242872Y0061987D01*
X0242858Y0061833D01*
X0242840Y0061680D01*
X0242819Y0061527D01*
X0242793Y0061374D01*
X0242763Y0061223D01*
X0242730Y0061072D01*
X0242692Y0060922D01*
X0242651Y0060773D01*
X0242606Y0060625D01*
X0242557Y0060479D01*
X0242504Y0060333D01*
X0242448Y0060190D01*
X0242388Y0060047D01*
X0242324Y0059907D01*
X0242257Y0059767D01*
X0242186Y0059630D01*
X0242112Y0059495D01*
X0242034Y0059361D01*
X0241953Y0059230D01*
X0241868Y0059101D01*
X0241780Y0058973D01*
X0241689Y0058849D01*
X0241595Y0058726D01*
X0241497Y0058606D01*
X0241397Y0058489D01*
X0241293Y0058374D01*
X0241187Y0058262D01*
X0241078Y0058153D01*
X0240966Y0058047D01*
X0240851Y0057943D01*
X0240734Y0057843D01*
X0240614Y0057745D01*
X0240491Y0057651D01*
X0240367Y0057560D01*
X0240239Y0057472D01*
X0240110Y0057387D01*
X0239979Y0057306D01*
X0239845Y0057228D01*
X0239710Y0057154D01*
X0239573Y0057083D01*
X0239433Y0057016D01*
X0239293Y0056952D01*
X0239150Y0056892D01*
X0239007Y0056836D01*
X0238861Y0056783D01*
X0238715Y0056734D01*
X0238567Y0056689D01*
X0238418Y0056648D01*
X0238268Y0056610D01*
X0238117Y0056577D01*
X0237966Y0056547D01*
X0237813Y0056521D01*
X0237660Y0056500D01*
X0237507Y0056482D01*
X0237353Y0056468D01*
X0237199Y0056458D01*
X0237044Y0056452D01*
X0236890Y0056450D01*
X0236736Y0056452D01*
X0236581Y0056458D01*
X0236427Y0056468D01*
X0236273Y0056482D01*
X0236120Y0056500D01*
X0235967Y0056521D01*
X0235814Y0056547D01*
X0235663Y0056577D01*
X0235512Y0056610D01*
X0235362Y0056648D01*
X0235213Y0056689D01*
X0235065Y0056734D01*
X0234919Y0056783D01*
X0234773Y0056836D01*
X0234630Y0056892D01*
X0234487Y0056952D01*
X0234347Y0057016D01*
X0234207Y0057083D01*
X0234070Y0057154D01*
X0233935Y0057228D01*
X0233801Y0057306D01*
X0233670Y0057387D01*
X0233541Y0057472D01*
X0233413Y0057560D01*
X0233289Y0057651D01*
X0233166Y0057745D01*
X0233046Y0057843D01*
X0232929Y0057943D01*
X0232814Y0058047D01*
X0232702Y0058153D01*
X0232593Y0058262D01*
X0232487Y0058374D01*
X0232383Y0058489D01*
X0232283Y0058606D01*
X0232185Y0058726D01*
X0232091Y0058849D01*
X0232000Y0058973D01*
X0231912Y0059101D01*
X0231827Y0059230D01*
X0231746Y0059361D01*
X0231668Y0059495D01*
X0231594Y0059630D01*
X0231523Y0059767D01*
X0231456Y0059907D01*
X0231392Y0060047D01*
X0231332Y0060190D01*
X0231276Y0060333D01*
X0231223Y0060479D01*
X0231174Y0060625D01*
X0231129Y0060773D01*
X0231088Y0060922D01*
X0231050Y0061072D01*
X0231017Y0061223D01*
X0230987Y0061374D01*
X0230961Y0061527D01*
X0230940Y0061680D01*
X0230922Y0061833D01*
X0230908Y0061987D01*
X0230898Y0062141D01*
X0230892Y0062296D01*
X0230890Y0062450D01*
D11*
X0222573Y0127875D03*
X0215880Y0127875D03*
X0205746Y0128647D03*
X0199054Y0128647D03*
X0192026Y0128974D03*
X0185333Y0128974D03*
X0166715Y0117493D03*
X0166715Y0110800D03*
X0161589Y0092493D03*
X0161589Y0085800D03*
X0132089Y0085800D03*
X0132089Y0092493D03*
X0123668Y0088358D03*
X0116975Y0088358D03*
X0087215Y0115863D03*
X0087215Y0122556D03*
X0080400Y0114993D03*
X0080400Y0108300D03*
X0060746Y0110647D03*
X0054054Y0110647D03*
X0054054Y0118647D03*
X0060746Y0118647D03*
X0060746Y0102647D03*
X0054054Y0102647D03*
X0054054Y0094647D03*
X0060746Y0094647D03*
X0060746Y0086647D03*
X0054054Y0086647D03*
X0124400Y0128300D03*
X0124400Y0134993D03*
X0142967Y0134993D03*
X0142967Y0128300D03*
X0199628Y0167147D03*
X0206321Y0167147D03*
X0217715Y0175615D03*
X0217715Y0182308D03*
X0236215Y0196115D03*
X0236215Y0202808D03*
X0243215Y0177745D03*
X0243215Y0171052D03*
X0250215Y0152245D03*
X0250215Y0145552D03*
X0201613Y0233631D03*
X0201613Y0240324D03*
X0166400Y0211993D03*
X0166400Y0205300D03*
X0061270Y0235143D03*
X0061270Y0241836D03*
X0053254Y0187643D03*
X0053254Y0180950D03*
D12*
X0221215Y0199800D03*
X0221215Y0217123D03*
X0259215Y0185060D03*
X0259215Y0167737D03*
D13*
X0206380Y0121194D03*
X0206380Y0114501D03*
X0194223Y0106356D03*
X0194223Y0099663D03*
X0185628Y0092548D03*
X0185628Y0085856D03*
X0175317Y0085856D03*
X0175317Y0092548D03*
X0183585Y0115021D03*
X0183585Y0121714D03*
X0203217Y0091846D03*
X0203217Y0085153D03*
X0211931Y0085182D03*
X0211931Y0091875D03*
X0152089Y0092493D03*
X0152089Y0085800D03*
X0141589Y0085800D03*
X0141589Y0092493D03*
X0143743Y0099647D03*
X0150435Y0099647D03*
X0151652Y0128300D03*
X0151652Y0134993D03*
X0112400Y0133300D03*
X0112400Y0139993D03*
X0103400Y0139993D03*
X0103400Y0133300D03*
X0094000Y0133300D03*
X0094000Y0139993D03*
X0071400Y0114993D03*
X0071400Y0108300D03*
X0072400Y0093993D03*
X0072400Y0087300D03*
X0083943Y0085730D03*
X0083943Y0092422D03*
X0092884Y0098667D03*
X0092884Y0105359D03*
X0102286Y0105478D03*
X0102286Y0098785D03*
X0110471Y0098600D03*
X0110471Y0105293D03*
X0060746Y0126647D03*
X0054054Y0126647D03*
X0045400Y0125300D03*
X0045400Y0131993D03*
X0051089Y0196344D03*
X0057782Y0196344D03*
X0057656Y0205277D03*
X0050963Y0205277D03*
X0065790Y0204249D03*
X0065790Y0197556D03*
X0174400Y0205300D03*
X0174400Y0211993D03*
X0192400Y0211993D03*
X0192400Y0205300D03*
X0200400Y0205300D03*
X0200400Y0211993D03*
X0227392Y0226962D03*
X0227392Y0233655D03*
X0237329Y0233655D03*
X0237329Y0226962D03*
D14*
X0206415Y0196062D03*
X0206415Y0186962D03*
X0206415Y0177862D03*
X0241415Y0162499D03*
X0241415Y0153399D03*
X0241415Y0144299D03*
D15*
X0217014Y0153399D03*
X0182014Y0186962D03*
D16*
X0185022Y0167147D03*
X0190928Y0167147D03*
X0227569Y0241907D03*
X0227569Y0247812D03*
X0237329Y0247761D03*
X0237329Y0241856D03*
X0220900Y0091600D03*
X0220900Y0085694D03*
X0194150Y0085444D03*
X0194150Y0091350D03*
X0111042Y0092170D03*
X0111042Y0086265D03*
X0101853Y0086265D03*
X0101853Y0092170D03*
X0092668Y0092485D03*
X0092668Y0086580D03*
D17*
X0096770Y0115993D03*
X0096770Y0122293D03*
X0112912Y0122293D03*
X0112912Y0115993D03*
D18*
X0104841Y0124753D03*
D19*
X0209963Y0227907D03*
X0216262Y0227907D03*
X0216262Y0244048D03*
X0209963Y0244048D03*
D20*
X0218723Y0235978D03*
D21*
X0193502Y0230399D03*
X0181691Y0238273D03*
X0193502Y0246147D03*
X0181691Y0254021D03*
X0193502Y0261895D03*
X0181691Y0269769D03*
X0193502Y0277643D03*
X0181691Y0285517D03*
X0193502Y0293391D03*
X0181691Y0301265D03*
X0106888Y0293391D03*
X0095077Y0301265D03*
X0095077Y0285517D03*
X0106888Y0277643D03*
X0095077Y0269769D03*
X0106888Y0261895D03*
X0095077Y0254021D03*
X0106888Y0246147D03*
X0095077Y0238273D03*
X0106888Y0230399D03*
D22*
X0079920Y0229147D03*
X0079920Y0234068D03*
X0079920Y0238989D03*
X0079920Y0243911D03*
X0071258Y0243911D03*
X0071258Y0238989D03*
X0071258Y0234068D03*
X0071258Y0229147D03*
D23*
X0073471Y0205733D03*
X0078471Y0205733D03*
X0083471Y0205733D03*
X0088471Y0205733D03*
X0088471Y0186333D03*
X0083471Y0186333D03*
X0078471Y0186333D03*
X0073471Y0186333D03*
D24*
X0137515Y0121647D03*
X0137515Y0116647D03*
X0137515Y0111647D03*
X0137515Y0106647D03*
X0156915Y0106647D03*
X0156915Y0111647D03*
X0156915Y0116647D03*
X0156915Y0121647D03*
D25*
X0157085Y0144115D03*
X0155117Y0144115D03*
X0153148Y0144115D03*
X0151180Y0144115D03*
X0149211Y0144115D03*
X0147243Y0144115D03*
X0145274Y0144115D03*
X0143306Y0144115D03*
X0141337Y0144115D03*
X0139369Y0144115D03*
X0137400Y0144115D03*
X0135431Y0144115D03*
X0133463Y0144115D03*
X0131494Y0144115D03*
X0129526Y0144115D03*
X0159054Y0144115D03*
X0159054Y0188997D03*
X0157085Y0188997D03*
X0155117Y0188997D03*
X0153148Y0188997D03*
X0151180Y0188997D03*
X0149211Y0188997D03*
X0147243Y0188997D03*
X0145274Y0188997D03*
X0143306Y0188997D03*
X0141337Y0188997D03*
X0139369Y0188997D03*
X0137400Y0188997D03*
X0135431Y0188997D03*
X0133463Y0188997D03*
X0131494Y0188997D03*
X0129526Y0188997D03*
D26*
X0121849Y0181320D03*
X0121849Y0179352D03*
X0121849Y0177383D03*
X0121849Y0175415D03*
X0121849Y0173446D03*
X0121849Y0171478D03*
X0121849Y0169509D03*
X0121849Y0167541D03*
X0121849Y0165572D03*
X0121849Y0163604D03*
X0121849Y0161635D03*
X0121849Y0159667D03*
X0121849Y0157698D03*
X0121849Y0155730D03*
X0121849Y0153761D03*
X0121849Y0151793D03*
X0166731Y0151793D03*
X0166731Y0153761D03*
X0166731Y0155730D03*
X0166731Y0157698D03*
X0166731Y0159667D03*
X0166731Y0161635D03*
X0166731Y0163604D03*
X0166731Y0165572D03*
X0166731Y0167541D03*
X0166731Y0169509D03*
X0166731Y0171478D03*
X0166731Y0173446D03*
X0166731Y0175415D03*
X0166731Y0177383D03*
X0166731Y0179352D03*
X0166731Y0181320D03*
D27*
X0169400Y0189907D03*
X0169400Y0197387D03*
X0127215Y0117887D03*
X0127215Y0110407D03*
X0062400Y0179907D03*
X0062400Y0187387D03*
D28*
X0230215Y0185899D03*
X0230215Y0170899D03*
X0261715Y0157899D03*
X0261715Y0142899D03*
D29*
X0211424Y0098909D03*
X0203943Y0098909D03*
X0207683Y0107570D03*
X0184494Y0099182D03*
X0177014Y0099182D03*
X0180754Y0107844D03*
D30*
X0191514Y0121261D03*
X0198994Y0121261D03*
X0195254Y0112993D03*
D31*
X0176550Y0127647D03*
X0170250Y0127647D03*
D32*
X0030400Y0125202D03*
X0030400Y0132092D03*
D33*
X0076100Y0101747D03*
X0081300Y0101747D03*
X0078700Y0093547D03*
X0180800Y0205547D03*
X0186000Y0205547D03*
X0183400Y0213747D03*
M02*
