G75*
%MOIN*%
%OFA0B0*%
%FSLAX25Y25*%
%IPPOS*%
%LPD*%
%AMOC8*
5,1,8,0,0,1.08239X$1,22.5*
%
%ADD10C,0.00000*%
%ADD11C,0.00800*%
%ADD12C,0.00400*%
%ADD13C,0.01433*%
%ADD14C,0.00700*%
%ADD15C,0.00500*%
D10*
X0006969Y0009400D02*
X0008937Y0308613D01*
X0237283Y0308613D01*
X0239252Y0009400D01*
X0006969Y0009400D01*
D11*
X0105624Y0192837D02*
X0131424Y0192837D01*
X0131424Y0206837D01*
X0105624Y0206837D01*
X0105624Y0192837D01*
X0130984Y0216447D02*
X0134134Y0213298D01*
X0151063Y0213298D01*
X0151063Y0233376D02*
X0134134Y0233376D01*
X0130984Y0230227D01*
X0197094Y0141534D02*
X0199457Y0141534D01*
X0204772Y0134250D02*
X0204772Y0125983D01*
X0199457Y0118699D02*
X0197094Y0118699D01*
X0191780Y0125983D02*
X0191780Y0134250D01*
D12*
X0127779Y0187459D02*
X0126224Y0187459D01*
X0126690Y0188081D02*
X0126690Y0186837D01*
X0127779Y0187459D02*
X0127157Y0189637D01*
X0124298Y0213837D02*
X0123520Y0213837D01*
X0123464Y0213839D01*
X0123409Y0213845D01*
X0123355Y0213855D01*
X0123301Y0213869D01*
X0123248Y0213886D01*
X0123197Y0213907D01*
X0123147Y0213932D01*
X0123099Y0213961D01*
X0123054Y0213992D01*
X0123011Y0214027D01*
X0122970Y0214065D01*
X0122932Y0214106D01*
X0122897Y0214149D01*
X0122866Y0214194D01*
X0122837Y0214242D01*
X0122812Y0214292D01*
X0122791Y0214343D01*
X0122774Y0214396D01*
X0122760Y0214450D01*
X0122750Y0214504D01*
X0122744Y0214559D01*
X0122742Y0214615D01*
X0122744Y0214671D01*
X0122750Y0214726D01*
X0122760Y0214780D01*
X0122774Y0214834D01*
X0122791Y0214887D01*
X0122812Y0214938D01*
X0122837Y0214988D01*
X0122866Y0215036D01*
X0122897Y0215081D01*
X0122932Y0215124D01*
X0122970Y0215165D01*
X0123011Y0215203D01*
X0123054Y0215238D01*
X0123099Y0215269D01*
X0123147Y0215298D01*
X0123197Y0215323D01*
X0123248Y0215344D01*
X0123301Y0215361D01*
X0123355Y0215375D01*
X0123409Y0215385D01*
X0123464Y0215391D01*
X0123520Y0215393D01*
X0123365Y0215393D02*
X0123987Y0215393D01*
X0123365Y0215393D02*
X0123316Y0215395D01*
X0123268Y0215401D01*
X0123220Y0215410D01*
X0123173Y0215423D01*
X0123127Y0215440D01*
X0123083Y0215461D01*
X0123040Y0215485D01*
X0122999Y0215512D01*
X0122961Y0215542D01*
X0122925Y0215575D01*
X0122892Y0215611D01*
X0122862Y0215649D01*
X0122835Y0215690D01*
X0122811Y0215733D01*
X0122790Y0215777D01*
X0122773Y0215823D01*
X0122760Y0215870D01*
X0122751Y0215918D01*
X0122745Y0215966D01*
X0122743Y0216015D01*
X0122745Y0216064D01*
X0122751Y0216112D01*
X0122760Y0216160D01*
X0122773Y0216207D01*
X0122790Y0216253D01*
X0122811Y0216297D01*
X0122835Y0216340D01*
X0122862Y0216381D01*
X0122892Y0216419D01*
X0122925Y0216455D01*
X0122961Y0216488D01*
X0122999Y0216518D01*
X0123040Y0216545D01*
X0123083Y0216569D01*
X0123127Y0216590D01*
X0123173Y0216607D01*
X0123220Y0216620D01*
X0123268Y0216629D01*
X0123316Y0216635D01*
X0123365Y0216637D01*
X0124298Y0216637D01*
X0115198Y0213874D02*
X0113643Y0213874D01*
X0115198Y0213874D02*
X0113876Y0215430D01*
X0114343Y0216674D02*
X0114399Y0216672D01*
X0114456Y0216667D01*
X0114512Y0216658D01*
X0114567Y0216646D01*
X0114621Y0216630D01*
X0114674Y0216611D01*
X0114726Y0216588D01*
X0114776Y0216563D01*
X0114825Y0216534D01*
X0114872Y0216502D01*
X0114916Y0216467D01*
X0114959Y0216430D01*
X0114999Y0216390D01*
X0115036Y0216348D01*
X0115071Y0216303D01*
X0115102Y0216256D01*
X0115131Y0216207D01*
X0115157Y0216157D01*
X0115179Y0216105D01*
X0115198Y0216052D01*
X0113875Y0215429D02*
X0113840Y0215466D01*
X0113807Y0215504D01*
X0113776Y0215545D01*
X0113749Y0215587D01*
X0113724Y0215632D01*
X0113703Y0215678D01*
X0113684Y0215725D01*
X0113669Y0215773D01*
X0113657Y0215823D01*
X0113649Y0215873D01*
X0113644Y0215923D01*
X0113642Y0215974D01*
X0113643Y0215974D02*
X0113645Y0216024D01*
X0113650Y0216074D01*
X0113659Y0216123D01*
X0113671Y0216171D01*
X0113687Y0216219D01*
X0113706Y0216265D01*
X0113729Y0216309D01*
X0113754Y0216352D01*
X0113783Y0216393D01*
X0113814Y0216432D01*
X0113848Y0216469D01*
X0113885Y0216503D01*
X0113924Y0216534D01*
X0113965Y0216563D01*
X0114008Y0216588D01*
X0114052Y0216611D01*
X0114098Y0216630D01*
X0114146Y0216646D01*
X0114194Y0216658D01*
X0114243Y0216667D01*
X0114293Y0216672D01*
X0114343Y0216674D01*
X0106686Y0216015D02*
X0105908Y0216637D01*
X0105908Y0213837D01*
X0105131Y0213837D02*
X0106686Y0213837D01*
D13*
X0199063Y0138187D03*
D14*
X0214951Y0206953D02*
X0225177Y0206953D01*
X0225177Y0218941D01*
X0229065Y0218941D01*
X0225177Y0218941D02*
X0214951Y0218941D01*
X0222643Y0210541D02*
X0222643Y0208041D01*
X0221393Y0209291D02*
X0223893Y0209291D01*
X0225177Y0206953D02*
X0229065Y0206953D01*
X0118081Y0229843D02*
X0114193Y0229843D01*
X0114193Y0241831D01*
X0118081Y0241831D01*
X0114193Y0241831D02*
X0103967Y0241831D01*
X0110409Y0232181D02*
X0112909Y0232181D01*
X0111659Y0230931D02*
X0111659Y0233431D01*
X0114193Y0229843D02*
X0103967Y0229843D01*
D15*
X0104468Y0228087D02*
X0103301Y0228087D01*
X0103245Y0228085D01*
X0103190Y0228079D01*
X0103136Y0228069D01*
X0103082Y0228055D01*
X0103029Y0228038D01*
X0102978Y0228017D01*
X0102928Y0227992D01*
X0102880Y0227963D01*
X0102835Y0227932D01*
X0102792Y0227897D01*
X0102751Y0227859D01*
X0102713Y0227818D01*
X0102678Y0227775D01*
X0102647Y0227730D01*
X0102618Y0227682D01*
X0102593Y0227632D01*
X0102572Y0227581D01*
X0102555Y0227528D01*
X0102541Y0227474D01*
X0102531Y0227420D01*
X0102525Y0227365D01*
X0102523Y0227309D01*
X0102525Y0227253D01*
X0102531Y0227198D01*
X0102541Y0227144D01*
X0102555Y0227090D01*
X0102572Y0227037D01*
X0102593Y0226986D01*
X0102618Y0226936D01*
X0102647Y0226888D01*
X0102678Y0226843D01*
X0102713Y0226800D01*
X0102751Y0226759D01*
X0102792Y0226721D01*
X0102835Y0226686D01*
X0102880Y0226655D01*
X0102928Y0226626D01*
X0102978Y0226601D01*
X0103029Y0226580D01*
X0103082Y0226563D01*
X0103136Y0226549D01*
X0103190Y0226539D01*
X0103245Y0226533D01*
X0103301Y0226531D01*
X0104079Y0226531D01*
X0103496Y0226531D02*
X0103435Y0226529D01*
X0103374Y0226523D01*
X0103314Y0226514D01*
X0103254Y0226500D01*
X0103196Y0226483D01*
X0103138Y0226463D01*
X0103082Y0226438D01*
X0103028Y0226411D01*
X0102975Y0226380D01*
X0102925Y0226345D01*
X0102876Y0226308D01*
X0102831Y0226268D01*
X0102787Y0226224D01*
X0102747Y0226179D01*
X0102710Y0226130D01*
X0102675Y0226080D01*
X0102644Y0226027D01*
X0102617Y0225973D01*
X0102592Y0225917D01*
X0102572Y0225859D01*
X0102555Y0225801D01*
X0102541Y0225741D01*
X0102532Y0225681D01*
X0102526Y0225620D01*
X0102524Y0225559D01*
X0102526Y0225498D01*
X0102532Y0225437D01*
X0102541Y0225377D01*
X0102555Y0225317D01*
X0102572Y0225259D01*
X0102592Y0225201D01*
X0102617Y0225145D01*
X0102644Y0225091D01*
X0102675Y0225038D01*
X0102710Y0224988D01*
X0102747Y0224939D01*
X0102787Y0224894D01*
X0102831Y0224850D01*
X0102876Y0224810D01*
X0102925Y0224773D01*
X0102975Y0224738D01*
X0103028Y0224707D01*
X0103082Y0224680D01*
X0103138Y0224655D01*
X0103196Y0224635D01*
X0103254Y0224618D01*
X0103314Y0224604D01*
X0103374Y0224595D01*
X0103435Y0224589D01*
X0103496Y0224587D01*
X0104468Y0224587D01*
X0106124Y0224587D02*
X0108068Y0224587D01*
X0107096Y0224587D02*
X0107096Y0228087D01*
X0108068Y0227309D01*
X0109526Y0228087D02*
X0110304Y0228087D01*
X0110360Y0228085D01*
X0110415Y0228079D01*
X0110469Y0228069D01*
X0110523Y0228055D01*
X0110576Y0228038D01*
X0110627Y0228017D01*
X0110677Y0227992D01*
X0110725Y0227963D01*
X0110770Y0227932D01*
X0110813Y0227897D01*
X0110854Y0227859D01*
X0110892Y0227818D01*
X0110927Y0227775D01*
X0110959Y0227730D01*
X0110987Y0227682D01*
X0111012Y0227632D01*
X0111033Y0227581D01*
X0111050Y0227528D01*
X0111064Y0227474D01*
X0111074Y0227420D01*
X0111080Y0227365D01*
X0111082Y0227309D01*
X0111081Y0227309D02*
X0111081Y0225365D01*
X0111082Y0225365D02*
X0111080Y0225312D01*
X0111075Y0225259D01*
X0111066Y0225207D01*
X0111053Y0225155D01*
X0111037Y0225104D01*
X0111018Y0225055D01*
X0110995Y0225007D01*
X0110969Y0224961D01*
X0110940Y0224916D01*
X0110908Y0224874D01*
X0110873Y0224834D01*
X0110835Y0224796D01*
X0110795Y0224761D01*
X0110753Y0224729D01*
X0110708Y0224700D01*
X0110662Y0224674D01*
X0110614Y0224651D01*
X0110565Y0224632D01*
X0110514Y0224616D01*
X0110462Y0224603D01*
X0110410Y0224594D01*
X0110357Y0224589D01*
X0110304Y0224587D01*
X0109526Y0224587D01*
X0109409Y0243337D02*
X0111354Y0243337D01*
X0110381Y0243337D02*
X0110381Y0246837D01*
X0111354Y0246059D01*
X0105809Y0245087D02*
X0105811Y0244986D01*
X0105816Y0244886D01*
X0105825Y0244786D01*
X0105837Y0244686D01*
X0105853Y0244586D01*
X0105872Y0244488D01*
X0105895Y0244390D01*
X0105921Y0244292D01*
X0105950Y0244196D01*
X0105983Y0244101D01*
X0106019Y0244007D01*
X0106058Y0243914D01*
X0106101Y0243823D01*
X0106120Y0243774D01*
X0106142Y0243726D01*
X0106168Y0243681D01*
X0106197Y0243637D01*
X0106229Y0243595D01*
X0106264Y0243556D01*
X0106302Y0243520D01*
X0106342Y0243487D01*
X0106385Y0243456D01*
X0106430Y0243429D01*
X0106476Y0243405D01*
X0106524Y0243384D01*
X0106574Y0243367D01*
X0106625Y0243354D01*
X0106676Y0243345D01*
X0106729Y0243339D01*
X0106781Y0243337D01*
X0106833Y0243339D01*
X0106886Y0243345D01*
X0106937Y0243354D01*
X0106988Y0243367D01*
X0107038Y0243384D01*
X0107086Y0243405D01*
X0107132Y0243429D01*
X0107177Y0243456D01*
X0107220Y0243487D01*
X0107260Y0243520D01*
X0107298Y0243556D01*
X0107333Y0243595D01*
X0107365Y0243637D01*
X0107394Y0243681D01*
X0107420Y0243726D01*
X0107442Y0243774D01*
X0107461Y0243823D01*
X0107559Y0244115D02*
X0106004Y0246059D01*
X0106781Y0246837D02*
X0106833Y0246835D01*
X0106886Y0246829D01*
X0106937Y0246820D01*
X0106988Y0246807D01*
X0107038Y0246790D01*
X0107086Y0246769D01*
X0107132Y0246745D01*
X0107177Y0246718D01*
X0107220Y0246687D01*
X0107260Y0246654D01*
X0107298Y0246618D01*
X0107333Y0246579D01*
X0107365Y0246537D01*
X0107394Y0246493D01*
X0107420Y0246448D01*
X0107442Y0246400D01*
X0107461Y0246351D01*
X0106781Y0246837D02*
X0106729Y0246835D01*
X0106676Y0246829D01*
X0106625Y0246820D01*
X0106574Y0246807D01*
X0106524Y0246790D01*
X0106476Y0246769D01*
X0106429Y0246745D01*
X0106385Y0246718D01*
X0106342Y0246687D01*
X0106302Y0246654D01*
X0106264Y0246618D01*
X0106229Y0246579D01*
X0106197Y0246537D01*
X0106168Y0246493D01*
X0106142Y0246448D01*
X0106120Y0246400D01*
X0106101Y0246351D01*
X0107461Y0246351D02*
X0107504Y0246260D01*
X0107543Y0246167D01*
X0107579Y0246073D01*
X0107612Y0245978D01*
X0107641Y0245882D01*
X0107667Y0245784D01*
X0107690Y0245686D01*
X0107709Y0245588D01*
X0107725Y0245488D01*
X0107737Y0245388D01*
X0107746Y0245288D01*
X0107751Y0245188D01*
X0107753Y0245087D01*
X0105809Y0245087D02*
X0105811Y0245188D01*
X0105816Y0245288D01*
X0105825Y0245388D01*
X0105837Y0245488D01*
X0105853Y0245588D01*
X0105872Y0245686D01*
X0105895Y0245784D01*
X0105921Y0245882D01*
X0105950Y0245978D01*
X0105983Y0246073D01*
X0106019Y0246167D01*
X0106058Y0246260D01*
X0106101Y0246351D01*
X0107753Y0245087D02*
X0107751Y0244986D01*
X0107746Y0244886D01*
X0107737Y0244786D01*
X0107725Y0244686D01*
X0107709Y0244586D01*
X0107690Y0244488D01*
X0107667Y0244390D01*
X0107641Y0244292D01*
X0107612Y0244196D01*
X0107579Y0244101D01*
X0107543Y0244007D01*
X0107504Y0243914D01*
X0107461Y0243823D01*
X0104079Y0243920D02*
X0104079Y0245670D01*
X0102524Y0245670D02*
X0102524Y0243337D01*
X0103496Y0243337D01*
X0103544Y0243339D01*
X0103592Y0243345D01*
X0103639Y0243355D01*
X0103685Y0243369D01*
X0103730Y0243386D01*
X0103773Y0243407D01*
X0103815Y0243432D01*
X0103854Y0243460D01*
X0103891Y0243491D01*
X0103925Y0243525D01*
X0103956Y0243562D01*
X0103984Y0243601D01*
X0104009Y0243643D01*
X0104030Y0243686D01*
X0104047Y0243731D01*
X0104061Y0243777D01*
X0104071Y0243824D01*
X0104077Y0243872D01*
X0104079Y0243920D01*
X0213508Y0222781D02*
X0213508Y0220447D01*
X0214480Y0220447D01*
X0214480Y0220448D02*
X0214528Y0220450D01*
X0214576Y0220456D01*
X0214623Y0220466D01*
X0214669Y0220480D01*
X0214714Y0220497D01*
X0214757Y0220518D01*
X0214799Y0220543D01*
X0214838Y0220571D01*
X0214875Y0220602D01*
X0214909Y0220636D01*
X0214940Y0220673D01*
X0214968Y0220712D01*
X0214993Y0220754D01*
X0215014Y0220797D01*
X0215031Y0220842D01*
X0215045Y0220888D01*
X0215055Y0220935D01*
X0215061Y0220983D01*
X0215063Y0221031D01*
X0215063Y0222781D01*
X0218737Y0222197D02*
X0218735Y0222096D01*
X0218730Y0221996D01*
X0218721Y0221896D01*
X0218709Y0221796D01*
X0218693Y0221696D01*
X0218674Y0221598D01*
X0218651Y0221500D01*
X0218625Y0221402D01*
X0218596Y0221306D01*
X0218563Y0221211D01*
X0218527Y0221117D01*
X0218488Y0221024D01*
X0218445Y0220933D01*
X0218543Y0221225D02*
X0216988Y0223169D01*
X0217086Y0223461D02*
X0217105Y0223510D01*
X0217127Y0223558D01*
X0217153Y0223603D01*
X0217182Y0223647D01*
X0217214Y0223689D01*
X0217249Y0223728D01*
X0217287Y0223764D01*
X0217327Y0223797D01*
X0217370Y0223828D01*
X0217414Y0223855D01*
X0217461Y0223879D01*
X0217509Y0223900D01*
X0217559Y0223917D01*
X0217610Y0223930D01*
X0217661Y0223939D01*
X0217714Y0223945D01*
X0217766Y0223947D01*
X0217818Y0223945D01*
X0217871Y0223939D01*
X0217922Y0223930D01*
X0217973Y0223917D01*
X0218023Y0223900D01*
X0218071Y0223879D01*
X0218117Y0223855D01*
X0218162Y0223828D01*
X0218205Y0223797D01*
X0218245Y0223764D01*
X0218283Y0223728D01*
X0218318Y0223689D01*
X0218350Y0223647D01*
X0218379Y0223603D01*
X0218405Y0223558D01*
X0218427Y0223510D01*
X0218446Y0223461D01*
X0222337Y0222197D02*
X0222335Y0222096D01*
X0222330Y0221996D01*
X0222321Y0221896D01*
X0222309Y0221796D01*
X0222293Y0221696D01*
X0222274Y0221598D01*
X0222251Y0221500D01*
X0222225Y0221402D01*
X0222196Y0221306D01*
X0222163Y0221211D01*
X0222127Y0221117D01*
X0222088Y0221024D01*
X0222045Y0220933D01*
X0222143Y0221225D02*
X0220588Y0223169D01*
X0220686Y0223461D02*
X0220705Y0223510D01*
X0220727Y0223558D01*
X0220753Y0223603D01*
X0220782Y0223647D01*
X0220814Y0223689D01*
X0220849Y0223728D01*
X0220887Y0223764D01*
X0220927Y0223797D01*
X0220970Y0223828D01*
X0221014Y0223855D01*
X0221061Y0223879D01*
X0221109Y0223900D01*
X0221159Y0223917D01*
X0221210Y0223930D01*
X0221261Y0223939D01*
X0221314Y0223945D01*
X0221366Y0223947D01*
X0221418Y0223945D01*
X0221471Y0223939D01*
X0221522Y0223930D01*
X0221573Y0223917D01*
X0221623Y0223900D01*
X0221671Y0223879D01*
X0221717Y0223855D01*
X0221762Y0223828D01*
X0221805Y0223797D01*
X0221845Y0223764D01*
X0221883Y0223728D01*
X0221918Y0223689D01*
X0221950Y0223647D01*
X0221979Y0223603D01*
X0222005Y0223558D01*
X0222027Y0223510D01*
X0222046Y0223461D01*
X0225937Y0222197D02*
X0225935Y0222096D01*
X0225930Y0221996D01*
X0225921Y0221896D01*
X0225909Y0221796D01*
X0225893Y0221696D01*
X0225874Y0221598D01*
X0225851Y0221500D01*
X0225825Y0221402D01*
X0225796Y0221306D01*
X0225763Y0221211D01*
X0225727Y0221117D01*
X0225688Y0221024D01*
X0225645Y0220933D01*
X0225743Y0221225D02*
X0224188Y0223169D01*
X0224286Y0223461D02*
X0224305Y0223510D01*
X0224327Y0223558D01*
X0224353Y0223603D01*
X0224382Y0223647D01*
X0224414Y0223689D01*
X0224449Y0223728D01*
X0224487Y0223764D01*
X0224527Y0223797D01*
X0224570Y0223828D01*
X0224614Y0223855D01*
X0224661Y0223879D01*
X0224709Y0223900D01*
X0224759Y0223917D01*
X0224810Y0223930D01*
X0224861Y0223939D01*
X0224914Y0223945D01*
X0224966Y0223947D01*
X0225018Y0223945D01*
X0225071Y0223939D01*
X0225122Y0223930D01*
X0225173Y0223917D01*
X0225223Y0223900D01*
X0225271Y0223879D01*
X0225317Y0223855D01*
X0225362Y0223828D01*
X0225405Y0223797D01*
X0225445Y0223764D01*
X0225483Y0223728D01*
X0225518Y0223689D01*
X0225550Y0223647D01*
X0225579Y0223603D01*
X0225605Y0223558D01*
X0225627Y0223510D01*
X0225646Y0223461D01*
X0229537Y0222197D02*
X0229535Y0222096D01*
X0229530Y0221996D01*
X0229521Y0221896D01*
X0229509Y0221796D01*
X0229493Y0221696D01*
X0229474Y0221598D01*
X0229451Y0221500D01*
X0229425Y0221402D01*
X0229396Y0221306D01*
X0229363Y0221211D01*
X0229327Y0221117D01*
X0229288Y0221024D01*
X0229245Y0220933D01*
X0229343Y0221225D02*
X0227788Y0223169D01*
X0227886Y0223461D02*
X0227905Y0223510D01*
X0227927Y0223558D01*
X0227953Y0223603D01*
X0227982Y0223647D01*
X0228014Y0223689D01*
X0228049Y0223728D01*
X0228087Y0223764D01*
X0228127Y0223797D01*
X0228170Y0223828D01*
X0228214Y0223855D01*
X0228261Y0223879D01*
X0228309Y0223900D01*
X0228359Y0223917D01*
X0228410Y0223930D01*
X0228461Y0223939D01*
X0228514Y0223945D01*
X0228566Y0223947D01*
X0228618Y0223945D01*
X0228671Y0223939D01*
X0228722Y0223930D01*
X0228773Y0223917D01*
X0228823Y0223900D01*
X0228871Y0223879D01*
X0228917Y0223855D01*
X0228962Y0223828D01*
X0229005Y0223797D01*
X0229045Y0223764D01*
X0229083Y0223728D01*
X0229118Y0223689D01*
X0229150Y0223647D01*
X0229179Y0223603D01*
X0229205Y0223558D01*
X0229227Y0223510D01*
X0229246Y0223461D01*
X0233137Y0222197D02*
X0233135Y0222096D01*
X0233130Y0221996D01*
X0233121Y0221896D01*
X0233109Y0221796D01*
X0233093Y0221696D01*
X0233074Y0221598D01*
X0233051Y0221500D01*
X0233025Y0221402D01*
X0232996Y0221306D01*
X0232963Y0221211D01*
X0232927Y0221117D01*
X0232888Y0221024D01*
X0232845Y0220933D01*
X0232943Y0221225D02*
X0231388Y0223169D01*
X0231486Y0223461D02*
X0231505Y0223510D01*
X0231527Y0223558D01*
X0231553Y0223603D01*
X0231582Y0223647D01*
X0231614Y0223689D01*
X0231649Y0223728D01*
X0231687Y0223764D01*
X0231727Y0223797D01*
X0231770Y0223828D01*
X0231814Y0223855D01*
X0231861Y0223879D01*
X0231909Y0223900D01*
X0231959Y0223917D01*
X0232010Y0223930D01*
X0232061Y0223939D01*
X0232114Y0223945D01*
X0232166Y0223947D01*
X0232218Y0223945D01*
X0232271Y0223939D01*
X0232322Y0223930D01*
X0232373Y0223917D01*
X0232423Y0223900D01*
X0232471Y0223879D01*
X0232517Y0223855D01*
X0232562Y0223828D01*
X0232605Y0223797D01*
X0232645Y0223764D01*
X0232683Y0223728D01*
X0232718Y0223689D01*
X0232750Y0223647D01*
X0232779Y0223603D01*
X0232805Y0223558D01*
X0232827Y0223510D01*
X0232846Y0223461D01*
X0231486Y0223461D02*
X0231443Y0223370D01*
X0231404Y0223277D01*
X0231368Y0223183D01*
X0231335Y0223088D01*
X0231306Y0222992D01*
X0231280Y0222894D01*
X0231257Y0222796D01*
X0231238Y0222698D01*
X0231222Y0222598D01*
X0231210Y0222498D01*
X0231201Y0222398D01*
X0231196Y0222298D01*
X0231194Y0222197D01*
X0227886Y0220933D02*
X0227843Y0221024D01*
X0227804Y0221117D01*
X0227768Y0221211D01*
X0227735Y0221306D01*
X0227706Y0221402D01*
X0227680Y0221500D01*
X0227657Y0221598D01*
X0227638Y0221696D01*
X0227622Y0221796D01*
X0227610Y0221896D01*
X0227601Y0221996D01*
X0227596Y0222096D01*
X0227594Y0222197D01*
X0224286Y0220933D02*
X0224243Y0221024D01*
X0224204Y0221117D01*
X0224168Y0221211D01*
X0224135Y0221306D01*
X0224106Y0221402D01*
X0224080Y0221500D01*
X0224057Y0221598D01*
X0224038Y0221696D01*
X0224022Y0221796D01*
X0224010Y0221896D01*
X0224001Y0221996D01*
X0223996Y0222096D01*
X0223994Y0222197D01*
X0220686Y0220933D02*
X0220643Y0221024D01*
X0220604Y0221117D01*
X0220568Y0221211D01*
X0220535Y0221306D01*
X0220506Y0221402D01*
X0220480Y0221500D01*
X0220457Y0221598D01*
X0220438Y0221696D01*
X0220422Y0221796D01*
X0220410Y0221896D01*
X0220401Y0221996D01*
X0220396Y0222096D01*
X0220394Y0222197D01*
X0217086Y0220933D02*
X0217043Y0221024D01*
X0217004Y0221117D01*
X0216968Y0221211D01*
X0216935Y0221306D01*
X0216906Y0221402D01*
X0216880Y0221500D01*
X0216857Y0221598D01*
X0216838Y0221696D01*
X0216822Y0221796D01*
X0216810Y0221896D01*
X0216801Y0221996D01*
X0216796Y0222096D01*
X0216794Y0222197D01*
X0218738Y0222197D02*
X0218736Y0222298D01*
X0218731Y0222398D01*
X0218722Y0222498D01*
X0218710Y0222598D01*
X0218694Y0222698D01*
X0218675Y0222796D01*
X0218652Y0222894D01*
X0218626Y0222992D01*
X0218597Y0223088D01*
X0218564Y0223183D01*
X0218528Y0223277D01*
X0218489Y0223370D01*
X0218446Y0223461D01*
X0222046Y0223461D02*
X0222089Y0223370D01*
X0222128Y0223277D01*
X0222164Y0223183D01*
X0222197Y0223088D01*
X0222226Y0222992D01*
X0222252Y0222894D01*
X0222275Y0222796D01*
X0222294Y0222698D01*
X0222310Y0222598D01*
X0222322Y0222498D01*
X0222331Y0222398D01*
X0222336Y0222298D01*
X0222338Y0222197D01*
X0225646Y0223461D02*
X0225689Y0223370D01*
X0225728Y0223277D01*
X0225764Y0223183D01*
X0225797Y0223088D01*
X0225826Y0222992D01*
X0225852Y0222894D01*
X0225875Y0222796D01*
X0225894Y0222698D01*
X0225910Y0222598D01*
X0225922Y0222498D01*
X0225931Y0222398D01*
X0225936Y0222298D01*
X0225938Y0222197D01*
X0229246Y0223461D02*
X0229289Y0223370D01*
X0229328Y0223277D01*
X0229364Y0223183D01*
X0229397Y0223088D01*
X0229426Y0222992D01*
X0229452Y0222894D01*
X0229475Y0222796D01*
X0229494Y0222698D01*
X0229510Y0222598D01*
X0229522Y0222498D01*
X0229531Y0222398D01*
X0229536Y0222298D01*
X0229538Y0222197D01*
X0232846Y0223461D02*
X0232889Y0223370D01*
X0232928Y0223277D01*
X0232964Y0223183D01*
X0232997Y0223088D01*
X0233026Y0222992D01*
X0233052Y0222894D01*
X0233075Y0222796D01*
X0233094Y0222698D01*
X0233110Y0222598D01*
X0233122Y0222498D01*
X0233131Y0222398D01*
X0233136Y0222298D01*
X0233138Y0222197D01*
X0231194Y0222197D02*
X0231196Y0222096D01*
X0231201Y0221996D01*
X0231210Y0221896D01*
X0231222Y0221796D01*
X0231238Y0221696D01*
X0231257Y0221598D01*
X0231280Y0221500D01*
X0231306Y0221402D01*
X0231335Y0221306D01*
X0231368Y0221211D01*
X0231404Y0221117D01*
X0231443Y0221024D01*
X0231486Y0220933D01*
X0231486Y0220934D02*
X0231505Y0220885D01*
X0231527Y0220837D01*
X0231553Y0220792D01*
X0231582Y0220748D01*
X0231614Y0220706D01*
X0231649Y0220667D01*
X0231687Y0220631D01*
X0231727Y0220598D01*
X0231770Y0220567D01*
X0231815Y0220540D01*
X0231861Y0220516D01*
X0231909Y0220495D01*
X0231959Y0220478D01*
X0232010Y0220465D01*
X0232061Y0220456D01*
X0232114Y0220450D01*
X0232166Y0220448D01*
X0232218Y0220450D01*
X0232271Y0220456D01*
X0232322Y0220465D01*
X0232373Y0220478D01*
X0232423Y0220495D01*
X0232471Y0220516D01*
X0232517Y0220540D01*
X0232562Y0220567D01*
X0232605Y0220598D01*
X0232645Y0220631D01*
X0232683Y0220667D01*
X0232718Y0220706D01*
X0232750Y0220748D01*
X0232779Y0220792D01*
X0232805Y0220837D01*
X0232827Y0220885D01*
X0232846Y0220934D01*
X0234793Y0220447D02*
X0236738Y0220447D01*
X0235766Y0220447D02*
X0235766Y0223947D01*
X0236738Y0223169D01*
X0227886Y0223461D02*
X0227843Y0223370D01*
X0227804Y0223277D01*
X0227768Y0223183D01*
X0227735Y0223088D01*
X0227706Y0222992D01*
X0227680Y0222894D01*
X0227657Y0222796D01*
X0227638Y0222698D01*
X0227622Y0222598D01*
X0227610Y0222498D01*
X0227601Y0222398D01*
X0227596Y0222298D01*
X0227594Y0222197D01*
X0224286Y0223461D02*
X0224243Y0223370D01*
X0224204Y0223277D01*
X0224168Y0223183D01*
X0224135Y0223088D01*
X0224106Y0222992D01*
X0224080Y0222894D01*
X0224057Y0222796D01*
X0224038Y0222698D01*
X0224022Y0222598D01*
X0224010Y0222498D01*
X0224001Y0222398D01*
X0223996Y0222298D01*
X0223994Y0222197D01*
X0220686Y0223461D02*
X0220643Y0223370D01*
X0220604Y0223277D01*
X0220568Y0223183D01*
X0220535Y0223088D01*
X0220506Y0222992D01*
X0220480Y0222894D01*
X0220457Y0222796D01*
X0220438Y0222698D01*
X0220422Y0222598D01*
X0220410Y0222498D01*
X0220401Y0222398D01*
X0220396Y0222298D01*
X0220394Y0222197D01*
X0217086Y0223461D02*
X0217043Y0223370D01*
X0217004Y0223277D01*
X0216968Y0223183D01*
X0216935Y0223088D01*
X0216906Y0222992D01*
X0216880Y0222894D01*
X0216857Y0222796D01*
X0216838Y0222698D01*
X0216822Y0222598D01*
X0216810Y0222498D01*
X0216801Y0222398D01*
X0216796Y0222298D01*
X0216794Y0222197D01*
X0217766Y0220448D02*
X0217818Y0220450D01*
X0217871Y0220456D01*
X0217922Y0220465D01*
X0217973Y0220478D01*
X0218023Y0220495D01*
X0218071Y0220516D01*
X0218117Y0220540D01*
X0218162Y0220567D01*
X0218205Y0220598D01*
X0218245Y0220631D01*
X0218283Y0220667D01*
X0218318Y0220706D01*
X0218350Y0220748D01*
X0218379Y0220792D01*
X0218405Y0220837D01*
X0218427Y0220885D01*
X0218446Y0220934D01*
X0217766Y0220448D02*
X0217714Y0220450D01*
X0217661Y0220456D01*
X0217610Y0220465D01*
X0217559Y0220478D01*
X0217509Y0220495D01*
X0217461Y0220516D01*
X0217415Y0220540D01*
X0217370Y0220567D01*
X0217327Y0220598D01*
X0217287Y0220631D01*
X0217249Y0220667D01*
X0217214Y0220706D01*
X0217182Y0220748D01*
X0217153Y0220792D01*
X0217127Y0220837D01*
X0217105Y0220885D01*
X0217086Y0220934D01*
X0220686Y0220934D02*
X0220705Y0220885D01*
X0220727Y0220837D01*
X0220753Y0220792D01*
X0220782Y0220748D01*
X0220814Y0220706D01*
X0220849Y0220667D01*
X0220887Y0220631D01*
X0220927Y0220598D01*
X0220970Y0220567D01*
X0221015Y0220540D01*
X0221061Y0220516D01*
X0221109Y0220495D01*
X0221159Y0220478D01*
X0221210Y0220465D01*
X0221261Y0220456D01*
X0221314Y0220450D01*
X0221366Y0220448D01*
X0221418Y0220450D01*
X0221471Y0220456D01*
X0221522Y0220465D01*
X0221573Y0220478D01*
X0221623Y0220495D01*
X0221671Y0220516D01*
X0221717Y0220540D01*
X0221762Y0220567D01*
X0221805Y0220598D01*
X0221845Y0220631D01*
X0221883Y0220667D01*
X0221918Y0220706D01*
X0221950Y0220748D01*
X0221979Y0220792D01*
X0222005Y0220837D01*
X0222027Y0220885D01*
X0222046Y0220934D01*
X0224286Y0220934D02*
X0224305Y0220885D01*
X0224327Y0220837D01*
X0224353Y0220792D01*
X0224382Y0220748D01*
X0224414Y0220706D01*
X0224449Y0220667D01*
X0224487Y0220631D01*
X0224527Y0220598D01*
X0224570Y0220567D01*
X0224615Y0220540D01*
X0224661Y0220516D01*
X0224709Y0220495D01*
X0224759Y0220478D01*
X0224810Y0220465D01*
X0224861Y0220456D01*
X0224914Y0220450D01*
X0224966Y0220448D01*
X0225018Y0220450D01*
X0225071Y0220456D01*
X0225122Y0220465D01*
X0225173Y0220478D01*
X0225223Y0220495D01*
X0225271Y0220516D01*
X0225317Y0220540D01*
X0225362Y0220567D01*
X0225405Y0220598D01*
X0225445Y0220631D01*
X0225483Y0220667D01*
X0225518Y0220706D01*
X0225550Y0220748D01*
X0225579Y0220792D01*
X0225605Y0220837D01*
X0225627Y0220885D01*
X0225646Y0220934D01*
X0227886Y0220934D02*
X0227905Y0220885D01*
X0227927Y0220837D01*
X0227953Y0220792D01*
X0227982Y0220748D01*
X0228014Y0220706D01*
X0228049Y0220667D01*
X0228087Y0220631D01*
X0228127Y0220598D01*
X0228170Y0220567D01*
X0228215Y0220540D01*
X0228261Y0220516D01*
X0228309Y0220495D01*
X0228359Y0220478D01*
X0228410Y0220465D01*
X0228461Y0220456D01*
X0228514Y0220450D01*
X0228566Y0220448D01*
X0228618Y0220450D01*
X0228671Y0220456D01*
X0228722Y0220465D01*
X0228773Y0220478D01*
X0228823Y0220495D01*
X0228871Y0220516D01*
X0228917Y0220540D01*
X0228962Y0220567D01*
X0229005Y0220598D01*
X0229045Y0220631D01*
X0229083Y0220667D01*
X0229118Y0220706D01*
X0229150Y0220748D01*
X0229179Y0220792D01*
X0229205Y0220837D01*
X0229227Y0220885D01*
X0229246Y0220934D01*
X0226457Y0231841D02*
X0226457Y0243652D01*
X0232362Y0243652D01*
X0232362Y0231841D01*
X0226457Y0231841D01*
X0227659Y0236996D02*
X0231159Y0236996D01*
X0231159Y0238496D02*
X0229409Y0236996D01*
X0227659Y0238496D01*
X0231159Y0238496D01*
X0221288Y0205197D02*
X0220510Y0205197D01*
X0221288Y0205197D02*
X0221344Y0205195D01*
X0221399Y0205189D01*
X0221453Y0205179D01*
X0221507Y0205165D01*
X0221560Y0205148D01*
X0221611Y0205127D01*
X0221661Y0205102D01*
X0221709Y0205073D01*
X0221754Y0205042D01*
X0221797Y0205007D01*
X0221838Y0204969D01*
X0221876Y0204928D01*
X0221911Y0204885D01*
X0221943Y0204840D01*
X0221971Y0204792D01*
X0221996Y0204742D01*
X0222017Y0204691D01*
X0222034Y0204638D01*
X0222048Y0204584D01*
X0222058Y0204530D01*
X0222064Y0204475D01*
X0222066Y0204419D01*
X0222066Y0202475D01*
X0222064Y0202422D01*
X0222059Y0202369D01*
X0222050Y0202317D01*
X0222037Y0202265D01*
X0222021Y0202214D01*
X0222002Y0202165D01*
X0221979Y0202117D01*
X0221953Y0202071D01*
X0221924Y0202026D01*
X0221892Y0201984D01*
X0221857Y0201944D01*
X0221819Y0201906D01*
X0221779Y0201871D01*
X0221737Y0201839D01*
X0221692Y0201810D01*
X0221646Y0201784D01*
X0221598Y0201761D01*
X0221549Y0201742D01*
X0221498Y0201726D01*
X0221446Y0201713D01*
X0221394Y0201704D01*
X0221341Y0201699D01*
X0221288Y0201697D01*
X0220510Y0201697D01*
X0219052Y0201697D02*
X0218080Y0201697D01*
X0218019Y0201699D01*
X0217958Y0201705D01*
X0217898Y0201714D01*
X0217838Y0201728D01*
X0217780Y0201745D01*
X0217722Y0201765D01*
X0217666Y0201790D01*
X0217612Y0201817D01*
X0217559Y0201848D01*
X0217509Y0201883D01*
X0217460Y0201920D01*
X0217415Y0201960D01*
X0217371Y0202004D01*
X0217331Y0202049D01*
X0217294Y0202098D01*
X0217259Y0202148D01*
X0217228Y0202201D01*
X0217201Y0202255D01*
X0217176Y0202311D01*
X0217156Y0202369D01*
X0217139Y0202427D01*
X0217125Y0202487D01*
X0217116Y0202547D01*
X0217110Y0202608D01*
X0217108Y0202669D01*
X0217110Y0202730D01*
X0217116Y0202791D01*
X0217125Y0202851D01*
X0217139Y0202911D01*
X0217156Y0202969D01*
X0217176Y0203027D01*
X0217201Y0203083D01*
X0217228Y0203137D01*
X0217259Y0203190D01*
X0217294Y0203240D01*
X0217331Y0203289D01*
X0217371Y0203334D01*
X0217415Y0203378D01*
X0217460Y0203418D01*
X0217509Y0203455D01*
X0217559Y0203490D01*
X0217612Y0203521D01*
X0217666Y0203548D01*
X0217722Y0203573D01*
X0217780Y0203593D01*
X0217838Y0203610D01*
X0217898Y0203624D01*
X0217958Y0203633D01*
X0218019Y0203639D01*
X0218080Y0203641D01*
X0217886Y0203642D02*
X0218663Y0203642D01*
X0217886Y0203641D02*
X0217830Y0203643D01*
X0217775Y0203649D01*
X0217721Y0203659D01*
X0217667Y0203673D01*
X0217614Y0203690D01*
X0217563Y0203711D01*
X0217513Y0203736D01*
X0217465Y0203765D01*
X0217420Y0203796D01*
X0217377Y0203831D01*
X0217336Y0203869D01*
X0217298Y0203910D01*
X0217263Y0203953D01*
X0217232Y0203998D01*
X0217203Y0204046D01*
X0217178Y0204096D01*
X0217157Y0204147D01*
X0217140Y0204200D01*
X0217126Y0204254D01*
X0217116Y0204308D01*
X0217110Y0204363D01*
X0217108Y0204419D01*
X0217110Y0204475D01*
X0217116Y0204530D01*
X0217126Y0204584D01*
X0217140Y0204638D01*
X0217157Y0204691D01*
X0217178Y0204742D01*
X0217203Y0204792D01*
X0217232Y0204840D01*
X0217263Y0204885D01*
X0217298Y0204928D01*
X0217336Y0204969D01*
X0217377Y0205007D01*
X0217420Y0205042D01*
X0217465Y0205073D01*
X0217513Y0205102D01*
X0217563Y0205127D01*
X0217614Y0205148D01*
X0217667Y0205165D01*
X0217721Y0205179D01*
X0217775Y0205189D01*
X0217830Y0205195D01*
X0217886Y0205197D01*
X0219052Y0205197D01*
X0215258Y0204419D02*
X0215256Y0204363D01*
X0215250Y0204308D01*
X0215240Y0204254D01*
X0215226Y0204200D01*
X0215209Y0204147D01*
X0215188Y0204096D01*
X0215163Y0204046D01*
X0215134Y0203998D01*
X0215103Y0203953D01*
X0215068Y0203910D01*
X0215030Y0203869D01*
X0214989Y0203831D01*
X0214946Y0203796D01*
X0214901Y0203765D01*
X0214853Y0203736D01*
X0214803Y0203711D01*
X0214752Y0203690D01*
X0214699Y0203673D01*
X0214645Y0203659D01*
X0214591Y0203649D01*
X0214536Y0203643D01*
X0214480Y0203641D01*
X0214424Y0203643D01*
X0214369Y0203649D01*
X0214315Y0203659D01*
X0214261Y0203673D01*
X0214208Y0203690D01*
X0214157Y0203711D01*
X0214107Y0203736D01*
X0214059Y0203765D01*
X0214014Y0203796D01*
X0213971Y0203831D01*
X0213930Y0203869D01*
X0213892Y0203910D01*
X0213857Y0203953D01*
X0213826Y0203998D01*
X0213797Y0204046D01*
X0213772Y0204096D01*
X0213751Y0204147D01*
X0213734Y0204200D01*
X0213720Y0204254D01*
X0213710Y0204308D01*
X0213704Y0204363D01*
X0213702Y0204419D01*
X0213704Y0204475D01*
X0213710Y0204530D01*
X0213720Y0204584D01*
X0213734Y0204638D01*
X0213751Y0204691D01*
X0213772Y0204742D01*
X0213797Y0204792D01*
X0213826Y0204840D01*
X0213857Y0204885D01*
X0213892Y0204928D01*
X0213930Y0204969D01*
X0213971Y0205007D01*
X0214014Y0205042D01*
X0214059Y0205073D01*
X0214107Y0205102D01*
X0214157Y0205127D01*
X0214208Y0205148D01*
X0214261Y0205165D01*
X0214315Y0205179D01*
X0214369Y0205189D01*
X0214424Y0205195D01*
X0214480Y0205197D01*
X0214536Y0205195D01*
X0214591Y0205189D01*
X0214645Y0205179D01*
X0214699Y0205165D01*
X0214752Y0205148D01*
X0214803Y0205127D01*
X0214853Y0205102D01*
X0214901Y0205073D01*
X0214946Y0205042D01*
X0214989Y0205007D01*
X0215030Y0204969D01*
X0215068Y0204928D01*
X0215103Y0204885D01*
X0215134Y0204840D01*
X0215163Y0204792D01*
X0215188Y0204742D01*
X0215209Y0204691D01*
X0215226Y0204638D01*
X0215240Y0204584D01*
X0215250Y0204530D01*
X0215256Y0204475D01*
X0215258Y0204419D01*
X0215452Y0202669D02*
X0215450Y0202608D01*
X0215444Y0202547D01*
X0215435Y0202487D01*
X0215421Y0202427D01*
X0215404Y0202369D01*
X0215384Y0202311D01*
X0215359Y0202255D01*
X0215332Y0202201D01*
X0215301Y0202148D01*
X0215266Y0202098D01*
X0215229Y0202049D01*
X0215189Y0202004D01*
X0215145Y0201960D01*
X0215100Y0201920D01*
X0215051Y0201883D01*
X0215001Y0201848D01*
X0214948Y0201817D01*
X0214894Y0201790D01*
X0214838Y0201765D01*
X0214780Y0201745D01*
X0214722Y0201728D01*
X0214662Y0201714D01*
X0214602Y0201705D01*
X0214541Y0201699D01*
X0214480Y0201697D01*
X0214419Y0201699D01*
X0214358Y0201705D01*
X0214298Y0201714D01*
X0214238Y0201728D01*
X0214180Y0201745D01*
X0214122Y0201765D01*
X0214066Y0201790D01*
X0214012Y0201817D01*
X0213959Y0201848D01*
X0213909Y0201883D01*
X0213860Y0201920D01*
X0213815Y0201960D01*
X0213771Y0202004D01*
X0213731Y0202049D01*
X0213694Y0202098D01*
X0213659Y0202148D01*
X0213628Y0202201D01*
X0213601Y0202255D01*
X0213576Y0202311D01*
X0213556Y0202369D01*
X0213539Y0202427D01*
X0213525Y0202487D01*
X0213516Y0202547D01*
X0213510Y0202608D01*
X0213508Y0202669D01*
X0213510Y0202730D01*
X0213516Y0202791D01*
X0213525Y0202851D01*
X0213539Y0202911D01*
X0213556Y0202969D01*
X0213576Y0203027D01*
X0213601Y0203083D01*
X0213628Y0203137D01*
X0213659Y0203190D01*
X0213694Y0203240D01*
X0213731Y0203289D01*
X0213771Y0203334D01*
X0213815Y0203378D01*
X0213860Y0203418D01*
X0213909Y0203455D01*
X0213959Y0203490D01*
X0214012Y0203521D01*
X0214066Y0203548D01*
X0214122Y0203573D01*
X0214180Y0203593D01*
X0214238Y0203610D01*
X0214298Y0203624D01*
X0214358Y0203633D01*
X0214419Y0203639D01*
X0214480Y0203641D01*
X0214541Y0203639D01*
X0214602Y0203633D01*
X0214662Y0203624D01*
X0214722Y0203610D01*
X0214780Y0203593D01*
X0214838Y0203573D01*
X0214894Y0203548D01*
X0214948Y0203521D01*
X0215001Y0203490D01*
X0215051Y0203455D01*
X0215100Y0203418D01*
X0215145Y0203378D01*
X0215189Y0203334D01*
X0215229Y0203289D01*
X0215266Y0203240D01*
X0215301Y0203190D01*
X0215332Y0203137D01*
X0215359Y0203083D01*
X0215384Y0203027D01*
X0215404Y0202969D01*
X0215421Y0202911D01*
X0215435Y0202851D01*
X0215444Y0202791D01*
X0215450Y0202730D01*
X0215452Y0202669D01*
M02*
