%
M48
M72
T01C0.01378
T02C0.01969
T03C0.04000
T04C0.04724
T05C0.05118
T06C0.12205
T07C0.13000
%
T01
X14890Y28002
X20748Y31522
X15016Y37561
X17630Y44786
X18185Y56400
X14642Y57806
X24122Y60400
X36685Y72400
X40685Y73900
X44370Y76329
X52185Y82900
X48307Y88140
X47185Y98900
X50724Y99951
X60685Y98900
X71929Y96014
X75685Y95655
X75866Y92077
X67933Y86837
X64055Y84203
X67992Y80266
X71933Y79837
X67992Y72809
X71933Y64837
X76734Y52889
X68185Y46900
X86185Y58400
X95607Y58400
X99185Y57900
X109110Y60624
X109185Y70246
X109185Y77400
X105114Y80140
X99488Y80266
X93783Y82243
X83740Y76329
X99185Y101900
X97685Y107900
X95196Y111762
X102854Y111502
X108185Y109400
X105512Y104471
X116685Y101900
X127047Y115699
X124185Y120400
X119173Y119636
X130185Y131411
X128047Y137884
X121482Y139321
X121047Y143258
X118185Y145900
X114828Y147603
X113685Y152900
X118185Y156400
X121047Y159506
X114185Y167411
X128673Y162443
X132251Y162943
X127047Y178202
X134921Y210187
X159685Y184900
X163685Y179900
X160185Y176414
X157685Y167411
X158185Y159900
X162480Y159006
X165116Y161469
X168107Y159400
X171685Y158900
X167685Y168400
X169685Y172900
X170228Y179837
X181209Y178628
X190039Y159006
X187059Y150046
X174291Y139443
X166417Y139321
X169417Y147695
X156142Y147538
X146732Y139321
X146685Y135743
X143376Y131447
X149185Y129400
X156185Y120900
X159043Y117636
X162480Y115699
X166417Y119699
X169685Y113900
X173642Y115038
X173196Y119636
X177185Y112900
X179185Y109900
X178685Y105900
X175174Y103102
X170185Y101900
X167685Y97900
X160685Y100400
X157185Y102900
X149685Y94400
X154685Y90400
X156682Y87337
X160260Y86420
X164685Y87400
X170185Y78400
X172685Y74400
X178228Y76329
X175315Y82931
X178228Y92889
X185165Y84294
X195185Y86900
X199185Y89900
X208323Y88833
X203496Y101428
X210943Y117400
X201850Y131447
X193976Y127510
X188998Y128900
X188642Y120475
X218831Y85376
X211685Y66124
X210957Y57817
X214894Y57817
X200185Y53400
X191272Y57817
X177390Y46719
X182165Y34022
X182390Y28719
X169390Y23719
X151390Y15719
X146732Y21211
X161390Y45719
X154606Y52707
X161685Y61400
X161016Y69719
X152720Y70164
X139283Y74243
X135685Y78400
X128685Y77400
X129185Y70246
X139283Y63243
X136685Y56400
X142685Y50400
X129354Y56502
X125685Y52900
X119012Y45971
X116685Y57400
X114012Y33971
X109012Y22971
X121012Y15971
X95012Y15971
X86457Y15510
X72457Y22510
X87457Y35510
X87677Y40896
X95551Y44833
X119272Y86983
X132685Y89900
X138858Y96014
X132685Y99400
X138685Y105400
X143196Y109522
X151028Y116872
X149232Y120136
X154606Y115699
X145685Y88900
X150799Y87172
X170685Y61900
X132764Y116664
X146232Y145695
X107362Y131411
X101685Y133900
X92707Y133900
X86555Y134333
X83126Y118597
X79571Y116861
X79803Y111743
X75866Y115699
X71929Y119636
X75866Y106821
X87677Y115699
X87185Y153900
X79803Y154310
X68453Y153061
X63181Y156799
X67992Y166880
X73311Y169900
X79803Y174754
X91185Y180400
X97415Y180691
X97988Y173925
X79087Y194931
X67992Y194439
X67992Y206250
X79587Y206931
X89685Y201900
X89685Y241573
X64185Y263400
X49906Y264455
X50783Y251050
X51209Y228361
X39150Y229825
X31150Y250325
X30776Y262668
X31402Y283199
X50028Y283109
X64185Y287900
X91614Y284991
X111299Y292865
X141685Y278400
X178252Y293825
X198020Y254073
X197913Y237746
X176563Y233483
X162480Y218061
X177185Y200215
X162185Y197400
X207665Y197959
X214142Y173313
X230685Y178691
X230685Y202313
X224752Y279825
X221252Y284825
X208791Y282479
X49709Y180723
X49831Y168703
X48307Y159506
X40433Y162443
X33453Y144061
X20453Y144061
X20748Y123573
X16915Y115699
X21185Y105900
X15426Y103661
X14642Y93239
X14642Y77491
X38185Y47900
X40433Y52889
X44370Y56644
X49126Y56597
X48185Y62900
X45201Y46817
X48201Y35817
X48079Y23758
X48457Y15510
X37185Y31400
X48307Y119636
X40685Y123573
X48307Y135384
X49453Y142061
X20748Y174754
X36496Y182628
X47587Y193931
X40433Y206250
X23685Y201400
X16915Y218061
X16685Y239400
X230685Y47900
T02
X29969Y39132
X29969Y44054
X29969Y48975
X29969Y53896
X30063Y67365
X30063Y72286
X30063Y77207
X30063Y82128
X30169Y96187
X30169Y101109
X30169Y106030
X30169Y110951
X30169Y115872
X56870Y196089
X56870Y201010
X56870Y205931
X56870Y210853
X212634Y144912
X212634Y139991
X212634Y135069
X212634Y130148
T03
X92700Y40000
X103500Y40000
X98100Y28800
X108900Y28800
X114300Y40000
X125100Y40000
X135900Y40000
X130500Y28800
X119700Y28800
X141300Y28800
X146700Y40000
X157500Y40000
X168300Y40000
X162900Y28800
X152100Y28800
T04
X218311Y233262
X218311Y247042
T05
X28622Y194439
X28622Y180660
X28622Y166880
X28622Y153101
T06
X25374Y21900
X225000Y21900
X225000Y297845
X25374Y297845
T07
X64900Y34400
X196100Y34400
M30
